<svg xmlns="http://www.w3.org/2000/svg" fill="currentColor" viewBox="0 -960 960 960"><path d="M333.85-417.69h292.3V-432q0-37.85-40.73-61.77T480-517.69t-105.42 23.92T333.85-432zM480-570q29.15 0 49.58-20.42Q550-610.85 550-640t-20.42-49.58Q509.15-710 480-710t-49.58 20.42Q410-669.15 410-640t20.42 49.58Q450.85-570 480-570M100-118.46v-669.23Q100-818 121-839t51.31-21h615.38Q818-860 839-839t21 51.31v455.38Q860-302 839-281t-51.31 21H241.54zM216-320h571.69q4.62 0 8.46-3.85 3.85-3.84 3.85-8.46v-455.38q0-4.62-3.85-8.46-3.84-3.85-8.46-3.85H172.31q-4.62 0-8.46 3.85-3.85 3.84-3.85 8.46v523.08zm-56 0v-480z"/></svg>