<svg xmlns="http://www.w3.org/2000/svg" fill="currentColor" viewBox="0 -960 960 960"><path d="M200-238.31q54-53 125.5-83.5t154.5-30.5 154.5 30.5 125.5 83.5v-509.38q0-4.62-3.85-8.46-3.84-3.85-8.46-3.85H212.31q-4.62 0-8.46 3.85-3.85 3.84-3.85 8.46zm280-200.15q54.15 0 92.08-37.92Q610-514.31 610-568.46t-37.92-92.08q-37.93-37.92-92.08-37.92t-92.08 37.92Q350-622.61 350-568.46t37.92 92.08q37.93 37.92 92.08 37.92M212.31-140Q182-140 161-161t-21-51.31v-535.38Q140-778 161-799t51.31-21h535.38Q778-820 799-799t21 51.31v535.38Q820-182 799-161t-51.31 21zm34.77-60h465.84Q662-246.69 601.89-269.5 541.77-292.31 480-292.31q-61 0-122.12 22.81-61.11 22.81-110.8 69.5M480-498.46q-28.85 0-49.42-20.58Q410-539.61 410-568.46t20.58-49.42q20.57-20.58 49.42-20.58t49.42 20.58Q550-597.31 550-568.46t-20.58 49.42q-20.57 20.58-49.42 20.58m0-.69"/></svg>