<svg xmlns="http://www.w3.org/2000/svg" fill="currentColor" viewBox="0 -960 960 960"><path d="M450-290h60v-120h120v-60H510v-120h-60v120H330v60h120zm30.02 190q-70.79 0-132.63-26.77-61.85-26.77-107.85-72.77t-72.77-107.82Q140-369.19 140-439.98t26.77-132.63q26.77-61.85 72.77-107.85t107.82-72.77Q409.19-780 479.98-780t132.63 26.77q61.85 26.77 107.85 72.77t72.77 107.82Q820-510.81 820-440.02t-26.77 132.63q-26.77 61.85-72.77 107.85t-107.82 72.77Q550.81-100 480.02-100M230.15-844.46l42.16 42.15-154.62 154.62-42.15-42.16zm499.7 0 154.61 154.61-42.15 42.16-154.62-154.62zM480-160q116.62 0 198.31-81.69T760-440t-81.69-198.31T480-720t-198.31 81.69T200-440t81.69 198.31T480-160"/></svg>