<svg xmlns="http://www.w3.org/2000/svg" fill="currentColor" viewBox="0 -960 960 960"><path d="M214.62-200v-190h210.76v190-190H214.62zM60-140v-370l260-185.38 265.77 189.61q-10.54 10.54-21 21.58t-21 21.57L320-621.23 120-480v280h94.62v-190h210.76v250h-59.99v-190h-90.78v190zm840-680v373.85q-13.16-13-27.96-23.27Q857.23-479.69 840-488v-272H467.69v71.77l-60-43.38V-820zM684.62-604.62h70.76v-70.76h-70.76zM720-60q-74.92 0-127.46-52.54T540-240t52.54-127.46T720-420t127.46 52.54T900-240t-52.54 127.46T720-60m-17.69-62.31h35.38v-100h100v-35.38h-100v-100h-35.38v100h-100v35.38h100z"/></svg>