<svg xmlns="http://www.w3.org/2000/svg" fill="currentColor" viewBox="0 -960 960 960"><path d="M681.54-180v-118.46H563.08v-60h118.46v-118.46h60v118.46H860v60H741.54V-180zM432.31-298.46H281.54q-75.34 0-128.44-53.1Q100-404.65 100-479.98t53.1-128.44q53.1-53.12 128.44-53.12h150.77v60H281.54q-50.39 0-85.96 35.58Q160-530.38 160-480t35.58 85.96q35.57 35.58 85.96 35.58h150.77zM330-450v-60h300v60zm530-30h-60q0-50.38-35.58-85.96-35.57-35.58-85.96-35.58H527.69v-60h150.77q75.34 0 128.44 53.1T860-480"/></svg>