<svg xmlns="http://www.w3.org/2000/svg" fill="currentColor" viewBox="0 -960 960 960"><path d="M480.07-100q-78.84 0-148.21-29.92t-120.68-81.21-81.25-120.63Q100-401.1 100-479.93q0-78.84 29.93-148.21 29.92-69.37 81.22-120.68t120.65-81.25Q401.15-860 480-860q41.46 0 80.31 8.31 38.84 8.31 74.3 24.31v67.3q-34.23-18.84-73.23-29.38T480-800q-133 0-226.5 93.5T160-480t93.5 226.5T480-160t226.5-93.5T800-480q0-30.46-5.73-59.12-5.73-28.65-15.96-55.49h64.46q8.61 27.46 12.92 55.71T860-480q0 78.85-29.92 148.2t-81.21 120.65-120.63 81.22Q558.9-100 480.07-100M810-690v-80h-80v-60h80v-80h60v80h80v60h-80v80zM616.24-527.69q21.84 0 37.03-15.29 15.19-15.28 15.19-37.11t-15.28-37.02q-15.28-15.2-37.12-15.2-21.83 0-37.02 15.29-15.19 15.28-15.19 37.11t15.28 37.02q15.28 15.2 37.11 15.2m-272.3 0q21.83 0 37.02-15.29 15.19-15.28 15.19-37.11t-15.28-37.02q-15.28-15.2-37.11-15.2-21.84 0-37.03 15.29-15.19 15.28-15.19 37.11t15.28 37.02q15.28 15.2 37.12 15.2M480-272.31q63.18 0 114.74-35.04 51.57-35.04 76.18-92.65H289.08q24.61 57.61 76.18 92.65 51.56 35.04 114.74 35.04"/></svg>