<svg xmlns="http://www.w3.org/2000/svg" fill="currentColor" viewBox="0 -960 960 960"><path d="M680-280q25 0 42.5-17.5T740-340t-17.5-42.5T680-400t-42.5 17.5T620-340t17.5 42.5T680-280m0 120q31.38 0 57.19-14.31t42.19-38.31Q757-226 732-233t-52-7-52 7-47.38 20.38q16.38 24 42.19 38.31T680-160m-200 59.23q-129.77-35.39-214.88-152.77Q180-370.92 180-516v-230.15l300-112.31 300 112.31v226.61q-14-5.69-29.39-10.27-15.38-4.57-30.61-7.19v-167.38L480-794l-240 89.62V-516q0 53.15 15 103.81 15 50.65 41.35 94.69 26.34 44.04 62.96 79.08 36.61 35.04 79.46 55.96l1.16-.39q7.92 22 20.53 42.16 12.62 20.15 28.69 36.61-2.53.77-4.57 1.66-2.04.88-4.58 1.65m200 .77q-74.92 0-127.46-52.54T500-280t52.54-127.46T680-460t127.46 52.54T860-280t-52.54 127.46T680-100M480-488.23"/></svg>