<svg xmlns="http://www.w3.org/2000/svg" fill="currentColor" viewBox="0 -960 960 960"><path d="M60-300v-360h60v300h330v-300h310q57.75 0 98.87 41.13Q900-577.75 900-520v220zm450-60h330v-160q0-33-23.5-56.5T760-600H510zm0-240v240zM280.05-417.69q42.64 0 72.45-29.86 29.81-29.85 29.81-72.5 0-42.64-29.86-72.45-29.85-29.81-72.5-29.81-42.64 0-72.45 29.86-29.81 29.85-29.81 72.5 0 42.64 29.86 72.45 29.85 29.81 72.5 29.81m-.05-60q-17.77 0-30.04-12.27T237.69-520t12.27-30.04T280-562.31t30.04 12.27T322.31-520t-12.27 30.04T280-477.69m0-42.31"/></svg>