<svg xmlns="http://www.w3.org/2000/svg" fill="currentColor" viewBox="0 -960 960 960"><path d="M370.77-420v-240h338.46q57.75 0 98.87 41.13 41.13 41.12 41.13 98.87v100zm60-180v120zm-320 295.38v-60h738.46v60zM213.08-420q-43.08 0-72.69-29.62-29.62-29.61-29.62-72.69 0-43.07 29.62-72.69 29.61-29.61 72.69-29.61 43.07 0 72.69 29.61 29.61 29.62 29.61 72.69 0 43.08-29.61 72.69Q256.15-420 213.08-420m0-60q17.98 0 30.14-12.16 12.17-12.17 12.17-30.15t-12.17-30.14q-12.16-12.17-30.14-12.17t-30.15 12.17q-12.16 12.16-12.16 30.14t12.16 30.15Q195.1-480 213.08-480m217.69 0h358.46v-40q0-33-23.5-56.5t-56.5-23.5H430.77zm-217.69-42.31"/></svg>