<svg xmlns="http://www.w3.org/2000/svg" fill="currentColor" viewBox="0 -960 960 960"><path d="M247.31-236.16q-43.27 0-73.56-30.28-30.29-30.29-30.29-73.56H65v-340q0-24.75 17.63-42.37Q100.25-740 125-740h541.54L895-517.69V-340h-72.31q0 43.27-30.29 73.56-30.29 30.28-73.55 30.28-43.27 0-73.56-30.28Q615-296.73 615-340H351.15q0 43.07-30.28 73.46-30.29 30.38-73.56 30.38M585-548.46h189.23L638.08-680H585zm-230 0h170V-680H355zm-230 0h170V-680H125zM247.31-290q21 0 35.5-14.5t14.5-35.5-14.5-35.5-35.5-14.5-35.5 14.5-14.5 35.5 14.5 35.5 35.5 14.5m471.54 0q21 0 35.5-14.5t14.5-35.5-14.5-35.5-35.5-14.5-35.5 14.5-14.5 35.5 14.5 35.5 35.5 14.5M125-400h39.69q12.77-18 34.2-30.92 21.42-12.93 48.42-12.93t47.84 12.35Q316-419.15 329.92-400h306.31q12.77-18 34.19-30.92 21.43-12.93 48.43-12.93t47.84 12.35q20.85 12.35 34.77 31.5H835v-88.46H125zm710-88.46H125z"/></svg>