<svg xmlns="http://www.w3.org/2000/svg" fill="currentColor" viewBox="0 -960 960 960"><path d="M480-320q66.92 0 113.46-46.54T640-480t-46.54-113.46T480-640t-113.46 46.54T320-480t46.54 113.46T480-320m0-120q-17 0-28.5-11.5T440-480t11.5-28.5T480-520t28.5 11.5T520-480t-11.5 28.5T480-440m.07 340q-78.84 0-148.21-29.92t-120.68-81.21-81.25-120.63Q100-401.1 100-479.93q0-78.84 29.92-148.21t81.21-120.68 120.63-81.25Q401.1-860 479.93-860q78.84 0 148.21 29.92t120.68 81.21 81.25 120.63Q860-558.9 860-480.07q0 78.84-29.92 148.21t-81.21 120.68-120.63 81.25Q558.9-100 480.07-100m-.07-60q134 0 227-93t93-227-93-227-227-93-227 93-93 227 93 227 227 93m0-320"/></svg>