<svg xmlns="http://www.w3.org/2000/svg" fill="currentColor" viewBox="0 -960 960 960"><path d="M480-371.54q13.92 0 23.11-9.19 9.2-9.19 9.2-23.12 0-13.92-9.2-23.11-9.19-9.19-23.11-9.19t-23.11 9.19q-9.2 9.19-9.2 23.11 0 13.93 9.2 23.12 9.19 9.19 23.11 9.19m-30-139.23h60v-241.54h-60zM100-118.46v-669.23Q100-818 121-839t51.31-21h615.38Q818-860 839-839t21 51.31v455.38Q860-302 839-281t-51.31 21H241.54zM216-320h571.69q4.62 0 8.46-3.85 3.85-3.84 3.85-8.46v-455.38q0-4.62-3.85-8.46-3.84-3.85-8.46-3.85H172.31q-4.62 0-8.46 3.85-3.85 3.84-3.85 8.46v523.08zm-56 0v-480z"/></svg>