<svg xmlns="http://www.w3.org/2000/svg" fill="currentColor" viewBox="0 -960 960 960"><path d="M240-175.39q-26.65 0-45.63-18.98T175.39-240t18.98-45.63T240-304.61t45.63 18.98T304.61-240t-18.98 45.63T240-175.39m0-240q-26.65 0-45.63-18.98T175.39-480t18.98-45.63T240-544.61t45.63 18.98T304.61-480t-18.98 45.63T240-415.39m0-240q-26.65 0-45.63-18.98T175.39-720t18.98-45.63T240-784.61t45.63 18.98T304.61-720t-18.98 45.63T240-655.39m240 0q-26.65 0-45.63-18.98T415.39-720t18.98-45.63T480-784.61t45.63 18.98T544.61-720t-18.98 45.63T480-655.39m240 0q-26.65 0-45.63-18.98T655.39-720t18.98-45.63T720-784.61t45.63 18.98T784.61-720t-18.98 45.63T720-655.39m-240 240q-26.65 0-45.63-18.98T415.39-480t18.98-45.63T480-544.61t45.63 18.98T544.61-480t-18.98 45.63T480-415.39m44.62 240v-105.69l217.15-216.15q7.46-7.46 16.11-10.5t17.3-3.04q9.43 0 18.25 3.54t16.03 10.62l37 37.38q6.46 7.46 10 16.15 3.54 8.7 3.54 17.39T856.77-408t-10.31 16.46L630.31-175.39zm287.69-250.3-37-37.39zm-240 202.61h38l129.84-130.46-18.38-19-18.62-18.77-130.84 130.23zm149.46-149.46-18.62-18.77 37 37.77z"/></svg>