<svg xmlns="http://www.w3.org/2000/svg" fill="currentColor" viewBox="0 -960 960 960"><path d="M480-290q13.73 0 23.02-9.29t9.29-23.02-9.29-23.02q-9.29-9.28-23.02-9.28t-23.02 9.28q-9.29 9.29-9.29 23.02t9.29 23.02T480-290m-30-139.23h60v-241.54h-60zM212.31-140q-29.83 0-51.07-21.24T140-212.31v-535.38q0-29.83 21.24-51.07T212.31-820h178q3.77-33.31 29.08-56.65 25.3-23.35 60.8-23.35T541-876.65q25.31 23.34 28.69 56.65h178q29.83 0 51.07 21.24T820-747.69v535.38q0 29.83-21.24 51.07T747.69-140zm0-60h535.38q4.62 0 8.46-3.85 3.85-3.84 3.85-8.46v-535.38q0-4.62-3.85-8.46-3.84-3.85-8.46-3.85H212.31q-4.62 0-8.46 3.85-3.85 3.84-3.85 8.46v535.38q0 4.62 3.85 8.46 3.84 3.85 8.46 3.85M480-786.15q13 0 21.5-8.5t8.5-21.5-8.5-21.5-21.5-8.5-21.5 8.5-8.5 21.5 8.5 21.5 21.5 8.5M200-200v-560z"/></svg>