<svg xmlns="http://www.w3.org/2000/svg" fill="currentColor" viewBox="0 -960 960 960"><path d="M212.31-140Q182-140 161-161t-21-51.31v-535.38Q140-778 161-799t51.31-21h178q4.77-33.69 29.77-56.84Q445.08-900 480-900t59.92 23.16q25 23.15 29.77 56.84h178Q778-820 799-799t21 51.31v535.38Q820-182 799-161t-51.31 21zM480-786.15q13 0 21.5-8.5t8.5-21.5-8.5-21.5-21.5-8.5-21.5 8.5-8.5 21.5 8.5 21.5 21.5 8.5M200-238.31q54-53 125.5-83.5t154.5-30.5 154.5 30.5 125.5 83.5v-509.38q0-4.62-3.85-8.46-3.84-3.85-8.46-3.85H212.31q-4.62 0-8.46 3.85-3.85 3.84-3.85 8.46zm280-200.15q54.15 0 92.08-37.92Q610-514.31 610-568.46t-37.92-92.08q-37.93-37.92-92.08-37.92t-92.08 37.92Q350-622.61 350-568.46t37.92 92.08q37.93 37.92 92.08 37.92M257.69-200h444.62v-8.46q-47.39-42.31-103.96-63.08-56.58-20.77-118.35-20.77-61 0-117.77 20.58t-104.54 62.5zM480-498.46q-28.85 0-49.42-20.58Q410-539.61 410-568.46t20.58-49.42q20.57-20.58 49.42-20.58t49.42 20.58Q550-597.31 550-568.46t-20.58 49.42q-20.57 20.58-49.42 20.58m0-.69"/></svg>