<svg xmlns="http://www.w3.org/2000/svg" fill="currentColor" viewBox="0 -960 960 960"><path d="M230-280v-300h60v300zm220 0v-300h60v300zM110.77-660v-56.92L480-897.69l369.23 180.77V-660zm142.46-60h453.54L480-830zM110.77-140v-60h463.15q1.23 16 3.47 30.5 2.23 14.5 6.3 29.5zM670-409.61V-580h60v140.39zM800-15.39q-64-15.84-105.85-73.34-41.84-57.5-41.84-127.73v-94.31L800-384.61l147.69 73.84v94.31q0 70.23-41.84 127.73Q864-31.23 800-15.39m-29-113.07L901.15-258l-33.53-33.54L771-196.15l-39-39L698.46-201zM253.23-720h453.54z"/></svg>