<svg xmlns="http://www.w3.org/2000/svg" fill="currentColor" viewBox="0 -960 960 960"><path d="M436.15-218.46h87.7v-172.31H580v-170.15q0-23.54-24.08-36.69-24.07-13.16-75.92-13.16t-75.92 13.16Q380-584.46 380-560.92v170.15h56.15zM479.88-100q-78.03 0-147.33-29.9-69.29-29.9-121.02-81.63T129.9-332.55Q100-401.85 100-479.88q0-78.98 29.96-147.97 29.96-69 81.58-120.61 51.61-51.62 121-81.58T479.88-860q78.89 0 147.93 29.96t120.65 81.58q51.62 51.61 81.58 120.61Q860-558.86 860-479.88q0 78.03-29.96 147.38t-81.58 120.96q-51.61 51.62-120.61 81.58Q558.86-100 479.88-100m.12-60q133 0 226.5-93.5T800-480t-93.5-226.5T480-800t-226.5 93.5T160-480t93.5 226.5T480-160m0-473.85q22.92 0 38.38-15.46 15.47-15.46 15.47-38.38t-15.47-38.39q-15.46-15.46-38.38-15.46t-38.38 15.46q-15.47 15.47-15.47 38.39t15.47 38.38q15.46 15.46 38.38 15.46M480-480"/></svg>