<svg xmlns="http://www.w3.org/2000/svg" fill="currentColor" viewBox="0 -960 960 960"><path d="M430-206.15q35.31 0 59.58-24.27T513.85-290v-154.62h114.61v-70.76h-150v159.23q-10.23-9.16-22.34-13.43-12.12-4.27-26.12-4.27-35.31 0-59.58 24.27T346.15-290t24.27 59.58T430-206.15M252.31-100Q222-100 201-121t-21-51.31v-615.38Q180-818 201-839t51.31-21H570l210 210v477.69Q780-142 759-121t-51.31 21zM540-620v-180H252.31q-4.62 0-8.46 3.85-3.85 3.84-3.85 8.46v615.38q0 4.62 3.85 8.46 3.84 3.85 8.46 3.85h455.38q4.62 0 8.46-3.85 3.85-3.84 3.85-8.46V-620zM240-800v180zv640z"/></svg>