<svg xmlns="http://www.w3.org/2000/svg" fill="currentColor" viewBox="0 -960 960 960"><path d="M492.31-100Q462-100 441-121t-21-51.31v-295.38Q420-498 441-519t51.31-21h295.38Q818-540 839-519t21 51.31v295.38Q860-142 839-121t-51.31 21zm0-60h295.38q4.62 0 8.46-3.85 3.85-3.84 3.85-8.46v-295.38q0-4.62-3.85-8.46-3.84-3.85-8.46-3.85H492.31q-4.62 0-8.46 3.85-3.85 3.84-3.85 8.46v295.38q0 4.62 3.85 8.46 3.84 3.85 8.46 3.85M260-255.39v-372.3Q260-658 281-679t51.31-21h372.3v60h-372.3q-4.62 0-8.46 3.85-3.85 3.84-3.85 8.46v372.3zm-160-160v-372.3Q100-818 121-839t51.31-21h372.3v60h-372.3q-4.62 0-8.46 3.85-3.85 3.84-3.85 8.46v372.3zM480-160v-320z"/></svg>