<svg xmlns="http://www.w3.org/2000/svg" fill="currentColor" viewBox="0 -960 960 960"><path d="M480-140q-69.97 0-131.91-26.77t-108.24-73.08q-46.31-46.3-73.08-108.24T140-480q0-41.31 9.23-79.73t26.31-72.42 41.08-63.19q24-29.2 53.53-52.66l258.16 258.15-42.16 42.16-216-216q-30.76 35.61-50.46 81.27Q200-536.77 200-480q0 116 82 198t198 82 198-82 82-198q0-105.85-69.46-185.27T510-757.54V-680h-60v-140h30q69.97 0 131.91 26.77t108.24 73.08q46.31 46.3 73.08 108.24T820-480t-26.77 131.91-73.08 108.24q-46.3 46.31-108.24 73.08T480-140M279.97-444.62q-15.05 0-25.2-10.18t-10.15-25.23 10.18-25.2 25.23-10.15 25.2 10.18 10.15 25.23-10.18 25.2-25.23 10.15m200 200q-15.05 0-25.2-10.18t-10.15-25.23 10.18-25.2 25.23-10.15 25.2 10.18 10.15 25.23-10.18 25.2-25.23 10.15m200-200q-15.05 0-25.2-10.18t-10.15-25.23 10.18-25.2 25.23-10.15 25.2 10.18 10.15 25.23-10.18 25.2-25.23 10.15"/></svg>