<svg xmlns="http://www.w3.org/2000/svg" fill="currentColor" viewBox="0 -960 960 960"><path d="M130-90v-378.46l62.62-183.46q6.84-22.54 25.98-35.31Q237.75-700 259.5-700q6.96 0 14.19 1.5t14.08 4.73L456.08-620H550v60H441.92l-116.07-50.46L270-441.54V-90zm240-150v-60h460v60zm393.94-100q-22.4 0-38.17-15.68T710-393.76q0-22.39 15.68-38.16t38.07-15.77q22.4 0 38.17 15.68 15.77 15.67 15.77 38.07t-15.68 38.17T763.94-340m-241.63 0q-29.83 0-51.07-21.24T450-412.31V-460h-80v-60h103.85q15.36 0 25.76 10.39Q510-499.21 510-483.85V-440h100v-80h60v107.69q0 29.83-21.24 51.07T597.69-340zM316.15-752.31q-30.46 0-52.15-21.69t-21.69-52.15T264-878.31Q285.69-900 316.15-900t52.16 21.69Q390-856.61 390-826.15T368.31-774q-21.7 21.69-52.16 21.69"/></svg>