<svg xmlns="http://www.w3.org/2000/svg" fill="currentColor" viewBox="0 -960 960 960"><path d="M260-180q-82.92 0-141.46-57.53T60-378.15q0-74.54 47.96-131.12t118.96-67.04Q246.15-666 317.12-723q70.96-57 162.88-57 108.64 0 184.32 75.68T740-520v20h12.31q63.23 4.92 105.46 50.85Q900-403.23 900-340q0 66.92-46.15 113.46Q807.69-180 740.77-180H522.31Q492-180 471-201t-21-51.31v-219.08l-74 72.77-42.15-41.76L480-586.54l146.15 146.16L584-398.62l-74-72.77v219.08q0 4.62 3.85 8.46 3.84 3.85 8.46 3.85H740q42 0 71-29t29-71-29-71-71-29h-60v-80q0-83-58.5-141.5T480-720t-141.5 58.5T280-520h-20.77q-56.85 0-98.04 41T120-380t41 99 99 41h100v60zm220-270"/></svg>