<svg xmlns="http://www.w3.org/2000/svg" fill="currentColor" viewBox="0 -960 960 960"><path d="M324.62-484.62v-70.76h70.76v70.76zm240 0v-70.76h70.76v70.76zM140-100v-291.54h40V-560q0-62.15 23.46-116.81 23.46-54.65 64.24-95.46 40.77-40.82 95.6-64.27Q418.14-860 480-860q62.15 0 116.81 23.46 54.65 23.46 95.46 64.27t64.27 95.46Q780-622.15 780-560v168.46h40V-100zm60-60h90v-171.54h-90zm150 0h100v-171.54H350zM240-391.54h210v-406.23q-85.61 9.38-147.81 75.88Q240-655.39 240-560zm270 0h210V-560q0-95.39-62.19-161.89-62.2-66.5-147.81-75.88zM510-160h100v-171.54H510zm160 0h90v-171.54h-90z"/></svg>