<svg xmlns="http://www.w3.org/2000/svg" fill="currentColor" viewBox="0 -960 960 960"><path d="M360.03-244.62q15.05 0 25.2-10.18t10.15-25.23-10.18-25.2-25.23-10.15-25.2 10.18-10.15 25.23 10.18 25.2 25.23 10.15m120 0q15.05 0 25.2-10.18t10.15-25.23-10.18-25.2-25.23-10.15-25.2 10.18-10.15 25.23 10.18 25.2 25.23 10.15m120 0q15.05 0 25.2-10.18t10.15-25.23-10.18-25.2-25.23-10.15-25.2 10.18-10.15 25.23 10.18 25.2 25.23 10.15m-240-120q15.05 0 25.2-10.18t10.15-25.23-10.18-25.2-25.23-10.15-25.2 10.18-10.15 25.23 10.18 25.2 25.23 10.15m120 0q15.05 0 25.2-10.18t10.15-25.23-10.18-25.2-25.23-10.15-25.2 10.18-10.15 25.23 10.18 25.2 25.23 10.15m120 0q15.05 0 25.2-10.18t10.15-25.23-10.18-25.2-25.23-10.15-25.2 10.18-10.15 25.23 10.18 25.2 25.23 10.15M292.31-492.31h375.38V-520q0-77.61-55.04-132.65T480-707.69t-132.65 55.04T292.31-520zM342-540q8-51 46.5-85.5T480-660t91.5 34.5T618-540zM172.31-100Q142-100 121-121t-21-51.31v-615.38Q100-818 121-839t51.31-21h615.38Q818-860 839-839t21 51.31v615.38Q860-142 839-121t-51.31 21zm0-60h615.38q4.62 0 8.46-3.85 3.85-3.84 3.85-8.46v-615.38q0-4.62-3.85-8.46-3.84-3.85-8.46-3.85H172.31q-4.62 0-8.46 3.85-3.85 3.84-3.85 8.46v615.38q0 4.62 3.85 8.46 3.84 3.85 8.46 3.85M160-160v-640z"/></svg>