<svg xmlns="http://www.w3.org/2000/svg" fill="currentColor" viewBox="0 -960 960 960"><path d="M657.54-186.62q0-12.81.69-25.17t7.06-23.57q9.09-15.87 23.4-26.93 14.31-11.05 24.46-25.79 2.77-3.69 6.77-21.3 0-15.76-12.13-25.96T680-345.54q-15.85 0-27.5 10.23t-16.65 26.08l-40.54-17.46q9.2-27.73 32.22-44.37 23.01-16.63 52.47-16.63 34.06 0 59.38 22.13 25.31 22.13 25.31 55.33 0 9.85-2.61 18.77-2.62 8.92-8.21 16.41-10.26 14.97-23.91 26.32t-22.19 27.18q-5.69 10.24-5.69 34.93zM680-92.31q-12.89 0-22.1-8.83-9.21-8.84-9.21-21.86 0-12.73 9.2-21.83 9.2-9.09 22.08-9.09t21.8 9.11q8.92 9.12 8.92 21.89t-8.83 21.69q-8.84 8.92-21.86 8.92M333.85-100q-15.37 0-25.76-10.4-10.4-10.39-10.4-25.76v-618.07q0-15.37 10.4-25.76 10.39-10.39 25.76-10.39h72.3V-860h147.7v69.62h72.38q15.38 0 25.73 10.39t10.35 25.76v278.08q-16 .77-30.81 3.5t-29.19 7.8v-265.92H357.69V-160h98.23q6.08 17.23 14.31 32.04 8.23 14.8 19.62 27.96z"/></svg>