<svg xmlns="http://www.w3.org/2000/svg" fill="currentColor" viewBox="0 -960 960 960"><path d="m480-64.62-271.08-203.3q-13.46-9.85-21.19-25.31T180-325.77v-461.92Q180-818 201-839t51.31-21h455.38Q738-860 759-839t21 51.31v461.92q0 17.08-7.73 32.54t-21.19 25.31zm0-75.38 235-176.15q2.31-1.93 3.65-4.43 1.35-2.5 1.35-5.57v-461.54q0-4.62-3.85-8.46-3.84-3.85-8.46-3.85H252.31q-4.62 0-8.46 3.85-3.85 3.84-3.85 8.46v461.54q0 3.07 1.35 5.57 1.34 2.5 3.65 4.43zm-42-233.85L650.15-586 608-629.38l-170 170-84.77-84.77L309.85-502zM480-800H240h480z"/></svg>