<svg xmlns="http://www.w3.org/2000/svg" fill="currentColor" viewBox="0 -960 960 960"><path d="M170-217.69q-30.31 0-51.31-21t-21-51.31v-380q0-30.31 21-51.31t51.31-21h620q30.31 0 51.31 21t21 51.31v380q0 30.31-21 51.31t-51.31 21zM546.15-510h256.16v-160q0-4.61-3.85-8.46t-8.46-3.85H546.15zM170-277.69h316.15v-404.62H170q-4.61 0-8.46 3.85t-3.85 8.46v380q0 4.61 3.85 8.46t8.46 3.85m150-151.54q-21.15 0-35.96-14.81T269.23-480t14.81-35.96T320-530.77t35.96 14.81T370.77-480t-14.81 35.96T320-429.23m226.15 151.54H790q4.61 0 8.46-3.85t3.85-8.46v-160H546.15z"/></svg>