<svg xmlns="http://www.w3.org/2000/svg" fill="currentColor" viewBox="0 -960 960 960"><path d="M4.62-210v-60h172.46q9.07-69.54 56.69-121.31t114.39-66.38l-59.54-263.08q-.77-4.23-4.43-6.73-3.65-2.5-7.11-2.5H134.62v-60h142.46q23.54 0 44.11 15.58 20.58 15.57 26.19 40.27l74.16 329.53H400q-68.31 0-116.85 48.54t-48.54 116.85V-210zM400-129.23q-45.77 0-77.88-32.12Q290-193.46 290-239.23t32.12-77.88q32.11-32.12 77.88-32.12t77.88 32.12Q510-285 510-239.23t-32.12 77.88q-32.11 32.12-77.88 32.12m0-60q20.85 0 35.42-14.58Q450-218.38 450-239.23t-14.58-35.42q-14.57-14.58-35.42-14.58t-35.42 14.58Q350-260.08 350-239.23t14.58 35.42q14.57 14.58 35.42 14.58m364.62-61.54q-70.85 0-123.04-44.12Q589.39-339 577.08-410H476.15l-13.38-60h114.31q4.23-25.31 16.96-53.96 12.73-28.66 35.96-46.81H440.92l-13.38-60h233.69l-54-147.69q-1.15-3.46-3.84-5.2-2.7-1.73-6.16-1.73h-94v-60h94q22.54 0 40.73 12.27T664-799.54L725.69-632h38.93q79.53 0 134.76 55.23T954.61-442q0 79.61-56.19 135.42t-133.8 55.81m0-59.23q55.23 0 92.61-38.08 37.39-38.07 37.39-91.92 0-55.23-37.39-92.62Q819.85-570 764.62-570q-5.47 0-9.31.19-3.85.19-8.54 1.35l40.77 108.31-56.77 21.07L692-547.39q-27.31 18.16-42.35 46.54-15.04 28.39-15.04 60.85 0 53.85 37.39 91.92Q709.38-310 764.62-310m0-130"/></svg>