<svg xmlns="http://www.w3.org/2000/svg" fill="currentColor" viewBox="0 -960 960 960"><path d="M316.15-100q-24.92 0-42.46-17.54-17.53-17.54-17.53-42.46v-40q0-43.54 20.11-81.42 20.12-37.89 55.42-63.35L304-526.15h-76.31q-30.3 0-51.3-21t-21-51.31v-149.23q0-29.92 21.19-51.12Q197.77-820 227.69-820H400v-35.38h160V-820h140.54l-72.23 475.23q35.3 25.46 55.42 63.35 20.11 37.88 20.11 81.42v40q0 24.92-17.53 42.46Q668.77-100 643.85-100zm-21.07-486.15L268.39-760h-40.7q-4.61 0-8.46 3.85-3.84 3.84-3.84 8.46v149.23q0 4.61 3.84 8.46 3.85 3.85 8.46 3.85zM480-204.62q15.08 0 25.23-10.15T515.38-240t-10.15-25.23T480-275.38t-25.23 10.15T444.62-240t10.15 25.23T480-204.62M387.23-380h185.54l57.85-380H329.38zm-71.08 220h327.7v-40q0-50-35-85t-85-35h-87.7q-50 0-85 35t-35 85zM480-240"/></svg>