<svg xmlns="http://www.w3.org/2000/svg" fill="currentColor" viewBox="0 -960 960 960"><path d="M140-140v-64.62h64.62V-140zm0-153.85v-64.61h64.62v64.61zM140-450v-60h680v60zm0-151.54v-64.61h64.62v64.61zm0-153.84V-820h64.62v64.62zM293.85-140v-64.62h64.61V-140zm0-615.38V-820h64.61v64.62zM447.69-140v-64.62h64.62V-140zm0-153.85v-64.61h64.62v64.61zm0-307.69v-64.61h64.62v64.61zm0-153.84V-820h64.62v64.62zM601.54-140v-64.62h64.61V-140zm0-615.38V-820h64.61v64.62zM755.38-140v-64.62H820V-140zm0-153.85v-64.61H820v64.61zm0-307.69v-64.61H820v64.61zm0-153.84V-820H820v64.62z"/></svg>