<svg xmlns="http://www.w3.org/2000/svg" fill="currentColor" viewBox="0 -960 960 960"><path d="M480-55.69 354.38-180H180v-174.38L55.69-480 180-605.62V-780h174.38L480-904.31 605.62-780H780v174.38L904.31-480 780-354.38V-180H605.62zm0-239.7q76.61 0 130.61-54t54-130.61-54-130.61-130.61-54-130.61 54-54 130.61 54 130.61 130.61 54m0-59.99q-51.92 0-88.27-36.35T355.38-480t36.35-88.27T480-604.62t88.27 36.35T604.62-480t-36.35 88.27T480-355.38M480-140l100-100h140v-140l100-100-100-100v-140H580L480-820 380-720H240v140L140-480l100 100v140h140zm0-340"/></svg>