<svg xmlns="http://www.w3.org/2000/svg" fill="currentColor" viewBox="0 -960 960 960"><path d="M576.24-140q-43.55 0-74.12-30.49-30.58-30.48-30.58-74.04 0-43.55 30.49-74.12 30.48-30.58 74.03-30.58t74.13 30.49q30.58 30.48 30.58 74.03 0 43.56-30.49 74.13Q619.8-140 576.24-140m-.09-60q18.54 0 31.58-13.04t13.04-31.58q0-18.53-13.04-31.57t-31.58-13.04-31.57 13.04q-13.04 13.04-13.04 31.57 0 18.54 13.04 31.58Q557.61-200 576.15-200M660-420q-83.92 0-141.96-58.04T460-620t58.04-141.96T660-820t141.96 58.04T860-620t-58.04 141.96T660-420m0-60q59 0 99.5-40.5T800-620t-40.5-99.5T660-760t-99.5 40.5T520-620t40.5 99.5T660-480M284.62-255.39q-59.66 0-102.14-42.48T140-400t42.48-102.13 102.14-42.48q59.65 0 102.13 42.48T429.23-400t-42.48 102.13-102.13 42.48m.01-59.99q34.91 0 59.76-24.86 24.84-24.86 24.84-59.77t-24.86-59.76-59.77-24.85-59.75 24.86Q200-434.9 200-399.99t24.86 59.76 59.77 24.85m-.01-84.62"/></svg>