<svg xmlns="http://www.w3.org/2000/svg" fill="currentColor" viewBox="0 -960 960 960"><path d="M55.39-220v-520h59.99v520zM220-220v-520h60v520zm236.92 0q-30.3 0-51.3-21t-21-51.31v-375.38q0-30.31 21-51.31t51.3-21h375.39q30.3 0 51.3 21t21 51.31v375.38q0 30.31-21 51.31t-51.3 21zm0-60h375.39q4.61 0 8.46-3.85 3.85-3.84 3.85-8.46v-375.38q0-4.62-3.85-8.46-3.85-3.85-8.46-3.85H456.92q-4.61 0-8.46 3.85-3.84 3.84-3.84 8.46v375.38q0 4.62 3.84 8.46 3.85 3.85 8.46 3.85m36.93-84.62h301.53l-94.76-127.69-76 100-56-74zM444.62-280v-400z"/></svg>