<svg xmlns="http://www.w3.org/2000/svg" fill="currentColor" viewBox="0 -960 960 960"><path d="M200-130q-12.75 0-21.37-8.63Q170-147.25 170-160v-42.31h-40v-150q0-12.75 8.63-21.37 8.62-8.63 21.37-8.63h50V-680q0-62.15 43.92-106.08Q297.85-830 360-830t106.08 43.92Q510-742.15 510-680v400q0 37.62 26.19 63.81T600-190t63.81-26.19T690-280v-297.69h-50q-12.75 0-21.37-8.63-8.63-8.62-8.63-21.37v-150h40V-800q0-12.75 8.63-21.37Q667.25-830 680-830h80q12.75 0 21.37 8.63Q790-812.75 790-800v42.31h40v150q0 12.75-8.63 21.37-8.62 8.63-21.37 8.63h-50V-280q0 62.15-43.92 106.08Q662.15-130 600-130t-106.08-43.92Q450-217.85 450-280v-400q0-37.62-26.19-63.81T360-770t-63.81 26.19T270-680v297.69h50q12.75 0 21.37 8.63 8.63 8.62 8.63 21.37v150h-40V-160q0 12.75-8.63 21.37Q292.75-130 280-130z"/></svg>