<svg xmlns="http://www.w3.org/2000/svg" fill="currentColor" viewBox="0 -960 960 960"><path d="M172.31-180Q142-180 121-201t-21-51.31v-455.38Q100-738 121-759t51.31-21h615.38Q818-780 839-759t21 51.31v455.38Q860-222 839-201t-51.31 21zM160-510h173.46v-210H172.31q-5.39 0-8.85 3.46t-3.46 8.85zm233.46 0h173.08v-210H393.46zm233.08 0H800v-197.69q0-5.39-3.46-8.85t-8.85-3.46H626.54zM333.46-240v-210H160v197.69q0 5.39 3.46 8.85t8.85 3.46zm60 0h173.08v-210H393.46zm233.08 0h161.15q5.39 0 8.85-3.46t3.46-8.85V-450H626.54z"/></svg>