<svg xmlns="http://www.w3.org/2000/svg" fill="currentColor" viewBox="0 -960 960 960"><path d="M172.31-100q-29.83 0-51.07-21.24T100-172.31v-575.38q0-29.83 21.24-51.07T172.31-820H220v-43.08q0-15.69 10.62-26.3Q241.23-900 256.92-900h126.16q15.69 0 26.3 10.62Q420-878.77 420-863.08V-820h47.69q29.83 0 51.07 21.24T540-747.69v7.69h320v560H539.23v7.69q0 29.83-21.01 51.07Q497.2-100 467.69-100zm0-60h295.38q5.39 0 8.85-3.46t3.46-8.85V-240h320v-440H480v-67.69q0-5.39-3.46-8.85t-8.85-3.46H172.31q-5.39 0-8.85 3.46t-3.46 8.85v575.38q0 5.39 3.46 8.85t8.85 3.46m196.15-123.85h70.77v-70.76h-70.77zm0-281.54h70.77v-70.76h-70.77zm158.46 281.54h70.77v-70.76h-70.77zm0-281.54h70.77v-70.76h-70.77zm158.47 281.54h70.76v-70.76h-70.76zm0-281.54h70.76v-70.76h-70.76zM320-460"/></svg>