<svg xmlns="http://www.w3.org/2000/svg" fill="currentColor" viewBox="0 -960 960 960"><path d="M332.31-300q-29.92 0-51.12-21.19Q260-342.39 260-372.31v-215.38q0-29.92 21.19-51.12Q302.39-660 332.31-660h35.38l40-40h144.62l40 40h35.38q29.92 0 51.12 21.19Q700-617.61 700-587.69v215.38q0 29.92-21.19 51.12Q657.61-300 627.69-300zm0-60h295.38q5.39 0 8.85-3.46t3.46-8.85v-215.38q0-5.39-3.46-8.85t-8.85-3.46H332.31q-5.39 0-8.85 3.46t-3.46 8.85v215.38q0 5.39 3.46 8.85t8.85 3.46M480-411.54q28.38 0 48.42-20.04T548.46-480t-20.04-48.42T480-548.46t-48.42 20.04T411.54-480t20.04 48.42T480-411.54M369.69-926.15q27.08-7.93 54.46-10.89 27.39-2.96 55.08-2.96 89.77 0 169.81 31.96t142.04 88.58q62 56.61 101.46 133.46T940-520h-60q-7.38-73.92-39.73-137.77t-82.96-111.54Q706.69-817 641.19-846.04t-139.81-32.73l69.7 69.69-42.16 42.16zm220.62 892.3q-27.08 7.93-54.46 10.89Q508.46-20 480.77-20 391-20 310.96-51.96t-142.04-88.58q-62-56.61-101.46-133.46T20-440h60q8 73.92 40.04 137.77t82.65 111.54q50.62 47.69 116.12 76.73t139.81 32.73l-69.7-69.69 42.16-42.16zM480-480"/></svg>