<svg xmlns="http://www.w3.org/2000/svg" fill="currentColor" viewBox="0 -960 960 960"><path d="M718.46-450v-60h144.62v60zm45.69 269.23-115.69-86.77 36.46-47.84 115.69 86.76zm-80.77-465.38L646.92-694l115.69-86.77 36.47 47.85zM210-220.77v-156.15h-40.77q-29.92 0-51.11-21.2-21.2-21.19-21.2-51.11v-61.54q0-29.92 21.2-51.11 21.19-21.2 51.11-21.2h154.62L503.08-690v420L323.85-376.92H270v156.15zm233.08-155.84v-206.78l-102.62 60.31H169.23q-4.61 0-8.46 3.85t-3.85 8.46v61.54q0 4.61 3.85 8.46t8.46 3.85h171.23zm115.38 21.38v-249.54q23.54 21.31 37.92 53.69 14.39 32.39 14.39 71.08t-14.39 71.08q-14.38 32.38-37.92 53.69M300-480"/></svg>