<svg xmlns="http://www.w3.org/2000/svg" fill="currentColor" viewBox="0 -960 960 960"><path d="M160-288.46v76.15q0 4.62 3.85 8.46 3.84 3.85 8.46 3.85h615.38q4.62 0 8.46-3.85 3.85-3.84 3.85-8.46v-76.15zm12.31-410.77H283q-5-9-7.46-19t-2.46-21q0-41.92 29.04-70.96t70.96-29.04q25.15 0 46.53 13.07t37.31 32.47l22.31 29.85 22.31-29.85q15.31-20.15 37.06-32.85 21.76-12.69 46.87-12.69 41.84 0 70.87 29.04 29.04 29.04 29.04 70.96 0 11-2.27 21t-7.65 19h112.23q30.31 0 51.31 21t21 51.31v414.61Q860-182 839-161t-51.31 21H172.31Q142-140 121-161t-21-51.31v-414.61q0-30.31 21-51.31t51.31-21M160-391.54h640v-235.38q0-4.62-3.85-8.46-3.84-3.85-8.46-3.85H569.07l81.7 111.69-47.85 34.46-123.69-167.84-123.69 167.84-47.85-34.46 80.47-111.69H172.31q-4.62 0-8.46 3.85-3.85 3.84-3.85 8.46zm213.08-307.69q17 0 28.5-11.5t11.5-28.5-11.5-28.5-28.5-11.5-28.5 11.5-11.5 28.5 11.5 28.5 28.5 11.5m212.3 0q17 0 28.5-11.5t11.5-28.5-11.5-28.5-28.5-11.5-28.5 11.5-11.5 28.5 11.5 28.5 28.5 11.5"/></svg>