<svg xmlns="http://www.w3.org/2000/svg" fill="currentColor" viewBox="0 -960 960 960"><path d="M160-448.46v76.15q0 4.62 3.85 8.46 3.84 3.85 8.46 3.85h615.38q4.62 0 8.46-3.85 3.85-3.84 3.85-8.46v-76.15zM172.31-860h615.38q29.92 0 51.12 21.19Q860-817.61 860-787.69v415.38q0 29.92-21.19 51.12Q817.61-300 787.69-300H618.46v185.38L480-183.85l-138.46 69.23V-300H172.31q-29.92 0-51.12-21.19Q100-342.39 100-372.31v-415.38q0-29.92 21.19-51.12Q142.39-860 172.31-860M160-551.54h640v-236.15q0-4.62-3.85-8.46-3.84-3.85-8.46-3.85H172.31q-4.62 0-8.46 3.85-3.85 3.84-3.85 8.46zm0 179.23V-800h12.31q-4.62 0-8.46 3.85-3.85 3.84-3.85 8.46zq0 4.62 3.85 8.46 3.84 3.85 8.46 3.85H160z"/></svg>