<svg xmlns="http://www.w3.org/2000/svg" fill="currentColor" viewBox="0 -960 960 960"><path d="M160-288.46v76.15q0 4.62 3.85 8.46 3.84 3.85 8.46 3.85h615.38q4.62 0 8.46-3.85 3.85-3.84 3.85-8.46v-76.15zM300-700v-72.31q0-30.3 21-51.3t51.31-21h215.38q30.31 0 51.31 21t21 51.3V-700h127.69Q818-700 839-679t21 51.31v415.38Q860-182 839-161t-51.31 21H172.31Q142-140 121-161t-21-51.31v-415.38Q100-658 121-679t51.31-21zM160-391.54h640v-236.15q0-4.62-3.85-8.46-3.84-3.85-8.46-3.85H660v72.31h-60V-640H360v72.31h-60V-640H172.31q-4.62 0-8.46 3.85-3.85 3.84-3.85 8.46zM360-700h240v-72.31q0-4.61-3.85-8.46-3.84-3.84-8.46-3.84H372.31q-4.62 0-8.46 3.84-3.85 3.85-3.85 8.46zM160-212.31V-640v72.31V-640v72.31V-640h12.31q-4.62 0-8.46 3.85-3.85 3.84-3.85 8.46zq0 4.62 3.85 8.46 3.84 3.85 8.46 3.85H160z"/></svg>