<svg xmlns="http://www.w3.org/2000/svg" fill="currentColor" viewBox="0 -960 960 960"><path d="M311.54-263.08q20.19 0 34.33-14.13Q360-291.35 360-311.54t-14.13-34.33Q331.73-360 311.54-360t-34.33 14.13q-14.13 14.14-14.13 34.33t14.13 34.33q14.14 14.13 34.33 14.13m0-336.92q20.19 0 34.33-14.13Q360-628.27 360-648.46t-14.13-34.33q-14.14-14.13-34.33-14.13t-34.33 14.13q-14.13 14.14-14.13 34.33t14.13 34.33Q291.35-600 311.54-600M480-431.54q20.19 0 34.33-14.13 14.13-14.14 14.13-34.33t-14.13-34.33q-14.14-14.13-34.33-14.13t-34.33 14.13q-14.13 14.14-14.13 34.33t14.13 34.33q14.14 14.13 34.33 14.13m168.46 168.46q20.19 0 34.33-14.13 14.13-14.14 14.13-34.33t-14.13-34.33Q668.65-360 648.46-360t-34.33 14.13Q600-331.73 600-311.54t14.13 34.33q14.14 14.13 34.33 14.13m0-336.92q20.19 0 34.33-14.13 14.13-14.14 14.13-34.33t-14.13-34.33q-14.14-14.13-34.33-14.13t-34.33 14.13Q600-668.65 600-648.46t14.13 34.33Q628.27-600 648.46-600M212.31-140Q182-140 161-161t-21-51.31v-535.38Q140-778 161-799t51.31-21h535.38Q778-820 799-799t21 51.31v535.38Q820-182 799-161t-51.31 21zm0-60h535.38q4.62 0 8.46-3.85 3.85-3.84 3.85-8.46v-535.38q0-4.62-3.85-8.46-3.84-3.85-8.46-3.85H212.31q-4.62 0-8.46 3.85-3.85 3.84-3.85 8.46v535.38q0 4.62 3.85 8.46 3.84 3.85 8.46 3.85M200-760v560z"/></svg>