<svg xmlns="http://www.w3.org/2000/svg" fill="currentColor" viewBox="0 -960 960 960"><path d="m111.93-113.08 175.38-490.76 315.38 315.38zM210.85-212l282-100-182-182zm348.46-239.85-33.54-33.53 219.38-219.39q30.08-30.07 72.77-30.07t72.77 30.07l19.38 19.39-32.76 33.53-19.39-19.38q-16.31-16.31-39.61-16.31-23.31 0-39.62 16.31zM413.15-598l-33.53-33.54 24-24q17.84-17.84 17.84-43.23 0-25.38-17.84-43.23l-25.24-25.23 33.54-33.54 25.23 25.23q32 32 32 76.77t-32 76.77zm73.08 73.08-33.54-33.54 139.39-139.38q16.3-16.31 16.3-39.62t-16.3-39.62l-59.39-59.38L566.23-870l59.38 59.39q30.47 30.46 30.47 73.15t-30.47 73.15zm146.15 146.15-33.54-33.54 47.85-47.84q32.38-32.39 78.15-32.39T803-460.15l47.84 47.84-33.54 33.54-47.84-47.84q-18.23-18.24-44.62-18.24-26.38 0-44.61 18.24zM210.85-212"/></svg>