<svg xmlns="http://www.w3.org/2000/svg" fill="currentColor" viewBox="0 -960 960 960"><path d="M288.47-100 860-673.53V-100zM720-160h80v-368l-80 80zM442-439.85q-21.31 0-36.81-15.5t-15.5-36.8q0-21.31 15.5-36.81t36.81-15.5 36.81 15.5 15.5 36.81q0 21.3-15.5 36.8T442-439.85M314-568l-39.69-39.69q36.08-33.77 79.58-50.42 43.5-16.66 88.88-16.66t88.31 16.27q42.92 16.27 78.61 50.04L570-568q-27-25.85-60.19-38.77t-67.04-12.92-67.42 12.92Q341.77-593.85 314-568M212-672l-39.69-38.46q57.08-55.54 127-82.54t143.46-27 143.69 27 127.23 82.54L674-672q-48.77-45.69-109.08-68.69-60.3-23-122.15-23t-121.92 23Q260.77-717.69 212-672"/></svg>