<svg xmlns="http://www.w3.org/2000/svg" fill="currentColor" viewBox="0 -960 960 960"><path d="M207.54-287.54q-56.23-58.08-84.19-128T95.39-560t27.96-144.46 84.19-128l37.23 37.23Q196-746.08 172-684.54T148-560t24 124.54 72.77 110.69zM302-382q-36.69-37.46-55.65-83.77T227.39-560t18.96-94.23T302-738l37.23 37.23q-29.61 27.77-44.42 64.96T280-560q0 36.77 14.62 73.77 14.61 37 44.61 67zm-.46 268.92 125.77-377.31q-16.77-12.07-26.27-30.49-9.5-18.43-9.5-39.12 0-37 25.73-62.73T480-648.46t62.73 25.73T568.46-560q0 20.69-9.11 38.73-9.12 18.04-26.66 30.88l125.77 377.31h-60.77l-26-80H388.92l-26.23 80zm107.23-140h142.46L480-466.93zM658-382l-37.23-37.23q29.61-27.77 44.42-64.96T680-560q0-35.62-14.81-73t-44.42-67.77L658-738q36.69 37.46 54.73 84.15 18.04 46.7 19.88 94.23 0 47.93-18.76 94.04Q695.08-419.46 658-382m94.46 94.46-37.23-37.23Q764-373.92 788-435.46T812-560t-24-124.54-72.77-110.69l37.23-37.23q55.85 58.08 84 128T864.61-560t-26.84 144.46q-26.85 69.92-85.31 128"/></svg>