<svg xmlns="http://www.w3.org/2000/svg" fill="currentColor" viewBox="0 -960 960 960"><path d="M482.38-208.46 587.54-313 482.38-417.54 448.85-384 498-334.85q-37.23.62-68.54-9.96-31.31-10.57-52.69-31.96-21.16-21.15-32.04-48.31-10.88-27.15-10.88-54.3 0-17 4.11-34 4.12-17 11.73-32.62l-35.54-34q-14.3 23.08-21.15 48.42T286.15-480q0 36.83 14.43 72.68 14.42 35.86 42.46 64.09t68.08 42.15q40.03 13.93 82.27 14.54L448.85-242zM646.23-380q14.31-23.08 21.15-48.42 6.85-25.34 6.85-51.58 0-36.76-14.12-73.05-14.11-36.28-42.34-64.33-27.85-28.23-68.27-41.85T467-672.85L511.54-718 478-751.54 372.85-647 478-542.46 511.54-576l-49.77-49.77q36.61 0 68.85 10.88 32.23 10.89 53.11 31.8 20.88 20.92 31.85 48.1 10.96 27.19 10.96 54.37 0 17-4.12 34-4.11 17-11.73 32.62zM480.07-100q-78.84 0-148.21-29.92t-120.68-81.21-81.25-120.63Q100-401.1 100-479.93q0-78.84 29.92-148.21t81.21-120.68 120.63-81.25Q401.1-860 479.93-860q78.84 0 148.21 29.92t120.68 81.21 81.25 120.63Q860-558.9 860-480.07q0 78.84-29.92 148.21t-81.21 120.68-120.63 81.25Q558.9-100 480.07-100m-.07-60q134 0 227-93t93-227-93-227-227-93-227 93-93 227 93 227 227 93m0-320"/></svg>