<svg xmlns="http://www.w3.org/2000/svg" fill="currentColor" viewBox="0 -960 960 960"><path d="M130-180q-12.75 0-21.37-8.58-8.63-8.58-8.63-21.27 0-7.46 3.04-13.88t9.12-10.19L450-485.38v-70.77q0-12.75 8.96-21.38 8.96-8.62 21.66-8.62 27.69 0 47.19-19.93 19.5-19.94 19.5-47.62t-19.52-46.99T480.38-720q-27.69 0-47.5 19.41-19.8 19.4-19.8 47.13h-60q0-52.62 37.15-89.58Q427.39-780 480.38-780q53 0 89.97 36.66 36.96 36.65 36.96 89.65 0 44.69-27.12 78.81-27.11 34.11-70.19 44.65v44.85l338.23 251.46q6.08 3.74 9.11 10.11 3.04 6.36 3.04 13.85 0 12.73-8.62 21.34-8.63 8.62-21.38 8.62zm90.77-60h518.85L480-432.69z"/></svg>