<svg xmlns="http://www.w3.org/2000/svg" fill="currentColor" viewBox="0 -960 960 960"><path d="M577.77-496.15q-18.39 0-31.15-12.7-12.77-12.69-12.77-31.07 0-18.39 12.69-31.16t31.08-12.77q18.38 0 31.15 12.7 12.77 12.69 12.77 31.07 0 18.39-12.7 31.16-12.69 12.77-31.07 12.77m-195.39 0q-18.38 0-31.15-12.7-12.77-12.69-12.77-31.07 0-18.39 12.7-31.16 12.69-12.77 31.07-12.77 18.39 0 31.15 12.7 12.77 12.69 12.77 31.07 0 18.39-12.69 31.16t-31.08 12.77M480-295.39q-54.23 0-98.69-28.57-44.46-28.58-68.23-76.04h333.84q-23.77 47.46-68.23 76.04-44.46 28.57-98.69 28.57m.02 155.39q-70.79 0-132.63-26.77-61.85-26.77-107.85-72.77t-72.77-107.82Q140-409.19 140-479.98t26.77-132.63q26.77-61.85 72.77-107.85t107.82-72.77Q409.19-820 479.98-820t132.63 26.77q61.85 26.77 107.85 72.77t72.77 107.82Q820-550.81 820-480.02t-26.77 132.63q-26.77 61.85-72.77 107.85t-107.82 72.77Q550.81-140 480.02-140m-.02-60q116 0 198-82t82-198-82-198-198-82q-8.44 0-16.87.38-8.44.39-16.36 2.39-4.46 6.77-5.69 13T439.85-730q0 23.31 16.42 39.73t39.85 16.42q10.03 0 16.96-3 6.92-3 14.92-3 9.36 0 15.6 7.18 6.25 7.17 6.25 16.73 0 18.32-18.43 24.05-18.42 5.74-35.42 5.74-42.69 0-73.27-30.58T392.15-730v-7.08q0-3.32 1.39-8.84-84.92 27.69-139.23 99.65T200-480q0 116 82 198t198 82m0-280"/></svg>