<svg xmlns="http://www.w3.org/2000/svg" fill="currentColor" viewBox="0 -960 960 960"><path d="m268.08-216.92 290.3 82.15 238.77-74q-3.07-13.61-12.77-20.88-9.69-7.27-21.69-7.27H566.85q-26.23 0-44.54-2t-37.62-8.77l-90.3-29.85 17.76-58.77 81 28.16q18.16 6.15 41.93 8.38t67.61 2.85q0-14.85-6.69-25.62t-17.62-14.54l-232.07-85.23q-1.16-.38-2.12-.57-.96-.2-2.11-.2h-74zM68.08-100v-383.07h273.61q6.23 0 12.66 1.3 6.42 1.31 12.03 3.31l233.08 85.85q27.23 10.07 45.23 35.65t18 60.04h100q43.08 0 70.19 27.81Q860-241.31 860-196.92v32.3L560.38-71.54l-292.3-83.38V-100zm60-60h80v-263.08h-80zm469.23-313.61-60-21.93v-17.69q-1.23-53-38.81-90.27t-91.19-37.27q-42.23 0-73.77 23.23t-45.62 59.08h-63.69q14.31-52.92 53.81-91.46t99.27-48.39V-800h-60v-60h210q29 0 55.15 8.69 26.15 8.7 48.08 23.85l-43.15 43.15q-13.62-7.23-28.54-11.46-14.93-4.23-31.54-4.23h-90v101.69q71.31 11.7 115.65 65.04 44.35 53.35 44.35 122.5zM750-567.69q-29.15 0-49.58-20.43Q680-608.54 680-637.69q0-21.08 15.27-52.39Q710.54-721.38 750-780q39.46 58.62 54.73 89.73Q820-659.15 820-637.69q0 29.15-20.42 49.57-20.43 20.43-49.58 20.43"/></svg>