<svg xmlns="http://www.w3.org/2000/svg" fill="currentColor" viewBox="0 -960 960 960"><path d="m366.77-593.85 47.69 47.7H307.69q-2.3 0-4.23 1.92-1.92 1.92-1.92 4.23v120q0 2.31 1.92 4.23 1.93 1.92 4.23 1.92h80q2.31 0 4.23-1.92 1.93-1.92 1.93-4.23v-15.38h47.69v27.69q0 17.38-12.08 29.46T400-366.15H295.39q-17.39 0-29.47-12.08-12.07-12.08-12.07-29.46v-144.62q0-17.38 12.07-29.46 12.08-12.08 29.47-12.08zM293.85-780h453.84Q778-780 799-759t21 51.31v453.84l-60-60v-393.84q0-5.39-3.46-8.85t-8.85-3.46H353.85zm412.3 344.62v27.69q0 8.23-2.92 15.77-2.92 7.53-8.77 12.53l-39.08-39.07h3.08v-16.92zm-47.69-88.47V-540q0-2.31-1.92-4.23-1.93-1.92-4.23-1.92h-80q-2.31 0-4.23 1.92-1.93 1.92-1.93 4.23v32.31l-46.92-46.93v-3.07q1.92-15.46 13.42-25.81T560-593.85h104.61q17.39 0 29.47 12.08 12.07 12.08 12.07 29.46v28.46zM185.69-774.92 240.62-720h-28.31q-4.62 0-8.46 3.85-3.85 3.84-3.85 8.46v455.38q0 4.62 3.85 8.46 3.84 3.85 8.46 3.85h422.77L51.23-823.85 94-866.61 874.46-86.15l-42.77 42.76L695.08-180H212.31Q182-180 161-201t-21-51.31v-455.38q0-23.46 12.73-41.62 12.73-18.15 32.96-25.61"/></svg>