<svg xmlns="http://www.w3.org/2000/svg" fill="currentColor" viewBox="0 -960 960 960"><path d="M805.08-70.62 695.23-180H260q-83.92 0-141.96-58.04T60-380q0-75.08 48.27-130.46 48.27-55.39 118.65-65.85 1.85-11.46 7.16-26.27 5.31-14.8 11.77-27.27L85.23-790.46l42.16-42.15 719.84 719.84zM260-240h374.46L291.69-582.77q-5.46 13.69-8.57 29.85Q280-536.77 280-520h-20q-58 0-99 41t-41 99 41 99 99 41m590.15 16.15L806.77-266q16.23-14.38 24.73-32.77Q840-317.15 840-340q0-42-29-71t-71-29h-60v-80q0-83-58.5-141.5T480-720q-27 0-52 6.5T380-693l-43.38-43.77q35-22.46 69.5-32.84Q440.62-780 480-780q108.64 0 184.32 75.68T740-520v20h12.31q63.23 4.92 105.46 50.85Q900-403.23 900-340q0 33.23-12.5 62.88-12.5 29.66-37.35 53.27M593.38-479"/></svg>