<svg xmlns="http://www.w3.org/2000/svg" fill="currentColor" viewBox="0 -960 960 960"><path d="M414-293.85 626.15-506l-43.38-43.38L413.38-380l-84.76-84.77L285.85-422zM260-180q-82.92 0-141.46-57.62Q60-295.23 60-378.15q0-73.39 47-130.54 47-57.16 119.92-67.62Q246.15-666 317.12-723q70.96-57 162.88-57 108.54 0 184.27 75.73T740-520v20h12.31q63.23 4.92 105.46 50.85Q900-403.23 900-340q0 66.92-46.54 113.46T740-180zm0-60h480q42 0 71-29t29-71-29-71-71-29h-60v-80q0-83-58.5-141.5T480-720t-141.5 58.5T280-520h-20q-58 0-99 41t-41 99 41 99 99 41m220-240"/></svg>