<svg xmlns="http://www.w3.org/2000/svg" fill="currentColor" viewBox="0 -960 960 960"><path d="M260-180q-82.92 0-141.46-57.62Q60-295.23 60-378.15q0-73.39 47-130.54 47-57.16 119.92-67.62 13.54-73.15 79.81-136.8Q373-776.77 450-776.77q24.54 0 42.27 17.73T510-716.77v266.62l73.23-72L625.38-480 480-334.62 334.62-480l42.15-42.15 73.23 72v-266.62q-75.61 8.62-122.81 69.46Q280-586.46 280-520h-20q-58 0-99 41t-41 99 41 99 99 41h480q42 0 71-29t29-71-29-71-71-29h-60v-80q0-48.77-22-90.27T600-680v-70.31q65.15 33.08 102.58 95.23Q740-592.92 740-520v20h12.31q63.23 4.92 105.46 50.85Q900-403.23 900-340q0 66.92-46.54 113.46T740-180zm220-328.38"/></svg>