<svg xmlns="http://www.w3.org/2000/svg" fill="currentColor" viewBox="0 -960 960 960"><path d="M172.31-260Q142-260 121-281t-21-51.31v-435.07q0-1.93.19-3.47.2-1.54.58-3.46l-49.54-49.54L94-866.61 874.46-86.15l-42.77 42.76L615.08-260zM860-213.85 753.85-320H800v-467.69q0-5.39-3.46-8.85t-8.85-3.46H273.85l-60-60h573.84Q818-860 839-839t21 51.31zM172.31-320h382.77l-90-90H250v-60h155.08l-60-60H250v-60h35.08L160-715.08v382.77q0 5.39 3.46 8.85t8.85 3.46m491.54-90-60-60H710v60zm-120-120-60-60H710v60zm-120-120-60-60H710v60zm99.23 99.23"/></svg>