<svg xmlns="http://www.w3.org/2000/svg" fill="currentColor" viewBox="0 -960 960 960"><path d="M480-112.31q-74.92 0-127.46-52.54T300-292.31t52.54-127.46T480-472.31t127.46 52.54T660-292.31t-52.54 127.46T480-112.31m0-60q50 0 85-35t35-85-35-85-85-35-85 35-35 85 35 85 85 35M280.77-488.62l-171.54-172.3Q185-731.69 280.62-769.69q95.61-38 199.38-38t199.38 38q95.62 38 171.39 108.77l-171.54 172.3q-41.38-37.92-92.38-58.5-51-20.57-106.85-20.57t-106.85 20.57q-51 20.58-92.38 58.5m5.23-79.07q42-30 91.5-45t102.5-15 101.5 14.5 92.5 43.5l88-88q-62-44-133.5-67t-148.5-23-148.5 23-133.5 67zm194 275.38"/></svg>