<svg xmlns="http://www.w3.org/2000/svg" fill="currentColor" viewBox="0 -960 960 960"><path d="M480.01-293.85q12.76 0 21.37-8.63 8.62-8.62 8.62-21.38t-8.63-21.37q-8.63-8.62-21.38-8.62-12.76 0-21.37 8.63-8.62 8.63-8.62 21.39 0 12.75 8.63 21.37 8.63 8.61 21.38 8.61m0-156.15q12.76 0 21.37-8.63 8.62-8.63 8.62-21.38 0-12.76-8.63-21.37-8.63-8.62-21.38-8.62-12.76 0-21.37 8.63-8.62 8.63-8.62 21.38 0 12.76 8.63 21.37 8.63 8.62 21.38 8.62m0-156.15q12.76 0 21.37-8.63 8.62-8.63 8.62-21.39 0-12.75-8.63-21.37-8.63-8.61-21.38-8.61-12.76 0-21.37 8.63-8.62 8.62-8.62 21.38t8.63 21.37q8.63 8.62 21.38 8.62M787.69-180H172.31q-29.83 0-51.07-21.24T100-252.31v-131.53q34.16-6.54 57.08-33.51Q180-444.31 180-480t-22.92-62.65q-22.92-26.97-57.08-33.51v-131.53q0-29.83 21.24-51.07T172.31-780h615.38q29.83 0 51.07 21.24T860-707.69v131.53q-34.16 6.54-57.08 33.51Q780-515.69 780-480t22.92 62.65q22.92 26.97 57.08 33.51v131.53q0 29.83-21.24 51.07T787.69-180m0-60q5.39 0 8.85-3.46t3.46-8.85V-342q-37-22-58.5-58.5T720-480t21.5-79.5T800-618v-89.69q0-5.39-3.46-8.85t-8.85-3.46H172.31q-5.39 0-8.85 3.46t-3.46 8.85V-618q37 22 58.5 58.5T240-480t-21.5 79.5T160-342v89.69q0 5.39 3.46 8.85t8.85 3.46zM480-480"/></svg>