<svg xmlns="http://www.w3.org/2000/svg" fill="currentColor" viewBox="0 -960 960 960"><path d="M206.15-326.15h67.7q-1.93-27.23-21.2-46.5t-46.5-21.2zm142 0h46.46q0-78.39-55.03-133.43-55.04-55.03-133.43-55.03v46.46q59 0 100.5 41.5t41.5 100.5m120.77 0h46.46q0-63.7-24.23-120.27-24.23-56.58-66.19-98.54t-98.54-66.19q-56.57-24.23-120.27-24.23v46.46q109.39 0 186.08 76.69t76.69 186.08M340-140v-80H172.31Q142-220 121-241t-21-51.31v-455.38Q100-778 121-799t51.31-21h615.38Q818-820 839-799t21 51.31v455.38Q860-262 839-241t-51.31 21H620v80zM172.31-280h615.38q4.62 0 8.46-3.85 3.85-3.84 3.85-8.46v-455.38q0-4.62-3.85-8.46-3.84-3.85-8.46-3.85H172.31q-4.62 0-8.46 3.85-3.85 3.84-3.85 8.46v455.38q0 4.62 3.85 8.46 3.84 3.85 8.46 3.85M160-280v-480z"/></svg>