<svg xmlns="http://www.w3.org/2000/svg" fill="currentColor" viewBox="0 -960 960 960"><path d="M479-377.85q-42.31 0-71.73-29.42T377.85-479t29.42-71.73T479-580.15t71.73 29.42T580.15-479t-29.42 71.73T479-377.85M479-100 319.77-259.62l42.77-42.76 117.08 117.07 116.46-116.46 42.15 42.54zM258.62-319.39 99.39-478.62 259-638.23l42.77 42.77-117.08 117.08 116.46 116.46zm103.3-338.84-42.53-42.15 159.23-159.23 159.61 159.23-42.77 42.76-117.08-117.07zm337.85 338.46L657-362.54l117.08-117.08-116.46-116.46 42.15-42.15L859-479z"/></svg>