<svg xmlns="http://www.w3.org/2000/svg" fill="currentColor" viewBox="0 -960 960 960"><path d="M170-72.31v-60h620v60zm0-755.38v-60h620v60zM480-420q45.77 0 77.88-32.11Q590-484.23 590-530t-32.12-77.88Q525.77-640 480-640t-77.88 32.12Q370-575.77 370-530t32.12 77.89Q434.23-420 480-420M172.31-180Q142-180 121-201t-21-51.31v-455.38Q100-738 121-759t51.31-21h615.38Q818-780 839-759t21 51.31v455.38Q860-222 839-201t-51.31 21zm83.85-60q45-48.31 101.69-74.15Q414.54-340 480-340t122.15 25.85q56.69 25.84 101.69 74.15h83.85q4.62 0 8.46-3.85 3.85-3.84 3.85-8.46v-455.38q0-4.62-3.85-8.46-3.84-3.85-8.46-3.85H172.31q-4.62 0-8.46 3.85-3.85 3.84-3.85 8.46v455.38q0 4.62 3.85 8.46 3.84 3.85 8.46 3.85zm91.84 0h264q-29-20-62.5-30T480-280t-69.5 10-62.5 30m132-240q-20.85 0-35.42-14.57Q430-509.15 430-530q0-20.84 14.58-35.42Q459.15-580 480-580t35.42 14.58Q530-550.84 530-530q0 20.85-14.58 35.43Q500.85-480 480-480m0 0"/></svg>