<svg xmlns="http://www.w3.org/2000/svg" fill="currentColor" viewBox="0 -960 960 960"><path d="M92.31-147.69q-30.31 0-51.31-21T20-220v-520q0-30.31 21-51.31t51.31-21h775.38q30.31 0 51.31 21T940-740v520q0 30.31-21 51.31t-51.31 21zm521.38-60h254q4.62 0 8.46-3.85Q880-215.39 880-220v-520q0-4.61-3.85-8.46-3.84-3.85-8.46-3.85H92.31q-4.62 0-8.46 3.85Q80-744.61 80-740v520q0 4.61 3.85 8.46 3.84 3.85 8.46 3.85h14q42-64.62 109.08-102.31 67.07-37.69 144.61-37.69T504.61-310q67.08 37.69 109.08 102.31M360-395.38q45.77 0 77.88-32.12Q470-459.61 470-505.38t-32.12-77.89q-32.11-32.11-77.88-32.11t-77.88 32.11Q250-551.15 250-505.38t32.12 77.88q32.11 32.12 77.88 32.12m386.15 143.84 72.31-72.31-54.62-73.07h-67.53q-6.77-20.31-10.39-40.81-3.61-20.5-3.61-42.27t3.61-41.27q3.62-19.5 10.39-41.81h67.53l54.62-73.07-72.31-72.31q-51.3 40.85-81.42 101.5T634.61-480t30.12 126.96 81.42 101.5M182-207.69h356q-34.38-38-80.69-59t-97.31-21-97 21-81 59m178-247.69q-20.85 0-35.42-14.58Q310-484.54 310-505.38q0-20.85 14.58-35.43 14.57-14.57 35.42-14.57t35.42 14.57Q410-526.23 410-505.38q0 20.84-14.58 35.42-14.57 14.58-35.42 14.58M480-480"/></svg>