<svg xmlns="http://www.w3.org/2000/svg" fill="currentColor" viewBox="0 -960 960 960"><path d="M563.85-516.15h272.3v-192.31h-272.3zM700-563.85l-99.23-69.23v-37.69L700-601.54l99.23-69.23v37.69zM92.31-147.69q-30.31 0-51.31-21T20-220v-520q0-30.31 21-51.31t51.31-21h775.38q30.31 0 51.31 21T940-740v520q0 30.31-21 51.31t-51.31 21zm521.38-60h254q4.62 0 8.46-3.85Q880-215.39 880-220v-520q0-4.61-3.85-8.46-3.84-3.85-8.46-3.85H92.31q-4.62 0-8.46 3.85Q80-744.61 80-740v520q0 4.61 3.85 8.46 3.84 3.85 8.46 3.85h14q42-64.62 109.08-102.31 67.07-37.69 144.61-37.69T504.61-310q67.08 37.69 109.08 102.31M360-395.38q45.77 0 77.88-32.12Q470-459.61 470-505.38t-32.12-77.89q-32.11-32.11-77.88-32.11t-77.88 32.11Q250-551.15 250-505.38t32.12 77.88q32.11 32.12 77.88 32.12M182-207.69h356q-34.38-38-80.69-59t-97.31-21-97 21-81 59m178-247.69q-20.85 0-35.42-14.58Q310-484.54 310-505.38q0-20.85 14.58-35.43 14.57-14.57 35.42-14.57t35.42 14.57Q410-526.23 410-505.38q0 20.84-14.58 35.42-14.57 14.58-35.42 14.58M480-480"/></svg>