<svg xmlns="http://www.w3.org/2000/svg" fill="currentColor" viewBox="0 -960 960 960"><path d="M817.85-100 710.61-206.85q-20.07 12.23-42.45 19.54T621.54-180q-65.77 0-112.12-46.35-46.34-46.34-46.34-112.11t46.34-112.12q46.35-46.34 112.12-46.34t112.11 46.34Q780-404.23 780-338.46q0 24.08-6.92 46.73-6.93 22.65-20.31 42.34L860-142.15zm-196.4-140q41.32 0 69.93-28.53Q720-297.06 720-338.37q0-41.32-28.53-69.94-28.53-28.61-69.84-28.61-41.32 0-69.94 28.53-28.61 28.52-28.61 69.84t28.53 69.93Q580.13-240 621.45-240M820-546.15h-60v-201.54q0-4.62-3.85-8.46-3.84-3.85-8.46-3.85H660v104.61H300V-760h-87.69q-4.62 0-8.46 3.85-3.85 3.84-3.85 8.46v535.38q0 4.62 3.85 8.46 3.84 3.85 8.46 3.85H410v60H212.31q-29.83 0-51.07-21.24T140-212.31v-535.38q0-29.83 21.24-51.07T212.31-820h176.23q8.31-29.23 33.96-48.46t57.5-19.23q33.08 0 58.42 19.23 25.35 19.23 33.66 48.46h175.61q29.83 0 51.07 21.24T820-747.69zM480.07-755.38q15.39 0 25.74-10.42 10.34-10.41 10.34-25.81 0-15.39-10.41-25.74-10.41-10.34-25.81-10.34-15.39 0-25.74 10.41-10.34 10.42-10.34 25.81t10.41 25.74 25.81 10.35"/></svg>