<svg xmlns="http://www.w3.org/2000/svg" fill="currentColor" viewBox="0 -960 960 960"><path d="M500-114.62 493.85-220H460q-133.54 0-226.77-93.23T140-540t93.23-226.77T460-860q66.77 0 124.81 24.96t101.65 68.58q43.62 43.61 68.58 101.65T780-540q0 68.08-21.23 130.73t-58.35 117.23q-37.11 54.58-88.5 99.69-51.38 45.12-111.92 77.73M560-226q71-60 115.5-140.5T720-540q0-109-75.5-184.5T460-800t-184.5 75.5T200-540t75.5 184.5T460-280h100zm-99.85-103.08q14.7 0 24.97-10.27 10.26-10.27 10.26-24.96t-10.26-24.96q-10.27-10.27-24.97-10.27-14.69 0-24.96 10.27t-10.27 24.96 10.27 24.96 24.96 10.27m-23.23-122h47.69q.77-27.3 7.74-40.46 6.96-13.15 37.8-44 17.62-17.61 28.66-37.08 11.04-19.46 11.04-43.07 0-47.16-32.2-72.27-32.19-25.12-76.88-25.12-40.54 0-68.42 22.39-27.89 22.38-39.89 53.92l44.46 17.38q6.54-17.38 21.31-32.92t42.54-15.54q30.46 0 45.31 16.73 14.84 16.74 14.84 36.66 0 18.54-10.19 32.23t-25.34 28.85q-31.93 27.69-40.2 46.53-8.27 18.85-8.27 55.77M460-513"/></svg>