<svg xmlns="http://www.w3.org/2000/svg" fill="currentColor" viewBox="0 -960 960 960"><path d="m820-253.23-60-60v-434.46q0-4.62-3.85-8.46-3.84-3.85-8.46-3.85H660v104.61H417.84L253.23-820h135.31q8.31-29.23 33.96-48.46t57.5-19.23q33.08 0 58.42 19.23 25.35 19.23 33.66 48.46h175.61q29.92 0 51.12 21.19Q820-777.61 820-747.69zM480-755.38q15.46 0 25.81-10.35 10.34-10.35 10.34-25.81t-10.34-25.81q-10.35-10.34-25.81-10.34t-25.81 10.34q-10.34 10.35-10.34 25.81t10.34 25.81q10.35 10.35 25.81 10.35M674.46-200 200-674.46v462.15q0 4.62 3.85 8.46 3.84 3.85 8.46 3.85zm-462.15 60q-29.92 0-51.12-21.19Q140-182.39 140-212.31v-514.46q0-1.92.19-3.27.2-1.35.97-3.27l-58.85-58.84 42.77-42.77 709.84 709.84-42.77 42.77-58.84-58.85q-1.92.77-3.27.97-1.35.19-3.27.19z"/></svg>