<svg xmlns="http://www.w3.org/2000/svg" fill="currentColor" viewBox="0 -960 960 960"><path d="M140-241.54v-64.61h64.62v64.61zm0-141.54v-64.61h64.62v64.61zm0-141.54v-64.61h64.62v64.61zM281.54-100v-64.62h64.61V-100zm84.61-153.85q-30.3 0-51.3-21t-21-51.3v-461.54q0-30.31 21-51.31t51.3-21h341.54Q738-860 759-839t21 51.31v461.54q0 30.3-21 51.3t-51.31 21zm0-60h341.54q4.62 0 8.46-3.84 3.85-3.85 3.85-8.46v-461.54q0-4.62-3.85-8.46-3.84-3.85-8.46-3.85H366.15q-4.61 0-8.46 3.85-3.84 3.84-3.84 8.46v461.54q0 4.61 3.84 8.46 3.85 3.84 8.46 3.84M423.08-100v-64.62h64.61V-100zm-218.46 0q-26.66 0-45.64-18.98T140-164.62h64.62zm360 0v-64.62h64.61q0 26.85-18.98 45.73Q591.27-100 564.62-100M140-666.16q0-26.65 18.98-45.63t45.64-18.98v64.61zm396.92 109.24"/></svg>