<svg xmlns="http://www.w3.org/2000/svg" fill="currentColor" viewBox="0 -960 960 960"><path d="M480-100q-78.77 0-148.11-29.96-69.35-29.96-120.66-81.27t-81.27-120.66Q100-401.23 100-480q0-105.15 53.15-194.54 53.16-89.38 145.54-139.23 1.39 14.39 3.62 29.08t7.3 33.77Q239.54-706.54 199.77-635T160-480q0 134 93 227t227 93 227-93 93-227q0-83.46-39.96-155.5T649-751.92q5.08-18.69 7.5-33.19t4.42-28.66q92.39 49.85 145.73 138.93Q860-585.77 860-480q0 78.77-29.96 148.11-29.96 69.35-81.27 120.66t-120.66 81.27Q558.77-100 480-100m0-160q-91.54 0-155.77-64.23T260-480q0-49.92 20.89-94.19 20.88-44.27 59.42-75.19 4.23 12.3 8.88 27 4.66 14.69 11.96 35.61-20.07 22.23-30.61 49.46T320-480q0 66 47 113t113 47 113-47 47-113q0-30.46-10.73-57.31-10.73-26.84-30.81-49.46 5.69-16.69 8.54-25.46t11.69-37.54q38.92 30.93 60.12 75.39Q700-529.92 700-480q0 91.54-64.23 155.77T480-260m-32.31-370q-37-111.62-47.34-152.69Q390-823.77 390-860q0-37.77 26.12-63.88Q442.23-950 480-950t63.88 26.12Q570-897.77 570-860q0 36.23-10.35 77.31-10.34 41.07-47.34 152.69zM480-410q-29.15 0-49.58-20.42Q410-450.85 410-480t20.42-49.58Q450.85-550 480-550t49.58 20.42Q550-509.15 550-480t-20.42 49.58Q509.15-410 480-410"/></svg>