<svg xmlns="http://www.w3.org/2000/svg" fill="currentColor" viewBox="0 -960 960 960"><path d="M480-60q-117 0-212.35-57.93-95.34-57.92-149.57-155.23v119.31h-60v-220h220v60H164.46q43.38 87.39 128.23 140.62T480-120q73.46 0 137.81-27.15 64.34-27.16 112.65-74.12t77.58-110.92T839.62-470h59.99q-1.92 85.23-35.65 159.85-33.73 74.61-90.46 130.38T641.19-92 480-60m-28.31-147.69v-50.46q-43.92-10.24-73.04-36.47-29.11-26.23-44.65-70.76L384.61-386q14.31 39.08 40.97 59.39 26.65 20.3 60.42 20.3 34.15 0 61.31-17.04 27.15-17.03 27.15-54.65 0-31.31-23.34-49.88-23.35-18.58-87.12-41.97-61.69-22.15-89-49.61T347.69-592q0-38.69 27.93-70.85 27.92-32.15 78.07-41v-48.46h54.62v48.46q33.69 2.62 62.04 25.35 28.34 22.73 40.88 54.65L561.85-604q-10.31-22.23-29.47-36.96-19.15-14.73-50.38-14.73-37.31 0-58.5 17.69t-21.19 46T423-547.92t83.77 37.31q72 26 96.77 58.3Q628.31-420 628.31-378q0 28.62-10.58 50.23-10.58 21.62-27.65 36.35-17.08 14.73-38.89 23.27-21.81 8.53-44.88 12v48.46zM60.39-490q2.69-87.15 36.8-161.96 34.12-74.81 91.23-130.19 57.12-55.39 132.12-86.62T480-900q115.85 0 212.35 58.12 96.5 58.11 149.57 156.58v-120.85h60v220h-220v-60h113.62Q753.31-732 668.27-786T480-840q-71.92 0-136.08 26.77-64.15 26.77-112.84 73.34-48.69 46.58-78.54 110.54T120.38-490z"/></svg>