<svg xmlns="http://www.w3.org/2000/svg" fill="currentColor" viewBox="0 -960 960 960"><path d="M480-340q-57.92 0-98.96-41.04T340-480t41.04-98.96T480-620t98.96 41.04T620-480t-41.04 98.96T480-340m0-60q33 0 56.5-23.5T560-480t-23.5-56.5T480-560t-56.5 23.5T400-480t23.5 56.5T480-400M671.39-97.69q16.46-55.23 24.88-104.23 8.42-49.01 12.27-88.47-39.15 50.08-99.23 80.23Q549.23-180 480-180q-145.23 0-234.27-13.89-89.04-13.88-148.04-30.88v-63.84q56 17.61 105 25.84t88.47 11.31q-48.54-36.46-79.85-97.12Q180-409.23 180-480q0-120.46 14.27-218.81 14.27-98.34 30.12-163.5h63.84Q272.15-802.46 264-755.19t-12.54 86.35q37.62-49.7 97.69-80.43Q409.23-780 480-780q133.15 0 226.11 13.89 92.97 13.88 156.2 30.5v63.84q-56-16.46-106.16-25.19-50.15-8.73-86.92-11.96 51.61 40.3 81.19 100.57T780-480q0 138.92-14.46 231.11-14.46 92.2-30.31 151.2zM480-240q100 0 170-70t70-170-70-170-170-70-170 70-70 170 70 170 170 70"/></svg>