<svg xmlns="http://www.w3.org/2000/svg" fill="currentColor" viewBox="0 -960 960 960"><path d="M480-100q-78.85 0-148.2-29.9t-120.65-81.63-81.22-121.02Q100-401.85 100-480q0-147 96.89-254.61Q293.77-842.23 440-858v84.61q-111.46 15.16-183.42 98.66-71.97 83.5-71.97 194.73 0 122.37 86.51 208.88T480-184.61q70.77 0 132.42-30.7 61.66-30.69 101.43-81.77L787.08-254q-52.85 71.54-132.89 112.77Q574.16-100 480-100m-30-230v-120H330v-60h120v-120h60v120h120v60H510v120zm378.31 2-73.23-42.31q9.77-23.61 15.04-51.61t5.27-58.08q0-112.39-72.74-195.69Q629.92-759 520-773.39V-858q143.54 13.85 241.77 122.04T860-480q0 41.69-7.62 80.19-7.61 38.5-24.07 71.81"/></svg>