<svg xmlns="http://www.w3.org/2000/svg" fill="currentColor" viewBox="0 -960 960 960"><path d="M320-402.31q-14.69 0-25.04-10.34-10.34-10.35-10.34-25.04t10.34-25.04q10.35-10.35 25.04-10.35t25.04 10.35q10.34 10.35 10.34 25.04t-10.34 25.04q-10.35 10.34-25.04 10.34m160 0q-14.69 0-25.04-10.34-10.34-10.35-10.34-25.04t10.34-25.04q10.35-10.35 25.04-10.35t25.04 10.35q10.34 10.35 10.34 25.04t-10.34 25.04q-10.35 10.34-25.04 10.34m160 0q-14.69 0-25.04-10.34-10.34-10.35-10.34-25.04t10.34-25.04q10.35-10.35 25.04-10.35t25.04 10.35q10.34 10.35 10.34 25.04t-10.34 25.04q-10.35 10.34-25.04 10.34M212.31-100Q182-100 161-121t-21-51.31v-535.38Q140-738 161-759t51.31-21h55.38v-84.61h61.54V-780h303.08v-84.61h60V-780h55.38Q778-780 799-759t21 51.31v535.38Q820-142 799-121t-51.31 21zm0-60h535.38q4.62 0 8.46-3.85 3.85-3.84 3.85-8.46v-375.38H200v375.38q0 4.62 3.85 8.46 3.84 3.85 8.46 3.85M200-607.69h560v-100q0-4.62-3.85-8.46-3.84-3.85-8.46-3.85H212.31q-4.62 0-8.46 3.85-3.85 3.84-3.85 8.46zm0 0V-720z"/></svg>