<svg xmlns="http://www.w3.org/2000/svg" fill="currentColor" viewBox="0 -960 960 960"><path d="M792.15-82.93 581.23-293.85H293.85v-287.38L82.93-792.15l42.15-42.77 709.84 709.84zm-438.3-270.92h167.38L353.85-521.23zm312.3-53-60-60v-139.3h-139.3l-60-60h259.3zM204.62-204.62V-140q-26.66 0-45.64-18.98T140-204.62zM140-293.85v-64.61h64.62v64.61zm0-153.84v-64.62h64.62v64.62zm0-153.85v-64.61h64.62v64.61zM293.85-140v-64.62h64.61V-140zm0-615.38V-820h64.61v64.62zM447.69-140v-64.62h64.62V-140zm0-615.38V-820h64.62v64.62zM601.54-140v-64.62h64.61V-140zm0-615.38V-820h64.61v64.62zm153.84 461.53v-64.61H820v64.61zm0-153.84v-64.62H820v64.62zm0-153.85v-64.61H820v64.61zm0-153.84V-820q26.66 0 45.64 18.98T820-755.38z"/></svg>