<svg xmlns="http://www.w3.org/2000/svg" fill="currentColor" viewBox="0 -960 960 960"><path d="M100-680v-67.69Q100-778 121-799t51.31-21h615.38Q818-820 839-799t21 51.31V-680h-60v-67.69q0-5.39-3.46-8.85t-8.85-3.46H172.31q-5.39 0-8.85 3.46t-3.46 8.85V-680zm240 540v-80H172.31Q142-220 121-241t-21-51.31V-360h60v67.69q0 5.39 3.46 8.85t8.85 3.46h615.38q5.39 0 8.85-3.46t3.46-8.85V-360h60v67.69Q860-262 839-241t-51.31 21H620v80zM184.31-520l104-104-42.16-42.15L100-520l146.15 146.15L288.31-416zm591.38 0-104 104 42.16 42.15L860-520 713.85-666.15 671.69-624z"/></svg>