<svg xmlns="http://www.w3.org/2000/svg" fill="currentColor" viewBox="0 -960 960 960"><path d="M480-63.08q-29.15 0-49.58-20.42Q410-103.92 410-133.08q0-29.15 20.42-49.57 20.43-20.43 49.58-20.43t49.58 20.43Q550-162.23 550-133.08q0 29.16-20.42 49.58Q509.15-63.08 480-63.08m-235.38-700q-29.16 0-49.58-20.42t-20.42-49.58q0-29.15 20.42-49.57 20.42-20.43 49.58-20.43 29.15 0 49.57 20.43 20.42 20.42 20.42 49.57 0 29.16-20.42 49.58t-49.57 20.42m0 235.39q-29.16 0-49.58-20.43-20.42-20.42-20.42-49.57 0-29.16 20.42-49.58t49.58-20.42q29.15 0 49.57 20.42t20.42 49.58q0 29.15-20.42 49.57-20.42 20.43-49.57 20.43m0 235.38q-29.16 0-49.58-20.42t-20.42-49.58q0-29.15 20.42-49.57 20.42-20.43 49.58-20.43 29.15 0 49.57 20.43 20.42 20.42 20.42 49.57 0 29.16-20.42 49.58t-49.57 20.42m470.76-470.77q-29.15 0-49.57-20.42t-20.42-49.58q0-29.15 20.42-49.57 20.42-20.43 49.57-20.43 29.16 0 49.58 20.43 20.42 20.42 20.42 49.57 0 29.16-20.42 49.58t-49.58 20.42M480-292.31q-29.15 0-49.58-20.42Q410-333.15 410-362.31q0-29.15 20.42-49.57 20.43-20.43 49.58-20.43t49.58 20.43Q550-391.46 550-362.31q0 29.16-20.42 49.58-20.43 20.42-49.58 20.42m235.38 0q-29.15 0-49.57-20.42t-20.42-49.58q0-29.15 20.42-49.57 20.42-20.43 49.57-20.43 29.16 0 49.58 20.43 20.42 20.42 20.42 49.57 0 29.16-20.42 49.58t-49.58 20.42m0-235.38q-29.15 0-49.57-20.43-20.42-20.42-20.42-49.57 0-29.16 20.42-49.58t49.57-20.42q29.16 0 49.58 20.42t20.42 49.58q0 29.15-20.42 49.57-20.42 20.43-49.58 20.43m-235.38 0q-29.15 0-49.58-20.43Q410-568.54 410-597.69q0-29.16 20.42-49.58 20.43-20.42 49.58-20.42t49.58 20.42Q550-626.85 550-597.69q0 29.15-20.42 49.57-20.43 20.43-49.58 20.43m0-235.39q-29.15 0-49.58-20.42Q410-803.92 410-833.08q0-29.15 20.42-49.57 20.43-20.43 49.58-20.43t49.58 20.43Q550-862.23 550-833.08q0 29.16-20.42 49.58-20.43 20.42-49.58 20.42"/></svg>