<svg xmlns="http://www.w3.org/2000/svg" fill="currentColor" viewBox="0 -960 960 960"><path d="M510-530h60v-80h80v-60h-80v-80h-60v80h-80v60h80zm-80 160h220v-60H430zm-97.69 150Q302-220 281-241t-21-51.31v-535.38Q260-858 281-879t51.31-21H610l210 210v397.69Q820-262 799-241t-51.31 21zm0-60h415.38q4.62 0 8.46-3.85 3.85-3.84 3.85-8.46V-660L580-840H332.31q-4.62 0-8.46 3.85-3.85 3.84-3.85 8.46v535.38q0 4.62 3.85 8.46 3.84 3.85 8.46 3.85m-160 220Q142-60 121-81t-21-51.31V-660h60v527.69q0 4.62 3.85 8.46 3.84 3.85 8.46 3.85H580v60zM320-280v-560z"/></svg>