<svg xmlns="http://www.w3.org/2000/svg" fill="currentColor" viewBox="0 -960 960 960"><path d="M247.69-150.77V-180l60-40q-53.61 0-90.65-37.04T180-347.69V-720q0-73.38 71.23-106.69T480-860q161.23 0 230.61 32.39Q780-795.23 780-720v372.31q0 53.61-37.04 90.65T652.31-220l60 40v29.23zM240-540h480v-149.23H240zm412.31 60H240h480zM480-327.69q21.92 0 37.11-15.2 15.2-15.19 15.2-37.11t-15.2-37.11q-15.19-15.2-37.11-15.2t-37.11 15.2q-15.2 15.19-15.2 37.11t15.2 37.11q15.19 15.2 37.11 15.2M307.69-280h344.62q28.69 0 48.19-19.5t19.5-48.19V-480H240v132.31q0 28.69 19.5 48.19t48.19 19.5M480-800q-97.92 0-154.62 12.5-56.69 12.5-74.3 38.27h460.31Q696.85-775 640.15-787.5 583.46-800 480-800m0 50.77h231.39-460.31z"/></svg>