<svg xmlns="http://www.w3.org/2000/svg" fill="currentColor" viewBox="0 -960 960 960"><path d="M530-50v-233.46l-100.15-95.77-41.54 183.69-256.77-52.15 12.15-59.62 192 39.62 69.39-353.23L310-582.54V-450h-60v-171.85l158.77-67.23q30.38-12.69 44.77-16.8Q467.92-710 480-710q18.31 0 34 9.65 15.69 9.66 25.54 25.74l40 64q25.61 41.23 70.11 69.38T750-510.77v60q-61-1.92-117.92-31.35-56.93-29.42-97.08-85.19l-29.77 150.39L590-335.38V-50zm10-696.15q-30.69 0-52.27-21.58T466.15-820t21.58-52.27T540-893.85t52.27 21.58T613.85-820t-21.58 52.27T540-746.15"/></svg>