<svg xmlns="http://www.w3.org/2000/svg" fill="currentColor" viewBox="0 -960 960 960"><path d="M831.69-43.39 639.62-236.08l-109.01 109q-10.82 10.85-23.91 16.27t-26.62 5.42q-13.54 0-26.68-5.42t-24.01-16.27L127.08-429.39q-10.85-10.82-16.27-23.91t-5.42-26.62q0-13.54 5.42-26.68t16.27-24.01l109-109.01L51.23-823.85 94-866.61 874.46-86.15zM597.85-277.85l-320-320-109.39 109.39Q165-485 165-480t3.46 8.46l303.08 303.08Q475-165 480-165t8.46-3.46zM739-335.46l-41.77-41.77 94.31-94.31Q795-475 795-480t-3.46-8.46L488.46-791.54Q485-795 480-795t-8.46 3.46l-94.31 94.31L335.46-739l93.93-93.92q10.82-10.85 23.91-16.27t26.62-5.42q13.54 0 26.68 5.42t24.01 16.27l302.31 302.31q10.85 10.82 16.27 23.91t5.42 26.62q0 13.54-5.42 26.68t-16.27 24.01zM330-370v-144.01q0-15.3 10.39-25.64Q350.79-550 366.15-550h44.47l59.99 60H390v120zm279.92-94.54L665.77-520 550-636.15V-550h-25.54z"/></svg>