<svg xmlns="http://www.w3.org/2000/svg" fill="currentColor" viewBox="0 -960 960 960"><path d="M435-103.31q-71.08-8.31-132.23-40.35-61.15-32.03-106.35-82.26-45.19-50.24-70.8-115.54Q100-406.77 100-480q0-79.15 29.77-148.5t81.08-120.65q51.3-51.31 120.65-81.08T480-860t148.5 29.77 120.65 81.08q51.31 51.3 81.08 120.65T860-480v15.15q-12.77-8.3-29.69-15.92-16.93-7.61-30.93-13.08-5.69-127.92-97.76-217.03Q609.54-800 480-800q-59.85 0-111.27 20.31t-92.42 53.84l248.07 248.08q-14.38 6.46-27.46 14.27-13.07 7.81-25.84 16.73L234.15-683.69q-33.53 39.84-53.84 92.42T160-480q0 101.69 56.38 181.54 56.39 79.85 145.24 115.31 13.77 20.69 34.03 42.57 20.27 21.89 39.35 37.27M680-160q59 0 109.5-27t80.5-73q-30-46-80.5-73T680-360t-109.5 27-80.5 73q30 46 80.5 73T680-160m0 60q-86.77 0-156.11-44.73Q454.54-189.46 422.31-260q32.23-70.54 101.58-115.27Q593.23-420 680-420t156.11 44.73Q905.46-330.54 937.69-260q-32.23 70.54-101.58 115.27Q766.77-100 680-100m0-103.85q-23.08 0-39.62-16.53-16.53-16.54-16.53-39.62 0-23.46 16.53-39.81 16.54-16.34 39.62-16.34 23.46 0 39.81 16.34 16.34 16.35 16.34 39.81 0 23.08-16.34 39.62-16.35 16.53-39.81 16.53"/></svg>