<svg xmlns="http://www.w3.org/2000/svg" fill="currentColor" viewBox="0 -960 960 960"><path d="M90-730v-180h180v60H150v120zm720 0v-120H690v-60h180v180zM90-50v-180h60v120h120v60zm600 0v-60h120v-120h60v180zM270-242.31q0 4.62 3.85 8.46 3.84 3.85 8.46 3.85h395.38q4.62 0 8.46-3.85 3.85-3.84 3.85-8.46v-475.38q0-4.62-3.85-8.46-3.84-3.85-8.46-3.85H282.31q-4.62 0-8.46 3.85-3.85 3.84-3.85 8.46zM282.31-170Q252-170 231-191t-21-51.31v-475.38Q210-748 231-769t51.31-21h395.38Q708-790 729-769t21 51.31v475.38Q750-212 729-191t-51.31 21zM370-570h220v-60H370zm0 120h220v-60H370zm0 120h220v-60H370zm-100 87.69V-730v500z"/></svg>