<svg xmlns="http://www.w3.org/2000/svg" fill="currentColor" viewBox="0 -960 960 960"><path d="M94.62-136.92v-700h379.99v160h390.77v326.15h-59.99v-266.15H474.61v100h87.7v60h-87.7v100h87.7v60h-87.7v100H650v60zm59.99-60h100.01v-100H154.61zm0-160h100.01v-100H154.61zm0-160h100.01v-100H154.61zm0-160h100.01v-100H154.61zm160 480h100.01v-100H314.61zm0-160h100.01v-100H314.61zm0-160h100.01v-100H314.61zm0-160h100.01v-100H314.61zm490.78 620v-80h-80v-60h80v-80h59.99v80h80v60h-80v80zM650-456.92v-60h60v60zm0 160v-60h60v60z"/></svg>