<svg xmlns="http://www.w3.org/2000/svg" fill="currentColor" viewBox="0 -960 960 960"><path d="M374.62-444.62q-14.7 0-25.04-10.34-10.35-10.35-10.35-25.04t10.35-25.04q10.34-10.34 25.04-10.34 14.69 0 25.03 10.34Q410-494.69 410-480t-10.35 25.04q-10.34 10.34-25.03 10.34m210.76 0q-14.69 0-25.03-10.34Q550-465.31 550-480t10.35-25.04q10.34-10.34 25.03-10.34 14.7 0 25.04 10.34 10.35 10.35 10.35 25.04t-10.35 25.04q-10.34 10.34-25.04 10.34M150-140v-60h40v-547.69Q190-778 211-799t51.31-21h435.38Q728-820 749-799t21 51.31V-200h40v60zm100-60h200v-560H262.31q-4.62 0-8.46 3.85-3.85 3.84-3.85 8.46zm260 0h200v-547.69q0-4.62-3.85-8.46-3.84-3.85-8.46-3.85H510zm-30-310"/></svg>