<svg xmlns="http://www.w3.org/2000/svg" fill="currentColor" viewBox="0 -960 960 960"><path d="M360-175.39q-26.65 0-45.63-18.98T295.39-240t18.98-45.63T360-304.61t45.63 18.98T424.61-240t-18.98 45.63T360-175.39m240 0q-26.65 0-45.63-18.98T535.39-240t18.98-45.63T600-304.61t45.63 18.98T664.61-240t-18.98 45.63T600-175.39m-240-240q-26.65 0-45.63-18.98T295.39-480t18.98-45.63T360-544.61t45.63 18.98T424.61-480t-18.98 45.63T360-415.39m240 0q-26.65 0-45.63-18.98T535.39-480t18.98-45.63T600-544.61t45.63 18.98T664.61-480t-18.98 45.63T600-415.39m-240-240q-26.65 0-45.63-18.98T295.39-720t18.98-45.63T360-784.61t45.63 18.98T424.61-720t-18.98 45.63T360-655.39m240 0q-26.65 0-45.63-18.98T535.39-720t18.98-45.63T600-784.61t45.63 18.98T664.61-720t-18.98 45.63T600-655.39"/></svg>