<svg xmlns="http://www.w3.org/2000/svg" fill="currentColor" viewBox="0 -960 960 960"><path d="M295-100v-233.46h-70.92q-35.03 0-59.56-24.64Q140-382.74 140-417.94q0-25.52 13.89-47.14 13.88-21.61 36.8-32.07L450-612.38v-37.93q-34.46-9.92-56.08-38.11-21.61-28.19-21.61-63.89 0-44.87 31.36-76.28Q435.02-860 479.82-860q44.79 0 76.14 31.54t31.35 76.15h-60.77q0-20.27-13.38-33.98T480-800q-20.27 0-33.98 13.71t-13.71 33.98 13.71 33.98q13.71 13.72 33.98 13.72 12.75 0 21.37 8.62 8.63 8.63 8.63 21.38v62.23l258.92 115.23q22.9 10.54 36.99 32.07T820-418.07q0 35.15-24.64 59.88-24.63 24.73-59.82 24.73H665V-100zm-70.92-293.46H295v-38.85h370v38.85h70.54q10.46 0 17.46-7.31t7-18.38q0-7.31-3.65-13.31-3.66-6-10.97-9.16L480-559.69 215-441.62q-7.31 3.16-11.15 9.16-3.85 6-3.85 13.31 0 11.07 6.77 18.38t17.31 7.31M355-160h250v-212.31H355zm0-212.31h250z"/></svg>