<svg xmlns="http://www.w3.org/2000/svg" fill="currentColor" viewBox="0 -960 960 960"><path d="M280-407.69q13.54 0 22.92-9.39 9.39-9.38 9.39-22.92t-9.39-22.92q-9.38-9.39-22.92-9.39t-22.92 9.39q-9.39 9.38-9.39 22.92t9.39 22.92q9.38 9.39 22.92 9.39m0-160q13.54 0 22.92-9.39 9.39-9.38 9.39-22.92t-9.39-22.92q-9.38-9.39-22.92-9.39t-22.92 9.39q-9.39 9.38-9.39 22.92t9.39 22.92q9.38 9.39 22.92 9.39M362.31-410H710v-60H362.31zm0-160H710v-60H362.31zM340-140v-80H172.31Q142-220 121-241t-21-51.31v-455.38Q100-778 121-799t51.31-21h615.38Q818-820 839-799t21 51.31v455.38Q860-262 839-241t-51.31 21H620v80zM172.31-280h615.38q4.62 0 8.46-3.85 3.85-3.84 3.85-8.46v-455.38q0-4.62-3.85-8.46-3.84-3.85-8.46-3.85H172.31q-4.62 0-8.46 3.85-3.85 3.84-3.85 8.46v455.38q0 4.62 3.85 8.46 3.84 3.85 8.46 3.85M160-280v-480z"/></svg>