<svg xmlns="http://www.w3.org/2000/svg" fill="currentColor" viewBox="0 -960 960 960"><path d="M162.31-520q-29.83 0-51.07-21.24T90-592.31v-125.38q0-29.83 21.24-51.07T162.31-790H520v270zm0-60H460v-150H162.31q-5.39 0-8.85 3.46t-3.46 8.85v125.38q0 5.39 3.46 8.85t8.85 3.46m0 410q-29.83 0-51.07-21.24T90-242.31v-125.38q0-29.83 21.24-51.07T162.31-440H600v270zm0-60H540v-150H162.31q-5.39 0-8.85 3.46t-3.46 8.85v125.38q0 5.39 3.46 8.85t8.85 3.46M680-170v-350h-80v-270h265.38l-80 202.31h79.23zM195-275h60v-60h-60zm0-350h60v-60h-60zm-45 45v-150zm0 350v-150z"/></svg>