<svg xmlns="http://www.w3.org/2000/svg" fill="currentColor" viewBox="0 -960 960 960"><path d="M640-484.23V-780h60v235.77zM180-180v-600h60v600zm230-459.62V-780h60v140.38zM410-410v-140.38h60V-410zm0 230v-140.38h60V-180zm154.62 0v-105.69l217.15-216.16q7.46-7.46 16.11-10.5 8.65-3.03 17.3-3.03 9.43 0 18.25 3.53 8.82 3.54 16.03 10.62l37 37.38q6.46 7.47 10 16.16t3.54 17.38-3.23 17.69-10.31 16.46L670.31-180zm287.69-250.31-37-37.38zm-240 202.62h38l129.84-130.47-18.38-19-18.62-18.76-130.84 130.23zm149.46-149.47-18.62-18.76 37 37.76z"/></svg>