<svg xmlns="http://www.w3.org/2000/svg" fill="currentColor" viewBox="0 -960 960 960"><path d="M212.31-100Q182-100 161-121t-21-51.31v-535.38Q140-738 161-759t51.31-21h55.38v-84.61h61.54V-780h303.08v-84.61h60V-780h55.38Q778-780 799-759t21 51.31v200h-60v-40H200v375.38q0 4.62 3.85 8.46 3.84 3.85 8.46 3.85h264.61v60zM200-607.69h560v-100q0-4.62-3.85-8.46-3.84-3.85-8.46-3.85H212.31q-4.62 0-8.46 3.85-3.85 3.84-3.85 8.46zm0 0V-720zM564.62-100v-105.69l217.15-216.16q7.46-7.46 16.15-10.5 8.69-3.03 17.39-3.03 9.3 0 18.19 3.53 8.88 3.54 15.96 10.62l37 37.38q6.46 7.47 10 16.16t3.54 17.38-3.23 17.69-10.31 16.46L670.31-100zm287.69-250.31-37-37.38zm-240 202.62h38l129.84-130.47-18.38-19-18.62-18.76-130.84 130.23zm149.46-149.47-18.62-18.76 37 37.76z"/></svg>