<svg xmlns="http://www.w3.org/2000/svg" fill="currentColor" viewBox="0 -960 960 960"><path d="M480-99.62Q329-230.46 253.54-343.15q-75.46-112.7-75.46-206.93 0-138.46 89.57-224.19Q357.23-860 480-860q25.85 0 51 4.12 25.15 4.11 48.61 12.11l-48.07 49.08q-12.69-3.16-25.08-4.43-12.38-1.26-26.46-1.26-102.92 0-172.42 70.46t-69.5 179.84q0 72.54 62.27 169.04T480-179.46q117.38-105.08 179.65-201.58t62.27-169.04q0-16.23-1.96-31.5t-5.5-29.73l49.08-49.07q9 25.61 13.69 52.84t4.69 57.46q0 94.23-75.46 206.93Q631-230.46 480-99.62m239.77-694.46-32.54-32.53-229.54 229.53v59.39h59.39l229.53-229.54zm54.84-1.15 24.93-24.92q8.69-8.7 9.27-21.27.57-12.58-7.74-20.89l-18.76-18.76q-8.31-8.31-20.89-7.74-12.57.58-21.27 9.27l-24.92 24.93z"/></svg>