<svg xmlns="http://www.w3.org/2000/svg" fill="currentColor" viewBox="0 -960 960 960"><path d="M347.69-427.69h43.39l156-156.62-42.77-42.77-156.62 156zm228.39-185.62L601.77-639q4.23-4.23 4.23-8.96t-4.23-8.96l-24.85-24.85q-4.23-4.23-8.96-4.23t-8.96 4.23l-25.69 25.69zM480-179.46q117.38-105.08 179.65-201.58t62.27-169.04q0-109.38-69.5-179.84T480-800.38t-172.42 70.46-69.5 179.84q0 72.54 62.27 169.04T480-179.46m0 79.84Q329-230.46 253.54-343.15q-75.46-112.7-75.46-206.93 0-138.46 89.57-224.19Q357.23-860 480-860t212.35 85.73q89.57 85.73 89.57 224.19 0 94.23-75.46 206.93Q631-230.46 480-99.62m0-458.07"/></svg>