<svg xmlns="http://www.w3.org/2000/svg" fill="currentColor" viewBox="0 -960 960 960"><path d="M130-802.31v-60h300v60zM250-530v-172.31H130v-60h300v60H310V-530zm298 420.15L505.85-152 804-450.15 846.15-408zm32.09-217.84q-22.63 0-37.51-14.8-14.89-14.79-14.89-37.42t14.8-37.51q14.79-14.89 37.42-14.89t37.51 14.8q14.89 14.79 14.89 37.42t-14.8 37.51q-14.79 14.89-37.42 14.89m200 200q-22.63 0-37.51-14.8-14.89-14.79-14.89-37.42t14.8-37.51q14.79-14.89 37.42-14.89t37.51 14.8q14.89 14.79 14.89 37.42t-14.8 37.51q-14.79 14.89-37.42 14.89M621.54-530q-36.77 0-62.62-25.85-25.84-25.84-25.84-62.61t25.84-63.23q25.85-26.46 62.62-26.46 12 0 21.88 2.07 9.89 2.08 18.89 7V-840q0-12.75 8.62-21.37 8.63-8.63 21.38-8.63H830v60H710v191.54q0 36.77-25.85 62.61Q658.31-530 621.54-530M218.94-89.62q-36.86 0-63.67-27.39-26.81-27.4-26.81-64.22 0-16.49 7.31-33.44 7.31-16.94 21.15-30.41l48.93-48.15-20.93-21.31q-13.46-13.46-20.19-29.81-6.73-16.34-6.73-34.32 0-36.87 26.55-63.1T248-468q37.54 0 63.77 25.85Q338-416.31 338-378.93q0 18.24-5.92 34.58-5.93 16.35-19.39 29.81l-21.31 21.31 41.85 41.85 56-56L431.38-264l-55.61 55.62 55.61 55.61-42.15 42.15-55.61-55.61-48.93 48.92q-13.78 13.85-30.77 20.77-17 6.92-34.98 6.92M248-335.38l21.31-21.31q4.92-4.92 6.81-9.43 1.88-4.5 1.88-12 0-13.5-9-21.69T248-408q-11.46 0-20.73 8.25T218-378q0 6.08 2.27 11.42 2.27 5.35 6.76 9.91zm-30.38 185.77q5.3 0 12.03-2.08 6.74-2.08 11.66-7l50.15-48.93-42.23-42.23-50.54 48.54q-4.92 4.92-7.58 10.46-2.65 5.54-2.65 12.08 0 11.85 8.65 20.5 8.66 8.66 20.51 8.66"/></svg>