<svg xmlns="http://www.w3.org/2000/svg" fill="currentColor" viewBox="0 -960 960 960"><path d="M450-210h60v-120h120v-60H510v-120h-60v120H330v60h120zM252.31-100q-29.83 0-51.07-21.24T180-172.31v-375.38q0-29.83 21.24-51.07T252.31-620H300v-80q0-74.92 52.54-127.46T480-880t127.46 52.54T660-700v80h47.69q29.83 0 51.07 21.24T780-547.69v375.38q0 29.83-21.24 51.07T707.69-100zm0-60h455.38q5.39 0 8.85-3.46t3.46-8.85v-375.38q0-5.39-3.46-8.85t-8.85-3.46H252.31q-5.39 0-8.85 3.46t-3.46 8.85v375.38q0 5.39 3.46 8.85t8.85 3.46M360-620h240v-80q0-50-35-85t-85-35-85 35-35 85zM240-160v-400z"/></svg>