<svg xmlns="http://www.w3.org/2000/svg" fill="currentColor" viewBox="0 -960 960 960"><path d="M212.31-100Q182-100 161-121t-21-51.31v-535.38Q140-738 161-759t51.31-21h55.38v-84.61h61.54V-780h303.08v-84.61h60V-780h55.38Q778-780 799-759t21 51.31v233.84h-60v-73.84H200v375.38q0 4.62 3.85 8.46 3.84 3.85 8.46 3.85h273.46v60zM760-6.15q-68.38 0-120.38-42.04t-67.54-105.66h49.69q14.54 44.39 51.81 72.2 37.27 27.8 86.42 27.8 60.69 0 103.42-42.73T906.15-200t-42.73-103.42T760-346.15q-32.85 0-62.08 14.15T647-293.85h66.85v47.7h-147.7v-147.7h47.7v65.47q27.76-29.47 65.69-47.47 37.92-18 80.46-18 80.31 0 137.08 56.77T953.85-200 897.08-62.92 760-6.15M200-607.69h560v-100q0-4.62-3.85-8.46-3.84-3.85-8.46-3.85H212.31q-4.62 0-8.46 3.85-3.85 3.84-3.85 8.46zm0 0V-720z"/></svg>