<svg xmlns="http://www.w3.org/2000/svg" fill="currentColor" viewBox="0 -960 960 960"><path d="M480-715q-8 0-14-6t-6-14 6-14 14-6 14 6 6 14-6 14-14 6m80 0q-8 0-14-6t-6-14 6-14 14-6 14 6 6 14-6 14-14 6m-160 0q-8 0-14-6t-6-14 6-14 14-6 14 6 6 14-6 14-14 6m280 40q-8 0-14-6t-6-14 6-14 14-6 14 6 6 14-6 14-14 6m-320 0q-8 0-14-6t-6-14 6-14 14-6 14 6 6 14-6 14-14 6m-80 0q-8 0-14-6t-6-14 6-14 14-6 14 6 6 14-6 14-14 6m160 0q-8 0-14-6t-6-14 6-14 14-6 14 6 6 14-6 14-14 6m80 0q-8 0-14-6t-6-14 6-14 14-6 14 6 6 14-6 14-14 6m80 0q-8 0-14-6t-6-14 6-14 14-6 14 6 6 14-6 14-14 6m-120 40q-8 0-14-6t-6-14 6-14 14-6 14 6 6 14-6 14-14 6m80 0q-8 0-14-6t-6-14 6-14 14-6 14 6 6 14-6 14-14 6m80 0q-8 0-14-6t-6-14 6-14 14-6 14 6 6 14-6 14-14 6m-240 0q-8 0-14-6t-6-14 6-14 14-6 14 6 6 14-6 14-14 6m-80 0q-8 0-14-6t-6-14 6-14 14-6 14 6 6 14-6 14-14 6m40 40q-8 0-14-6t-6-14 6-14 14-6 14 6 6 14-6 14-14 6m-80 0q-8 0-14-6t-6-14 6-14 14-6 14 6 6 14-6 14-14 6m160 0q-8 0-14-6t-6-14 6-14 14-6 14 6 6 14-6 14-14 6m80 0q-8 0-14-6t-6-14 6-14 14-6 14 6 6 14-6 14-14 6m80 0q-8 0-14-6t-6-14 6-14 14-6 14 6 6 14-6 14-14 6m80 0q-8 0-14-6t-6-14 6-14 14-6 14 6 6 14-6 14-14 6m-480 0q-8 0-14-6t-6-14 6-14 14-6 14 6 6 14-6 14-14 6m40-40q-8 0-14-6t-6-14 6-14 14-6 14 6 6 14-6 14-14 6m80-80q-8 0-14-6t-6-14 6-14 14-6 14 6 6 14-6 14-14 6m40-40q-8 0-14-6t-6-14 6-14 14-6 14 6 6 14-6 14-14 6m80 0q-8 0-14-6t-6-14 6-14 14-6 14 6 6 14-6 14-14 6m80 0q-8 0-14-6t-6-14 6-14 14-6 14 6 6 14-6 14-14 6m80 0q-8 0-14-6t-6-14 6-14 14-6 14 6 6 14-6 14-14 6m40 40q-8 0-14-6t-6-14 6-14 14-6 14 6 6 14-6 14-14 6m80 80q-8 0-14-6t-6-14 6-14 14-6 14 6 6 14-6 14-14 6m40 40q-8 0-14-6t-6-14 6-14 14-6 14 6 6 14-6 14-14 6M360-390q-21 0-35.5-14.5T310-440t14.5-35.5T360-490t35.5 14.5T410-440t-14.5 35.5T360-390m240 0q-21 0-35.5-14.5T550-440t14.5-35.5T600-490t35.5 14.5T650-440t-14.5 35.5T600-390M480-100q-78.15 0-147.45-29.9-69.29-29.9-121.02-81.63T129.9-332.55Q100-401.85 100-479.83q0-78.94 29.96-148.28 29.96-69.35 81.58-120.85 51.61-51.5 121-81.27T479.88-860q78.89 0 148.23 29.77 69.35 29.77 120.85 81.27t81.27 120.82T860-480q0 77.99-29.77 147.42t-81.27 121.04q-51.5 51.62-120.82 81.58T480-100m0-60q134 0 227-93.5T800-480q0-134-93-227t-227-93q-133 0-226.5 93T160-480q0 133 93.5 226.5T480-160"/></svg>