<svg xmlns="http://www.w3.org/2000/svg" fill="currentColor" viewBox="0 -960 960 960"><path d="M480-60q-22.23 0-45.42-3.19-23.2-3.2-51.2-9.35-81.07 63.08-181.57 47.85T50.69-125.85q-41.92-69.77-26.3-149.57Q40-355.23 101-409.38q-.38-4.85-.38-10.74v-10.73q-59.7-51.61-75.08-131.07t23.77-147.69q36.23-61.85 101.42-89.73 65.19-27.89 134.89-12.89 25.07-58.15 77.5-92.96Q415.54-940 480-940t116.88 34.81q52.43 34.81 77.5 92.96 69.7-15 135.08 12.89 65.38 27.88 101.23 89.73 39.15 67.84 23.77 147.3t-75.08 131.46v10.73q0 5.89-.38 10.74 61 54.15 76.61 133.76 15.62 79.62-26.3 149.77-50.62 85.93-151.12 101.16T576.62-72.54q-28 6.15-51.2 9.35Q502.23-60 480-60m-170.46-41.54q-34.31-17.61-65.04-41.31-30.73-23.69-55.5-53.23t-43.27-63.58Q127.23-293.69 116-331q-30 37.92-33.85 85.35-3.84 47.42 20.23 88.57 30.93 51.85 91.7 68.5 60.77 16.66 115.46-12.96m340.92 0q54.69 29.62 115.46 12.96 60.77-16.65 91.7-68.5 24.07-41.15 20.23-88.57Q874-293.08 844-331q-10.85 37.31-29.54 71.34-18.69 34.04-43.46 63.58t-55 53.23q-30.23 23.7-65.54 41.31M480-120q134 0 227-93t93-227q0-31.31-5.46-60.31t-16.39-55.92q-27.87 19.63-61.51 30.43T645-515q-97.84 0-166.42-68.58T410-750v-2.31q-107.85 23.69-178.92 110.66Q160-554.69 160-440q0 134 93 227t227 93M360-350q-21 0-35.5-14.5T310-400t14.5-35.5T360-450t35.5 14.5T410-400t-14.5 35.5T360-350m240 0q-21 0-35.5-14.5T550-400t14.5-35.5T600-450t35.5 14.5T650-400t-14.5 35.5T600-350M109.77-520.54q7.46-36.07 21.46-69.27 14-33.19 34.16-62.5 20.15-29.3 45.34-55.04 25.19-25.73 55.04-45.73-48.38-8.84-93.54 10.23-45.15 19.08-70.61 62.62-22.31 37-19.5 80.65 2.8 43.66 27.65 79.04m740.46 0q25.23-35.38 27.85-79.04 2.61-43.65-19.7-80.65-25.46-43.54-70.61-62.81-45.16-19.27-93.54-10.04 29.85 20 55.04 45.73 25.19 25.74 45.34 55.04 20.16 29.31 34.16 62.5 14 33.2 21.46 69.27M645-575q31.31 0 57.65-9.19 26.35-9.19 48.12-25.58-20.62-34.31-49.81-61.54T637-718.69q-34.77-20.16-74.13-30.73Q523.51-760 480-760q-2.69 1.23-5 3.08-2.31 1.84-5 3.46v3.46q0 72.85 51.08 123.92Q572.15-575 645-575m-40.54-222.84q-16.54-36.77-49.96-59.47Q521.08-880 480-880t-74.12 22.5-48.03 58.5q28.3-10.31 59.22-15.65Q447.98-820 480-820q32.67 0 64.22 5.54t60.24 16.62M771-196.08"/></svg>