<svg xmlns="http://www.w3.org/2000/svg" fill="currentColor" viewBox="0 -960 960 960"><path d="M172.31-140Q142-140 121-161t-21-51.31v-535.38Q100-778 121-799t51.31-21h615.38Q818-820 839-799t21 51.31v535.38Q860-182 839-161t-51.31 21zm0-60h615.38q4.62 0 8.46-3.85 3.85-3.84 3.85-8.46v-535.38q0-4.62-3.85-8.46-3.84-3.85-8.46-3.85H172.31q-4.62 0-8.46 3.85-3.85 3.84-3.85 8.46v535.38q0 4.62 3.85 8.46 3.84 3.85 8.46 3.85M210-290h180v-60H210zm372-84.23L765.77-558 723-600.77l-141 142-57-57L483.23-473zM210-450h180v-60H210zm0-160h180v-60H210zm-50 410v-560z"/></svg>