<svg xmlns="http://www.w3.org/2000/svg" fill="currentColor" viewBox="0 -960 960 960"><path d="M720-723.85q-30.46 0-52.15-21.69-21.7-21.69-21.7-52.15t21.7-52.16q21.69-21.69 52.15-21.69t52.15 21.69q21.7 21.7 21.7 52.16t-21.7 52.15q-21.69 21.69-52.15 21.69M674.61-90v-315.39q0-37.48-18.19-67.47t-49.8-47.22l38.46-106.46q8-23.46 28.73-37.69T720-678.46t46.19 14.04 28.73 37.88L900-332.31H796.92V-90zM499.95-501.54q-23.41 0-39.76-16.39-16.34-16.39-16.34-39.81 0-23.41 16.39-39.76t39.81-16.35q23.41 0 39.76 16.4 16.34 16.39 16.34 39.8 0 23.42-16.39 39.77-16.39 16.34-39.81 16.34M220-723.85q-30.46 0-52.15-21.69-21.7-21.69-21.7-52.15t21.7-52.16q21.69-21.69 52.15-21.69t52.15 21.69q21.7 21.7 21.7 52.16t-21.7 52.15q-21.69 21.69-52.15 21.69M144.62-90v-271.54H81.54v-237.69q0-29.83 21.24-51.07t51.07-21.24h132.3q29.83 0 51.07 21.24t21.24 51.07v237.69h-63.08V-90zm300.77 0v-150h-40v-165.39q0-22.75 15.92-38.68Q437.24-460 460-460h80q22.76 0 38.69 15.93 15.92 15.93 15.92 38.68V-240h-40v150z"/></svg>