<svg xmlns="http://www.w3.org/2000/svg" fill="currentColor" viewBox="0 -960 960 960"><path d="M554.16-412.31q-29.31-49.61-85.95-67.11t-117.06-17.5q-60.23 0-117.34 17.5-57.12 17.5-85.66 67.11zm-485.31 60q0-98.23 86.77-151.42t195.53-53.19q108.77 0 195.54 53.19t86.77 151.42zm0 146.16v-60h564.61v60zM713.46-60v-60h56l56-552.31H454.23l-7.69-60h192.31v-160h59.99v160h192.31l-62.92 625.08q-2.62 20.77-18.15 34Q794.54-60 773.77-60zm0-60h56zm-612.3 60q-13.74 0-23.02-9.29-9.29-9.29-9.29-23.02V-120h564.61v27.69q0 13.73-9.29 23.02T601.15-60zm249.99-352.31"/></svg>