<svg xmlns="http://www.w3.org/2000/svg" fill="currentColor" viewBox="0 -960 960 960"><path d="M200-130q-45.83 0-77.92-32.08Q90-194.17 90-240v-280q0-45.83 32.08-77.92Q154.17-630 200-630q25.85 0 47.38 11 21.54 11 37.39 29H330v-193.08h380V-590h50q45.83 0 77.92 32.08Q870-525.83 870-480v310H284.77q-15.85 18-37.39 29-21.53 11-47.38 11m0-60q20.85 0 35.42-14.58Q250-219.15 250-240v-280q0-20.85-14.58-35.42Q220.85-570 200-570t-35.42 14.58Q150-540.85 150-520v280q0 20.85 14.58 35.42Q179.15-190 200-190m190-400h260v-133.08H390zm-80 360h500v-250q0-20.85-14.58-35.42Q780.85-530 760-530H310zm290-170q17 0 28.5-11.5T640-440t-11.5-28.5T600-480t-28.5 11.5T560-440t11.5 28.5T600-400m120 0q17 0 28.5-11.5T760-440t-11.5-28.5T720-480t-28.5 11.5T680-440t11.5 28.5T720-400M600-280q17 0 28.5-11.5T640-320t-11.5-28.5T600-360t-28.5 11.5T560-320t11.5 28.5T600-280m120 0q17 0 28.5-11.5T760-320t-11.5-28.5T720-360t-28.5 11.5T680-320t11.5 28.5T720-280m-360 0h160v-200H360zm-50 50v-300z"/></svg>