<svg xmlns="http://www.w3.org/2000/svg" fill="currentColor" viewBox="0 -960 960 960"><path d="M132.31-180Q102-180 81-201t-21-51.31v-455.38Q60-738 81-759t51.31-21h695.38Q858-780 879-759t21 51.31v455.38Q900-222 879-201t-51.31 21zm0-60h695.38q5.39 0 8.85-3.46t3.46-8.85v-455.38q0-5.39-3.46-8.85t-8.85-3.46H132.31q-5.39 0-8.85 3.46t-3.46 8.85v455.38q0 5.39 3.46 8.85t8.85 3.46m15.38-126.15h41.54v-150.01l105.08 150.01h41.07v-227.7h-41.53v150.01L190.77-593.85h-43.08zm238.46 0h147.7v-41.54h-100v-50.16h100v-41.53h-100v-52.93h100v-41.54h-147.7zm232.31 0h160q14.69 0 24.27-9.58t9.58-24.27v-193.85h-41.54v180h-50.92v-140h-41.54v140h-52.16v-180h-41.53V-400q0 14.69 9.57 24.27 9.58 9.58 24.27 9.58M120-240v-480z"/></svg>