<svg xmlns="http://www.w3.org/2000/svg" fill="currentColor" viewBox="0 -960 960 960"><path d="M480-380q-41.92 0-70.96-29.04T380-480t29.04-70.96T480-580t70.96 29.04T580-480t-29.04 70.96T480-380m0-60q17 0 28.5-11.5T520-480t-11.5-28.5T480-520t-28.5 11.5T440-480t11.5 28.5T480-440M212.31-140Q182-140 161-161t-21-51.31V-360h60v147.69q0 4.62 3.85 8.46 3.84 3.85 8.46 3.85H360v60zM600-140v-60h147.69q4.62 0 8.46-3.85 3.85-3.84 3.85-8.46V-360h60v147.69Q820-182 799-161t-51.31 21zM140-600v-147.69Q140-778 161-799t51.31-21H360v60H212.31q-4.62 0-8.46 3.85-3.85 3.84-3.85 8.46V-600zm620 0v-147.69q0-4.62-3.85-8.46-3.84-3.85-8.46-3.85H600v-60h147.69Q778-820 799-799t21 51.31V-600z"/></svg>