<svg xmlns="http://www.w3.org/2000/svg" fill="currentColor" viewBox="0 -960 960 960"><path d="M183.08-241.08q-33.77-43.07-54.66-93.61-20.88-50.54-27.65-105.31H162q6 43 22 82.5t42 73.5zM100.77-520q7.23-54.77 27.89-105.31 20.65-50.54 55.19-92.84L226-676q-26 34-42 73.5T162-520zM438-102q-54.77-6.39-104.81-27.35t-93.34-54.5L282-228q35 26 74 43t82 23zM284-732.77l-44.15-43.38q44.3-33.93 94.84-54.5Q385.23-851.23 440-858v60q-43 6-82.5 22.42-39.5 16.43-73.5 42.81M480-380q-41.92 0-70.96-29.04T380-480t29.04-70.96T480-580t70.96 29.04T580-480t-29.04 70.96T480-380m38 278v-60q43.62-6 83.5-22.12 39.88-16.11 74.5-43.11l44.15 43.38q-44.3 34.54-95.34 54.81T518-102m160-630q-35-26-75-43t-83-23v-60q54.77 6.39 105.61 27.16 50.85 20.76 94.54 54.69zm98.15 490.15L734-284q26-34 42-73.5t22-82.5h61.23q-7.23 54.77-27.89 105.31-20.65 50.54-55.19 92.84M798-520q-6-43-22-82.5T734-676l42.92-42.92q33.77 43.07 54.66 93.61 20.88 50.54 27.65 105.31z"/></svg>