<svg xmlns="http://www.w3.org/2000/svg" fill="currentColor" viewBox="0 -960 960 960"><path d="M260-180q-83.54 0-141.77-58.23T60-380q0-72.23 47.16-128.85 47.15-56.61 119.76-67.46 19.62-90.38 90.54-147.03Q388.39-780 480-780q109.77 0 184.88 76.15Q740-627.69 740-520v20h12.31q66.53 4.92 107.11 52.39Q900-400.15 900-341q0 66.92-46.54 113.96T740-180zm0-60h480q42 0 71-29t29-71-29-71-71-29h-60v-80q0-83-58.5-141.5T480-720q-66.46 0-118.73 39.69-52.27 39.7-70.66 102.54 70.31 11.46 119.85 65.81T460-380h-60q0-58-41-99t-99-41-99 41-41 99 41 99 99 41"/></svg>