<svg xmlns="http://www.w3.org/2000/svg" fill="currentColor" viewBox="0 -960 960 960"><path d="M172.31-100Q142-100 121-121t-21-51.31v-535.38Q100-738 121-759t51.31-21h160L480-927.69 627.69-780h160Q818-780 839-759t21 51.31v535.38Q860-142 839-121t-51.31 21zm0-60h615.38q4.62 0 8.46-3.85 3.85-3.84 3.85-8.46v-535.38q0-4.62-3.85-8.46-3.84-3.85-8.46-3.85H172.31q-4.62 0-8.46 3.85-3.85 3.84-3.85 8.46v535.38q0 4.62 3.85 8.46 3.84 3.85 8.46 3.85m75.38-87.69v-384.62h464.62v384.62zm60-60h344.62v-264.62H307.69zM480-440"/></svg>