<svg xmlns="http://www.w3.org/2000/svg" fill="currentColor" viewBox="0 -960 960 960"><path d="m603.85-160 60 60H252.31Q222-100 201-121t-21-51.31v-615.38Q180-818 201-839t51.31-21h338.46L780-633.08v460.77q0 14.62-6.77 27.46-6.77 12.85-18.31 21.92L554.61-322q-17 11.38-35.29 16.69T480-300q-57.75 0-98.87-41.13Q340-382.25 340-440t41.13-98.87Q422.25-580 480-580t98.87 41.13Q620-497.75 620-440q0 21.85-5.5 40.12-5.5 18.26-16.5 34.49l122 124.01V-612L562-800H252.31q-4.62 0-8.46 3.85-3.85 3.84-3.85 8.46v615.38q0 4.62 3.85 8.46 3.84 3.85 8.46 3.85zM480-360q33 0 56.5-23.5T560-440t-23.5-56.5T480-520t-56.5 23.5T400-440t23.5 56.5T480-360m0-90"/></svg>