<svg xmlns="http://www.w3.org/2000/svg" fill="currentColor" viewBox="0 -960 960 960"><path d="M279.91-135.39q-46.83 0-79.52-32.75-32.7-32.76-32.7-79.55h-35.38q-29.83 0-51.07-21.24T60-320v-200h440v-147.69q0-29.83 21.24-51.07T572.31-740H650v-30q0-15.36 10.39-25.76 10.4-10.39 25.76-10.39h27.7q15.36 0 25.76 10.39Q750-785.36 750-770v30h23.15q23.5 0 42.48 13.53t26.21 36.09l54.66 161.96q1.88 5.65 2.69 11.4t.81 11.94v257.39H792.31q0 46.79-32.79 79.55-32.78 32.75-79.61 32.75t-79.52-32.75q-32.7-32.76-32.7-79.55H392.31q0 46.92-32.79 79.61-32.78 32.69-79.61 32.69m.09-59.99q22 0 37.15-15.16 15.16-15.15 15.16-36.96t-15.16-37.16Q302-300 280-300t-37.15 15.34q-15.16 15.35-15.16 37.16t15.16 36.96Q258-195.38 280-195.38m400 0q22 0 37.15-15.16 15.16-15.15 15.16-36.96t-15.16-37.16Q702-300 680-300t-37.15 15.34q-15.16 15.35-15.16 37.16t15.16 36.96Q658-195.38 680-195.38M120-460v140q0 5.39 3.46 8.85t8.85 3.46h56q13.92-24 38.27-38.16Q250.92-360 280-360t53.42 14.15q24.35 14.16 38.27 38.16H500V-460zm440 152.31h28.31q13.92-24 38.27-38.16Q650.92-360 680-360t53.42 14.15q24.35 14.16 38.27 38.16H840V-460H560zM560-520h276l-50.92-151.54q-1.16-3.84-4.43-6.15t-7.5-2.31H572.31q-5.39 0-8.85 3.46t-3.46 8.85zM60-560v-47.69h40v-84.62H60V-740h387.69v47.69h-40v84.62h40V-560zm87.69-47.69H230v-84.62h-82.31zm130 0H360v-84.62h-82.31zM500-460H120zm60 0h280z"/></svg>