<svg xmlns="http://www.w3.org/2000/svg" fill="currentColor" viewBox="0 -960 960 960"><path d="M181.54-100v-60H260v-138.08h-48.46q-24.54 0-42.27-17.73t-17.73-42.27v-83.84q0-24.54 17.73-42.27t42.27-17.73H260V-640h-78.46v-60h87.85q19.61-69.61 77.46-114.81Q404.69-860 480-860t133.15 45.19Q671-769.61 690.61-700h87.85v60H700v138.08h48.46q24.54 0 42.27 17.73t17.73 42.27v83.84q0 24.54-17.73 42.27t-42.27 17.73H700V-160h78.46v60zm152.15-600h292.62q-16.77-44.08-56.16-72.04Q530.77-800 480-800t-90.15 27.96q-39.39 27.96-56.16 72.04M320-160h320v-198.08h108.46v-83.84H640V-640H320v198.08H211.54v83.84H320zm159.98-109.23q54.17 0 92.48-38.29 38.31-38.3 38.31-92.46 0-54.17-38.29-92.48-38.3-38.31-92.46-38.31-54.17 0-92.48 38.29-38.31 38.3-38.31 92.46 0 54.17 38.29 92.48 38.3 38.31 92.46 38.31m-.07-60q-29.53 0-50.1-20.67-20.58-20.67-20.58-50.19 0-29.53 20.67-50.1 20.67-20.58 50.19-20.58 29.53 0 50.1 20.67 20.58 20.67 20.58 50.19 0 29.53-20.67 50.1-20.67 20.58-50.19 20.58M480-640"/></svg>