<svg xmlns="http://www.w3.org/2000/svg" fill="currentColor" viewBox="0 -960 960 960"><path d="M800-600v-107.69q0-4.62-3.85-8.46-3.84-3.85-8.46-3.85H680v-60h107.69Q818-780 839-759t21 51.31V-600zm-700 0v-107.69Q100-738 121-759t51.31-21H280v60H172.31q-4.62 0-8.46 3.85-3.85 3.84-3.85 8.46V-600zm580 420v-60h107.69q4.62 0 8.46-3.85 3.85-3.84 3.85-8.46V-360h60v107.69Q860-222 839-201t-51.31 21zm-507.69 0Q142-180 121-201t-21-51.31V-360h60v107.69q0 4.62 3.85 8.46 3.84 3.85 8.46 3.85H280v60zm84.61-156.92v-286.16h446.16v286.16zm60-60h326.16v-166.16H316.92zm0 0v-166.16z"/></svg>