<svg xmlns="http://www.w3.org/2000/svg" fill="currentColor" viewBox="0 -960 960 960"><path d="M358.46-140H212.49q-30.1 0-51.3-21.24Q140-182.48 140-212.31v-535.38q0-29.83 21.24-51.07T212.31-820h146.15v60H212.31q-5.39 0-8.85 3.46t-3.46 8.85v535.38q0 5.39 3.46 8.85t8.85 3.46h146.15zM450-40v-872.31h60V-40zm151.54-100v-64.62h64.61V-140zm0-615.38V-820h64.61v64.62zM755.38-140v-64.62H820q0 26.85-18.98 45.73Q782.04-140 755.38-140m0-153.85v-64.61H820v64.61zm0-153.84v-64.62H820v64.62zm0-153.85v-64.61H820v64.61zm0-153.84V-820q26.66 0 45.64 18.98T820-755.38z"/></svg>