<svg xmlns="http://www.w3.org/2000/svg" fill="currentColor" viewBox="0 -960 960 960"><path d="M212.31-140q-29.83 0-51.07-21.24T140-212.31v-453.84h60v453.84q0 5.39 3.46 8.85t8.85 3.46h453.84v60zm146.15-218.46v64.61q-26.65 0-45.63-18.98t-18.98-45.63zm-64.61-89.23v-64.62h64.61v64.62zm0-153.85v-64.61h64.61v64.61zm64.61-153.84h-64.61q0-26.66 18.98-45.64T358.46-820zm89.23 461.53v-64.61h64.62v64.61zm0-461.53V-820h64.62v64.62zm153.85 0V-820h64.61v64.62zm0 461.53v-64.61h64.61v64.61zm153.84-461.53V-820q26.66 0 45.64 18.98T820-755.38zm0 396.92H820q0 26.65-18.98 45.63t-45.64 18.98zm0-89.23v-64.62H820v64.62zm0-153.85v-64.61H820v64.61z"/></svg>