<svg xmlns="http://www.w3.org/2000/svg" fill="currentColor" viewBox="0 -960 960 960"><path d="M366.15-293.85q-30.3 0-51.3-21t-21-51.3v-381.54q0-30.31 21-51.31t51.3-21h381.54Q778-820 799-799t21 51.31v381.54q0 30.3-21 51.3t-51.31 21zm0-60h381.54q4.62 0 8.46-3.84 3.85-3.85 3.85-8.46v-381.54q0-4.62-3.85-8.46-3.84-3.85-8.46-3.85H366.15q-4.61 0-8.46 3.85-3.84 3.84-3.84 8.46v381.54q0 4.61 3.84 8.46 3.85 3.84 8.46 3.84M204.62-204.62V-140q-26.85 0-45.73-18.89Q140-177.77 140-204.62zM140-293.85v-64.61h64.62v64.61zm0-153.84v-64.62h64.62v64.62zm0-153.85v-64.61h64.62v64.61zM293.85-140v-64.62h64.61V-140zm153.84 0v-64.62h64.62V-140zm153.85 0v-64.62h64.61V-140z"/></svg>