<svg xmlns="http://www.w3.org/2000/svg" fill="currentColor" viewBox="0 -960 960 960"><path d="M90-110.39v-60.38q35.69-3.08 53.04-20.96 17.35-17.89 70.96-17.89 55.54 0 74.31 20t58.69 20 58.69-20 74.31-20q53.92 0 74.81 20 20.88 20 59.19 20 39.92 0 58.69-20t74.31-20q53.61 0 70.46 17.89 16.85 17.88 52.54 20.96v60.38q-48-2.3-67-20.77-19-18.46-56-18.46-38.92 0-58.69 20t-74.31 20-74.81-20-59.19-20q-39.92 0-58.69 20t-74.31 20-74.31-20-58.69-20q-37 0-56 18.46-19 18.47-68 20.77M347-270q-53.54 0-74.12-20-20.57-20-58.88-20-35 0-55.81 18.46T90-270.77v-60.38q35.69-3.08 52.73-20.96Q159.77-370 213.38-370q11.77 0 22.39 2.42 10.62 2.43 26 10.35l-48-179.23-58.08 74.3-47.23-37.3 288.69-356.69 428.31 163.69-21.69 56.15-87.46-34.77L800-358.54q17.46 5.31 33.46 15.19 16 9.89 36.54 12.2v60q-47.38-2.93-67-20.89T747-310q-39.92 0-58.69 20T614-270q-53.92 0-74.81-20-20.88-20-59.19-20-39.92 0-58.69 20T347-270m0-60q31.92 0 49.19-14.19t50.5-22.19L407-512l155-41 58.69 222q32.54-2.38 50.54-19.08 18-16.69 63.08-19.3l-87.93-329.08L416.62-784 260.38-594.85l70.93 263.24q4 1 7.92 1.3 3.92.31 7.77.31m150.54-227"/></svg>