<svg xmlns="http://www.w3.org/2000/svg" fill="currentColor" viewBox="0 -960 960 960"><path d="M450-496.54h60v-213.84h-60zm30 139.23q13.73 0 23.02-9.29 9.29-9.28 9.29-23.01 0-13.74-9.29-23.02-9.29-9.29-23.02-9.29t-23.02 9.29q-9.29 9.28-9.29 23.02 0 13.73 9.29 23.01 9.29 9.29 23.02 9.29m0 177.85q117.38-105.08 179.65-201.58t62.27-169.04q0-109.38-69.5-179.84T480-800.38t-172.42 70.46-69.5 179.84q0 72.54 62.27 169.04T480-179.46m0 79.84Q329-230.46 253.54-343.15q-75.46-112.7-75.46-206.93 0-138.46 89.57-224.19Q357.23-860 480-860t212.35 85.73q89.57 85.73 89.57 224.19 0 94.23-75.46 206.93Q631-230.46 480-99.62m0-458.07"/></svg>