<svg xmlns="http://www.w3.org/2000/svg" fill="currentColor" viewBox="0 -960 960 960"><path d="M512.46-303.92 596-367.77l83.54 63.85-30.93-103.62 83.93-67.84H628.92L596-577l-32.92 101.62H459.46l83.93 67.84zM172.31-180Q142-180 121-201t-21-51.31v-455.38Q100-738 121-759t51.31-21h219.61l80 80h315.77Q818-700 839-679t21 51.31v375.38Q860-222 839-201t-51.31 21zm0-60h615.38q5.39 0 8.85-3.46t3.46-8.85v-375.38q0-5.39-3.46-8.85t-8.85-3.46H447.38l-80-80H172.31q-5.39 0-8.85 3.46t-3.46 8.85v455.38q0 5.39 3.46 8.85t8.85 3.46M160-240v-480z"/></svg>