<svg xmlns="http://www.w3.org/2000/svg" fill="currentColor" viewBox="0 -960 960 960"><path d="M672.31-100v-47.69h100V-190h-60v-47.69h60V-280h-100v-47.69h113.84q14.39 0 24.12 9.73t9.73 24.11v47.7q0 14.38-9.73 24.11t-24.12 9.73q14.39 0 24.12 9.73t9.73 24.12v44.61q0 14.39-9.73 24.12T786.15-100zm0-266.15V-470q0-14.38 9.73-24.12 9.73-9.73 24.11-9.73h66.16v-42.3h-100v-47.7h113.84q14.39 0 24.12 9.73Q820-574.38 820-560v70q0 14.38-9.73 24.12-9.73 9.73-24.12 9.73H720v42.3h100v47.7zm60-266.16v-180h-60V-860H780v227.69zM140-210v-60h447.69v60zm0-240v-60h447.69v60zm0-240v-60h447.69v60z"/></svg>