<svg xmlns="http://www.w3.org/2000/svg" fill="currentColor" viewBox="0 -960 960 960"><path d="M372.31-210v-60H820v60zm0-240v-60H820v60zm0-240v-60H820v60zM206.54-173.46q-27.45 0-46.99-19.55Q140-212.55 140-240t19.55-46.99q19.54-19.55 46.99-19.55t46.99 19.55q19.55 19.54 19.55 46.99t-19.55 46.99q-19.54 19.55-46.99 19.55m0-240q-27.45 0-46.99-19.55Q140-452.55 140-480t19.55-46.99q19.54-19.55 46.99-19.55t46.99 19.55q19.55 19.54 19.55 46.99t-19.55 46.99q-19.54 19.55-46.99 19.55m0-240q-27.45 0-46.99-19.55Q140-692.55 140-720t19.55-46.99q19.54-19.55 46.99-19.55t46.99 19.55q19.55 19.54 19.55 46.99t-19.55 46.99q-19.54 19.55-46.99 19.55"/></svg>