<svg xmlns="http://www.w3.org/2000/svg" fill="currentColor" viewBox="0 -960 960 960"><path d="m255.46-880.54 42.39-42.53L632-588.92q21.08 21.08 21.08 51.61 0 30.54-21.08 51.62L458.92-311.85q-20.69 20.7-51.23 20.7t-51.23-20.7L183.39-485.69q-21.08-21.08-21.08-51.62 0-30.53 21.08-51.61l181.92-181.77zm152.62 152.62L224.77-545.38q-1.92 1.92-2.5 4.04-.58 2.11-.58 4.42h372q0-2.31-.57-4.42-.58-2.12-2.5-4.04zm343.46 461.77q-29.16 0-49.58-20.43-20.42-20.42-20.42-49.57 0-19.46 10.96-40.19t23.65-39.04q8.23-11.23 17.08-22.69 8.85-11.47 18.31-22.7 9.46 11.23 18.31 22.7 8.84 11.46 17.07 22.69 12.69 18.31 23.66 39.04 10.96 20.73 10.96 40.19 0 29.15-20.43 49.57-20.42 20.43-49.57 20.43M80 0v-120h800V0z"/></svg>