<svg xmlns="http://www.w3.org/2000/svg" fill="currentColor" viewBox="0 -960 960 960"><path d="M240-167.69q-30.31 0-51.31-21t-21-51.31 21-51.31 51.31-21 51.31 21 21 51.31-21 51.31-51.31 21m320 0q-30.31 0-51.31-21t-21-51.31 21-51.31 51.31-21 51.31 21 21 51.31-21 51.31-51.31 21m-160-160q-30.31 0-51.31-21t-21-51.31 21-51.31 51.31-21 51.31 21 21 51.31-21 51.31-51.31 21m320 0q-30.31 0-51.31-21t-21-51.31 21-51.31 51.31-21 51.31 21 21 51.31-21 51.31-51.31 21m-480-160q-30.31 0-51.31-21t-21-51.31 21-51.31 51.31-21 51.31 21 21 51.31-21 51.31-51.31 21m320 0q-30.31 0-51.31-21t-21-51.31 21-51.31 51.31-21 51.31 21 21 51.31-21 51.31-51.31 21m-160-160q-30.31 0-51.31-21t-21-51.31 21-51.31 51.31-21 51.31 21 21 51.31-21 51.31-51.31 21m320 0q-30.31 0-51.31-21t-21-51.31 21-51.31 51.31-21 51.31 21 21 51.31-21 51.31-51.31 21"/></svg>