<svg xmlns="http://www.w3.org/2000/svg" fill="currentColor" viewBox="0 -960 960 960"><path d="M346.46-200v-146.46H200v134.15q0 5.39 3.46 8.85t8.85 3.46zm207.08 0v-121.54l-24.92-24.92H406.46V-200zM346.46-406.46v-122.16l-24.92-24.92H200v147.08zm413.54 0v-147.08H613.54v93.23l53.85 53.85zM553.54-613.54V-760H406.46v92.61l53.85 53.85zm206.46 0v-134.15q0-5.39-3.46-8.85t-8.85-3.46H613.54v146.46zm60 359.69L253.85-820h493.84Q778-820 799-799t21 51.31zM212.31-140Q182-140 161-161t-21-51.31V-820l680 680zm619.38 96.61L51.85-823.85 94-866 874.46-85.54z"/></svg>