<svg xmlns="http://www.w3.org/2000/svg" fill="currentColor" viewBox="0 -960 960 960"><path d="M290.62-286.92h58.3l40.77-112.77h180.62l40.77 112.77h58.3L510.77-713.08h-60zm116.46-162.16 71.69-196.61h4l70.15 196.61zM480.07-100q-78.84 0-148.21-29.92t-120.68-81.21-81.25-120.63Q100-401.1 100-479.93q0-78.84 29.92-148.21t81.21-120.68 120.63-81.25Q401.1-860 479.93-860q78.84 0 148.21 29.92t120.68 81.21 81.25 120.63Q860-558.9 860-480.07q0 78.84-29.92 148.21t-81.21 120.68-120.63 81.25Q558.9-100 480.07-100m-.07-60q133 0 226.5-93.5T800-480t-93.5-226.5T480-800t-226.5 93.5T160-480t93.5 226.5T480-160"/></svg>