<svg xmlns="http://www.w3.org/2000/svg" fill="currentColor" viewBox="0 -960 960 960"><path d="M480-72.31v-60h267.69q5.39 0 8.85-3.46t3.46-8.85V-180H618.46v-283.08H760V-520q0-116-82-198t-198-82-198 82-82 198v56.92h141.54V-180H212.31Q182-180 161-201t-21-51.31V-520q0-70.15 26.77-132t73.08-108.15q46.3-46.31 108.15-73.08T480-860t132 26.77 108.15 73.08q46.31 46.3 73.08 108.15T820-520v375.38q0 30.31-21 51.31t-51.31 21zM212.31-240h69.23v-163.08H200v150.77q0 5.39 3.46 8.85t8.85 3.46m466.15 0H760v-163.08h-81.54zM212.31-403.08H200h81.54zm466.15 0H760z"/></svg>