<svg xmlns="http://www.w3.org/2000/svg" fill="currentColor" viewBox="0 -960 960 960"><path d="M341.54-140H212.31Q182-140 161-161t-21-51.31V-480q0-70.77 26.77-132.61 26.77-61.85 72.77-107.85t107.85-72.77Q409.23-820 480-820t132.61 26.77q61.85 26.77 107.85 72.77t72.77 107.85Q820-550.77 820-480v267.69Q820-182 799-161t-51.31 21H618.46v-283.08H760V-480q0-117-81.5-198.5T480-760t-198.5 81.5T200-480v56.92h141.54zm-60-223.08H200v150.77q0 4.62 3.85 8.46 3.84 3.85 8.46 3.85h69.23zm396.92 0V-200h69.23q4.62 0 8.46-3.85 3.85-3.84 3.85-8.46v-150.77zm-396.92 0H200zm396.92 0H760z"/></svg>