<svg xmlns="http://www.w3.org/2000/svg" fill="currentColor" viewBox="0 -960 960 960"><path d="M480-281.69 324.61-126.31q-20.81 20.69-50.67 20.69t-50.55-20.69l-97.47-97.46q-20.69-20.81-20.69-50.68 0-29.86 20.69-50.55l155.77-155.77-154.61-154.62Q106.39-656.08 106-686q-.38-29.92 20.31-50.61l97.08-97.08q20.81-20.69 50.67-20.69t50.55 20.69l155.01 155 155-155q20.81-20.69 50.67-20.69t50.56 20.69l97.46 97.46Q854-715.42 854-685.55q0 29.86-20.69 50.55L677.92-479.62l155 155.01Q854-303.7 854-273.7q0 30.01-20.69 50.7l-95.93 95.92q-21.07 21.08-51.19 21.27-30.11.19-51.19-20.88zm.07-234.46q15.39 0 25.74-10.42 10.34-10.41 10.34-25.8 0-15.4-10.41-25.74-10.41-10.35-25.81-10.35-15.39 0-25.74 10.41-10.34 10.42-10.34 25.81t10.41 25.74 25.81 10.35m-156.61-6.39 114-114-155-155Q279-795 274-795t-8.46 3.46l-97.08 97.08Q165-691 165-686t3.46 8.46zm84.3 78.69q15.39 0 25.74-10.41t10.35-25.81q0-15.39-10.42-25.74-10.41-10.34-25.8-10.34-15.4 0-25.74 10.41-10.35 10.41-10.35 25.81 0 15.39 10.41 25.74 10.42 10.34 25.81 10.34m72.31 72.31q15.39 0 25.74-10.41 10.34-10.42 10.34-25.81t-10.41-25.74-25.81-10.35q-15.39 0-25.74 10.42-10.34 10.41-10.34 25.8 0 15.4 10.41 25.74 10.41 10.35 25.81 10.35m72.3-72.31q15.4 0 25.74-10.41 10.35-10.41 10.35-25.81 0-15.39-10.41-25.74-10.42-10.34-25.81-10.34t-25.74 10.41-10.35 25.81q0 15.39 10.42 25.74 10.41 10.34 25.8 10.34m-30.22 120 155.39 155.39Q681-165 686-165t8.46-3.46l97.08-97.08Q795-269 795-274t-3.46-8.46L636.15-437.85zm81.93-32.07"/></svg>