<svg xmlns="http://www.w3.org/2000/svg" fill="currentColor" viewBox="0 -960 960 960"><path d="m395.77-90-68-120h-132l-84.23-150 68-120-68-120 84.23-150h132l68-120h168.46l68 120h132l84.23 150-68 120 68 120-84.23 150h-132l-68 120zm236.46-420h97.54l49.77-90-49.77-90h-97.54l-50.77 90zm-200 120h95.54l50.77-90-50.77-90h-95.54l-50.77 90zm0-240h95.54l51.77-91-50.77-89h-97.54l-50.77 89zm-201 120h96.54l50.77-90-50.77-90h-96.54l-50.77 90zm0 240h96.54l50.77-90-50.77-90h-97.54l-49.77 90zm200 120h97.54l50.77-89-51.77-91h-95.54l-51.77 91zm201-120h96.54l50.77-90-50.77-90h-96.54l-50.77 90z"/></svg>