<svg xmlns="http://www.w3.org/2000/svg" fill="currentColor" viewBox="0 -960 960 960"><path d="M60-220v-560h60v380h330v-300h310q57.75 0 98.87 41.13Q900-617.75 900-560v340h-60v-120H120v120zm219.95-237.69q-42.64 0-72.45-29.86-29.81-29.85-29.81-72.5 0-42.64 29.86-72.45 29.85-29.81 72.5-29.81 42.64 0 72.45 29.86 29.81 29.85 29.81 72.5 0 42.64-29.86 72.45-29.85 29.81-72.5 29.81M510-400h330v-160q0-33-23.5-56.5T760-640H510zM280-517.69q17.77 0 30.04-12.27T322.31-560t-12.27-30.04T280-602.31t-30.04 12.27T237.69-560t12.27 30.04T280-517.69M510-640v240z"/></svg>