<svg xmlns="http://www.w3.org/2000/svg" fill="currentColor" viewBox="0 -960 960 960"><path d="M98.85-187.69v-88.93q0-31.84 16.04-55.65 16.03-23.81 42.57-37.27 51-26 107.69-42.07 56.7-16.08 133.7-16.08 30 0 55.8 2.42 25.81 2.42 48.2 7.27l-53.08 53.08q-11-2-23.81-2.39-12.81-.38-27.11-.38-71 0-124.43 15.84Q221-336 185-316q-13.62 7.31-19.88 17.08-6.27 9.77-6.27 22.3v28.93h242.3l60 60zM617-157.85 492.85-282 535-324.15l82 82 202-202L861.15-402zM398.85-492.31q-57.75 0-98.88-41.12-41.12-41.13-41.12-98.88t41.12-98.87q41.13-41.13 98.88-41.13t98.87 41.13q41.12 41.12 41.12 98.87t-41.12 98.88q-41.12 41.12-98.87 41.12m0-60q33 0 56.5-23.5t23.5-56.5-23.5-56.5-56.5-23.5-56.5 23.5-23.5 56.5 23.5 56.5 56.5 23.5m0-80"/></svg>