<svg xmlns="http://www.w3.org/2000/svg" fill="currentColor" viewBox="0 -960 960 960"><path d="M90-90v-60h160v-100H130v-580h340v170q0 30.22 18.23 54.84t48.08 32.78l105 29q47.78 13.12 78.24 52.96Q750-450.59 750-399.97V-250H630v100h90q53.85 0 90.39-33.08Q846.92-216.15 850-270h60q-3.08 78.77-57.15 129.38Q798.77-90 720-90zm100-220h500v-90.06q0-30.4-18.42-53.59-18.43-23.2-47.89-31.97l-105-30q-33.69-10.23-58.96-32.42t-38.11-54.27H340q-7.08 0-12.38-5.31-5.31-5.3-5.31-12.38t5.31-12.38q5.3-5.31 12.38-5.31h73.62q-2-11.62-2.5-21.35T410-682.31h-70q-7.08 0-12.38-5.31-5.31-5.3-5.31-12.38t5.31-12.38q5.3-5.31 12.38-5.31h70V-770H190zm120 160h260v-100H310zM190-310"/></svg>