<svg xmlns="http://www.w3.org/2000/svg" fill="currentColor" viewBox="0 -960 960 960"><path d="M270-290h423.07L578.15-443.23q-6.77-1.23-13.84-3.08-7.08-1.84-13.85-4.3L449.23-319.23l-80-102.31zm-57.69 150Q182-140 161-161t-21-51.31v-535.38Q140-778 161-799t51.31-21H400v60H212.31q-4.62 0-8.46 3.85-3.85 3.84-3.85 8.46v535.38q0 4.62 3.85 8.46 3.84 3.85 8.46 3.85h535.38q4.62 0 8.46-3.85 3.85-3.84 3.85-8.46v-203l60 60v143Q820-182 799-161t-51.31 21zm644.3-302.46L731.85-567.23q-20.62 14.38-42.12 20.81-21.5 6.42-46.96 6.42-66.31 0-112.54-46.54T484-700t46.54-113.46T644-860t113.46 46.54T804-700q0 25.46-7.62 48.73Q788.77-628 776-607.39l122.77 122.77zM644-600q42 0 71-29t29-71-29-71-71-29-71 29-29 71 29 71 71 29"/></svg>