<svg xmlns="http://www.w3.org/2000/svg" fill="currentColor" viewBox="0 -960 960 960"><path d="M132.31-180Q102-180 81-201t-21-51.31v-455.38Q60-738 81-759t51.31-21h695.38Q858-780 879-759t21 51.31v455.38Q900-222 879-201t-51.31 21zm0-60h695.38q5.39 0 8.85-3.46t3.46-8.85v-455.38q0-5.39-3.46-8.85t-8.85-3.46H132.31q-5.39 0-8.85 3.46t-3.46 8.85v455.38q0 5.39 3.46 8.85t8.85 3.46m200.77-50.39h293.84v-70.76H333.08zm-122.31-135h70.77v-70.76h-70.77zm155.77 0h70.77v-70.76h-70.77zm156.15 0h70.77v-70.76h-70.77zm155.77 0h70.77v-70.76h-70.77zM210.77-560.38h70.77v-70.77h-70.77zm155.77 0h70.77v-70.77h-70.77zm156.15 0h70.77v-70.77h-70.77zm153.85 1.92h70.77v-70.77h-70.77zM120-240v-480z"/></svg>