<svg xmlns="http://www.w3.org/2000/svg" fill="currentColor" viewBox="0 -960 960 960"><path d="M172.31-220Q142-220 121-241t-21-51.31v-375.38Q100-698 121-719t51.31-21h615.38Q818-740 839-719t21 51.31v375.38Q860-262 839-241t-51.31 21zm0-60h615.38q4.62 0 8.46-3.85 3.85-3.84 3.85-8.46v-375.38q0-4.62-3.85-8.46-3.84-3.85-8.46-3.85H172.31q-4.62 0-8.46 3.85-3.85 3.84-3.85 8.46v375.38q0 4.62 3.85 8.46 3.84 3.85 8.46 3.85m152.31-44.62h310.76v-70.76H324.62zm-120-120h70.76v-70.76h-70.76zm120 0h70.76v-70.76h-70.76zm120 0h70.76v-70.76h-70.76zm120 0h70.76v-70.76h-70.76zm120 0h70.76v-70.76h-70.76zm-480-120h70.76v-70.76h-70.76zm120 0h70.76v-70.76h-70.76zm120 0h70.76v-70.76h-70.76zm120 0h70.76v-70.76h-70.76zm120 0h70.76v-70.76h-70.76zM160-280v-400z"/></svg>