<svg xmlns="http://www.w3.org/2000/svg" fill="currentColor" viewBox="0 -960 960 960"><path d="M100-100h740L625.38-385l-199.23-82.31L310-620H100zm60-60v-74.39l80 26 354.08-117.69L720-160zm80-111.61-80-26.62v-92.31l80 26 153.77-50.85 119.46 52.62zm487.69-143.78 156.92-70v-130.76l-155-34.62-84.99 68.08v100.77zM240-427.77l-80-26.61V-560h120l73.85 94.54zm496.61-57.54-32-25v-44l40-32 80 18v44zm-254.3-161.61L660-718.08v-169.99l-175.77-35.39L380-853.84v138.46zm6.69-67.69-49-33v-74l57-38 103 21v80z"/></svg>