<svg xmlns="http://www.w3.org/2000/svg" fill="currentColor" viewBox="0 -960 960 960"><path d="M252.31-100q-29.92 0-51.12-21.19Q180-142.39 180-172.31v-615.38q0-29.92 21.19-51.12Q222.39-860 252.31-860h455.38q29.92 0 51.12 21.19Q780-817.61 780-787.69v615.38q0 29.92-21.19 51.12Q737.61-100 707.69-100zm0-60h455.38q4.62 0 8.46-3.85 3.85-3.84 3.85-8.46v-615.38q0-4.62-3.85-8.46-3.84-3.85-8.46-3.85H252.31q-4.62 0-8.46 3.85-3.85 3.84-3.85 8.46v615.38q0 4.62 3.85 8.46 3.84 3.85 8.46 3.85M480-215.39q76.46 0 130.54-54.07 54.07-54.08 54.07-130.54t-54.07-130.54Q556.46-584.61 480-584.61t-130.54 54.07Q295.39-476.46 295.39-400t54.07 130.54q54.08 54.07 130.54 54.07m0-52.61q-26 0-50.31-9.69T386.77-306L574-493.23q18.62 18.61 28.31 42.92T612-400q0 55-38.5 93.5T480-268M320-680q17 0 28.5-11.5T360-720t-11.5-28.5T320-760t-28.5 11.5T280-720t11.5 28.5T320-680m120 0q17 0 28.5-11.5T480-720t-11.5-28.5T440-760t-28.5 11.5T400-720t11.5 28.5T440-680M240-160v-640z"/></svg>