<svg xmlns="http://www.w3.org/2000/svg" fill="currentColor" viewBox="0 -960 960 960"><path d="M140-407.69v-60q72.85 0 136.81-27.73t112-75.77 75.77-112.19T492.31-820h60q0 85.23-32.39 160.42-32.38 75.2-88.34 131.16t-130.96 88.34q-75 32.39-160.62 32.39m0-160v-60q79.81 0 136.06-56.25T332.31-820h60q0 105.23-73.54 178.77T140-567.69m0-160V-820h92.31q0 38.46-26.93 65.38-26.92 26.93-65.38 26.93M407.69-140q0-85.62 32.39-160.62 32.38-75 88.34-130.96t131.06-88.34q75.1-32.39 160.52-32.39v60q-72.46 0-136.62 27.73-64.15 27.73-112.19 75.77t-75.77 112T467.69-140zm160 0q0-105.23 73.54-178.77T820-392.31v60q-79.81 0-136.06 56.25T627.69-140zm160 0q0-38.46 26.93-65.38 26.92-26.93 65.38-26.93V-140z"/></svg>