<svg xmlns="http://www.w3.org/2000/svg" fill="currentColor" viewBox="0 -960 960 960"><path d="M493.85-366.15q37.76 0 63.88-26.12 26.11-26.11 26.11-63.88v-224.62h114.62v-70.77h-150v226.16q-11.46-10.39-25.11-15.58-13.66-5.19-29.5-5.19-37.77 0-63.89 26.11-26.11 26.12-26.11 63.89t26.11 63.88q26.12 26.12 63.89 26.12M322.31-260Q292-260 271-281t-21-51.31v-455.38Q250-818 271-839t51.31-21h455.38Q808-860 829-839t21 51.31v455.38Q850-302 829-281t-51.31 21zm0-60h455.38q4.62 0 8.46-3.85 3.85-3.84 3.85-8.46v-455.38q0-4.62-3.85-8.46-3.84-3.85-8.46-3.85H322.31q-4.62 0-8.46 3.85-3.85 3.84-3.85 8.46v455.38q0 4.62 3.85 8.46 3.84 3.85 8.46 3.85m-140 200Q152-120 131-141t-21-51.31v-515.38h60v515.38q0 4.62 3.85 8.46 3.84 3.85 8.46 3.85h515.38v60zM310-800v480z"/></svg>