<svg xmlns="http://www.w3.org/2000/svg" fill="currentColor" viewBox="0 -960 960 960"><path d="M480-360q50 0 85-35t35-85-35-85-85-35-85 35-35 85 35 85 85 35m0 60q-74.92 0-127.46-52.54T300-480t52.54-127.46T480-660t127.46 52.54T660-480t-52.54 127.46T480-300M200-450H50v-60h150zm710 0H760v-60h150zM450-760v-150h60v150zm0 710v-150h60v150zM262.92-656.92l-93.69-90.46 42.39-44.39 90.23 92.69zm485.46 488.69-90.84-93.31 39.54-41.54 93.69 90.46zm-91.46-528.85 90.46-93.69 44.39 42.39-92.69 90.23zM168.23-211.62l93.31-90.84 40.77 39.54-90.08 94.07zM480-480"/></svg>