<svg xmlns="http://www.w3.org/2000/svg" fill="currentColor" viewBox="0 -960 960 960"><path d="M480-158.46q-58.69 0-100.11-41.43-41.43-41.42-41.43-100.11H200q-24.75 0-42.37-17.63Q140-335.25 140-360q0-132.69 89.31-230.15T450-698.77v-113.54h60v113.54q131.38 11.16 220.69 108.62T820-360q0 24.75-17.63 42.37Q784.75-300 760-300H621.54q0 58.69-41.43 100.11-41.42 41.43-100.11 41.43M200-360h560q0-116-82-198t-198-82-198 82-82 198m280.1 141.54q33.67 0 57.55-23.95 23.89-23.96 23.89-57.59H398.46q0 33.77 23.98 57.65 23.98 23.89 57.66 23.89M480-300"/></svg>