<svg xmlns="http://www.w3.org/2000/svg" fill="currentColor" viewBox="0 -960 960 960"><path d="M816-670.77q0-77.61-53.81-131.42T630.77-856v-44q95.38 0 162.31 66.92Q860-766.15 860-670.77zm-106 0q0-32.61-23.31-55.92T630.77-750v-44q51.15 0 86.57 35.73 35.43 35.73 36.66 87.5zM172.31-140Q142-140 121-161t-21-51.31v-455.38Q100-698 121-719t51.31-21h122.15l74-80h222.31v60H394.62l-73.39 80H172.31q-5.39 0-8.85 3.46t-3.46 8.85v455.38q0 5.39 3.46 8.85t8.85 3.46h615.38q5.39 0 8.85-3.46t3.46-8.85v-418.46h60v418.46Q860-182 839-161t-51.31 21zM480-275.39q68.85 0 116.73-47.88T644.61-440t-47.88-116.73T480-604.61t-116.73 47.88T315.39-440t47.88 116.73T480-275.39m0-59.99q-44.31 0-74.46-30.16-30.16-30.15-30.16-74.46t30.16-74.46q30.15-30.16 74.46-30.16t74.46 30.16q30.16 30.15 30.16 74.46t-30.16 74.46q-30.15 30.16-74.46 30.16"/></svg>