<svg xmlns="http://www.w3.org/2000/svg" fill="currentColor" viewBox="0 -960 960 960"><path d="M432.31-298.46H281.54q-75.34 0-128.44-53.1Q100-404.65 100-479.98t53.1-128.44q53.1-53.12 128.44-53.12h150.77v60H281.54q-50.39 0-85.96 35.58Q160-530.38 160-480t35.58 85.96q35.57 35.58 85.96 35.58h150.77zM330-450v-60h300v60zm197.69 151.54v-60h150.77q50.39 0 85.96-35.58Q800-429.62 800-480t-35.58-85.96q-35.57-35.58-85.96-35.58H527.69v-60h150.77q75.34 0 128.44 53.1Q860-555.35 860-480.02t-53.1 128.44q-53.1 53.12-128.44 53.12z"/></svg>