<svg xmlns="http://www.w3.org/2000/svg" fill="currentColor" viewBox="0 -960 960 960"><path d="M552.31-557.69q0-29.83-21.24-51.07T480-630q-8.08 0-15.35 1.42-7.26 1.43-14.11 5.27l95.07 95.08q3.85-6.85 5.27-14.12 1.43-7.27 1.43-15.34m163.38 199.54-43.77-43.77q24.62-42 37.31-79.08t12.69-69.16q0-109.3-69.5-179.76T480-800.38q-44.28 0-83.02 13.69Q358.23-773 326.85-747l-42.39-42.38q39.93-33.93 90.08-52.27Q424.69-860 480-860q122.77 0 212.35 85.73 89.57 85.73 89.57 224.08 0 44.27-16.46 91.88-16.46 47.62-49.77 100.16m-128.53 70.23L249.77-625.31q-5.46 17.39-8.58 36.16-3.11 18.76-3.11 39.07 0 72.54 62.27 169.04T480-179.46q30.62-26.85 57.35-54.16 26.73-27.3 49.81-54.3M831.69-43.39 628.92-246.16q-31.61 35.54-68.19 71.89T480-99.62Q329-230.46 253.54-343.15q-75.46-112.7-75.46-206.93 0-33.91 6.31-64.64 6.32-30.73 17.69-58.28L51.23-823.85 93.62-867 874.46-86.15zM499.38-574.46"/></svg>