<svg xmlns="http://www.w3.org/2000/svg" fill="currentColor" viewBox="0 -960 960 960"><path d="m767.84-297.54-43.38-43.38q17-30 26.27-65.73T760-478q0-116-82-198t-198-82q-36 0-71.15 9.27-35.16 9.27-65.16 26.27l-43.38-43.38q35-21 71.34-33.47Q408-811.77 450-816.77V-886h60v69.23q125 12.85 210.46 98.31T818.77-508H888v60h-69.23q-5 42-17.46 78.73-12.47 36.73-33.47 71.73M450-70v-69.23q-125-12.85-210.46-98.31T141.23-448H72v-60h69.23q5-46.61 20.54-87.96t39.62-76.35L86.77-786.92l42.15-42.16 702.16 702.16-44.16 42.15-112.61-114.62q-35 24.08-76.35 39.62T510-139.23V-70zm30-128q40.62 0 80.77-12.54t70.15-32.23L244.77-628.92q-19.69 30-32.23 69.57Q200-519.77 200-478q0 116 82 198t198 82"/></svg>