<svg xmlns="http://www.w3.org/2000/svg" fill="currentColor" viewBox="0 -960 960 960"><path d="M712.31-247.69q25 0 42.5-17.5t17.5-42.5-17.5-42.5-42.5-17.5-42.5 17.5-17.5 42.5 17.5 42.5 42.5 17.5m0 120q30 0 56-14t43-39q-23-14-48-20.5t-51-6.5-51 6.5-48 20.5q17 25 43 39t56 14M360-620h240v-80q0-50-35-85t-85-35-85 35-35 85zm138.46 520H252.31Q222-100 201-121t-21-51.31v-375.38Q180-578 201-599t51.31-21H300v-80q0-74.92 52.54-127.46T480-880t127.46 52.54T660-700v80h47.69Q738-620 759-599t21 51.31V-498q-13-4.46-27.89-6.69-14.88-2.23-32.11-2.23v-40.77q0-5.39-3.46-8.85t-8.85-3.46H252.31q-5.39 0-8.85 3.46t-3.46 8.85v375.38q0 5.39 3.46 8.85t8.85 3.46h216.61q5.7 17.85 12.16 31.31T498.46-100m213.85 32.31q-74.93 0-127.46-52.54-52.54-52.54-52.54-127.46 0-74.93 52.54-127.46 52.53-52.54 127.46-52.54 74.92 0 127.46 52.54 52.54 52.53 52.54 127.46 0 74.92-52.54 127.46T712.31-67.69M240-444.61V-160v-400z"/></svg>