<svg xmlns="http://www.w3.org/2000/svg" fill="currentColor" viewBox="0 -960 960 960"><path d="M111.54-128.47v-659.22q0-29.92 21.19-51.12Q153.93-860 183.85-860h415.38q29.92 0 51.12 21.19 21.19 21.2 21.19 51.12v13.54q-17.85 8.3-32.66 19.88-14.8 11.58-27.34 25.81v-59.23q0-5.39-3.46-8.85t-8.85-3.46H183.85q-5.39 0-8.85 3.46t-3.46 8.85v514.31L218.15-320h381.08q5.39 0 8.85-3.46t3.46-8.85v-139.23q12.54 14.23 27.34 25.81 14.81 11.58 32.66 19.88v93.54q0 29.92-21.19 51.12Q629.15-260 599.23-260H243.08zm150-281.53h140v-60h-140zm490.77-80q-45.77 0-77.89-32.12-32.11-32.11-32.11-77.88t32.11-77.88Q706.54-710 752.31-710q15.23 0 26.96 3.73t23.04 11.73V-910h140v60h-80v250q0 45.77-32.12 77.88Q798.08-490 752.31-490m-490.77-40h260v-60h-260zm0-120h260v-60h-260zm-90 330v-480z"/></svg>