<svg xmlns="http://www.w3.org/2000/svg" fill="currentColor" viewBox="0 -960 960 960"><path d="M172.31-180Q142-180 121-201t-21-51.31v-455.38Q100-738 121-759t51.31-21h615.38Q818-780 839-759t21 51.31V-576h-60v-86.31L480-457.69 160-662.31v410q0 5.39 3.46 8.85t8.85 3.46h460v60zM480-520l313.85-200h-627.7zM160-240v-480zm590 60q-15.85 0-26.77-10.92-10.92-10.93-10.92-26.77v-120q0-15.85 11.5-26.77 11.5-10.93 28.5-10.93v-42.3q0-32.23 22.73-54.97 22.73-22.73 54.96-22.73t54.96 22.73q22.73 22.74 22.73 54.97v42.3q17 0 28.5 10.93 11.5 10.92 11.5 26.77v120q0 15.84-10.92 26.77Q925.85-180 910-180zm37.69-195.39h84.62v-42.3q0-17.77-12.27-30.04T830-460t-30.04 12.27-12.27 30.04z"/></svg>