<svg xmlns="http://www.w3.org/2000/svg" fill="currentColor" viewBox="0 -960 960 960"><path d="M100-220.77v-60h391.15v60zm0-195.77v-60h189.23v60zm0-195.77v-60h189.23v60zM817.85-220 663.08-373.62q-22.85 16.62-49.81 25.31t-54.81 8.69q-75.18 0-128.16-52.53-52.99-52.54-52.99-127.66 0-75.11 53.01-127.65Q483.34-700 558.55-700q75.22 0 128.14 52.54T739.61-520q0 27.85-8.69 54.81t-25.69 49.42L860-262.15zM558.46-399.62q50.48 0 85.82-35t35.34-85.19T644.28-605t-85.82-35-85.82 35q-35.33 35-35.33 85.19t35.33 85.19q35.34 35 85.82 35"/></svg>