<svg xmlns="http://www.w3.org/2000/svg" fill="currentColor" viewBox="0 -960 960 960"><path d="m69.23-69.23 70.31-240.31q-19-40.61-29.27-83.24Q100-435.4 100-480q0-78.85 29.92-148.2t81.21-120.65 120.63-81.22Q401.1-860 479.93-860q78.84 0 148.21 29.92t120.68 81.21 81.25 120.63Q860-558.9 860-480.07q0 78.84-29.93 148.21-29.92 69.37-81.22 120.68T628.2-129.93Q558.85-100 480-100q-44.6 0-87.22-10.27-42.63-10.27-83.24-29.27zM158-158l128-38q14.77-4 28.5-3.38 13.73.61 27.5 7.38 32 16 67 24t71 8q134 0 227-93t93-227-93-227-227-93-227 93-93 227q0 36 8 71t24 67q7 13 7.69 27.5T196-286zm292-172h60v-120h120v-60H510v-120h-60v120H330v60h120zm29-149"/></svg>