<svg xmlns="http://www.w3.org/2000/svg" fill="currentColor" viewBox="0 -960 960 960"><path d="M100-118.46v-669.23Q100-818 121-839t51.31-21H574q-3.23 15-3.42 29.81t1.88 30.19H172.31q-4.62 0-8.46 3.85-3.85 3.84-3.85 8.46v523.08L216-320h571.69q4.62 0 8.46-3.85 3.85-3.84 3.85-8.46v-302.84q17.23-3.85 32.04-9.85 14.8-6 27.96-15.77v328.46Q860-302 839-281t-51.31 21H241.54zm60-669.23v495.38V-800zm600 76.92q-45.77 0-77.88-32.11Q650-775 650-820.77t32.12-77.88q32.11-32.12 77.88-32.12t77.88 32.12Q870-866.54 870-820.77t-32.12 77.89q-32.11 32.11-77.88 32.11"/></svg>