<svg xmlns="http://www.w3.org/2000/svg" fill="currentColor" viewBox="0 -960 960 960"><path d="M160-287.69q-24.92-3.08-42.46-22.35T100-355.38v-310.16q0-12.69 6.96-24.31 6.96-11.61 19.66-18.46L430-860l297.39 151.69q10.46 4.85 17.23 15.93 6.76 11.07 9.38 23.15h-81.23L430-792.31l-270 134zM287.69-140q-30.3 0-51.3-21t-21-51.31v-329.23q0-30.3 21-51.3t51.3-21h500q30.31 0 51.31 21t21 51.3v329.23Q860-182 839-161t-51.31 21zm250-218.31-262.31-134v280q0 5.39 3.47 8.85 3.46 3.46 8.84 3.46h500q5.39 0 8.85-3.46t3.46-8.85v-280zm0-61.54 257.69-131.69q-1.92-1.15-3.65-1.73t-4.04-.58h-500q-1.92 0-3.84.58-1.93.58-3.85 1.73zm262.31-134H275.38z"/></svg>