<svg xmlns="http://www.w3.org/2000/svg" fill="currentColor" viewBox="0 -960 960 960"><path d="M293.85-250h60v-80h80v-60h-80v-80h-60v80h-80v60h80zM520-383.85h230v-47.69H520zm0 107.69h150v-47.69H520zM172.31-100Q142-100 121-121t-21-51.31v-415.38Q100-618 121-639t51.31-21H380v-140q0-24.92 17.54-42.46T440-860h80q24.92 0 42.46 17.54T580-800v140h207.69Q818-660 839-639t21 51.31v415.38Q860-142 839-121t-51.31 21zm0-60h615.38q5.39 0 8.85-3.46t3.46-8.85v-415.38q0-5.39-3.46-8.85t-8.85-3.46H580v15.39q0 24.53-17.73 42.26T520-524.62h-80q-24.54 0-42.27-17.73T380-584.61V-600H172.31q-5.39 0-8.85 3.46t-3.46 8.85v415.38q0 5.39 3.46 8.85t8.85 3.46M440-584.61h80V-800h-80zM480-380"/></svg>