<svg xmlns="http://www.w3.org/2000/svg" fill="currentColor" viewBox="0 -960 960 960"><path d="M172.31-100Q142-100 121-121t-21-51.31v-455.38Q100-658 121-679t51.31-21H340v-67.69Q340-798 361-819t51.31-21h135.38Q578-840 599-819t21 51.31V-700h167.69Q818-700 839-679t21 51.31v455.38Q860-142 839-121t-51.31 21zm0-60h615.38q4.62 0 8.46-3.85 3.85-3.84 3.85-8.46v-455.38q0-4.62-3.85-8.46-3.84-3.85-8.46-3.85H172.31q-4.62 0-8.46 3.85-3.85 3.84-3.85 8.46v455.38q0 4.62 3.85 8.46 3.84 3.85 8.46 3.85M400-700h160v-67.69q0-4.62-3.85-8.46-3.84-3.85-8.46-3.85H412.31q-4.62 0-8.46 3.85-3.85 3.84-3.85 8.46zM160-160v-480zm290-210v120h60v-120h120v-60H510v-120h-60v120H330v60z"/></svg>