<svg xmlns="http://www.w3.org/2000/svg" fill="currentColor" viewBox="0 -960 960 960"><path d="M437.69-280h84.62v-100h100v-84.61h-100v-100h-84.62v100h-100V-380h100zM292.31-142.31q-29.83 0-51.07-21.24T220-214.62V-630q0-29.83 21.24-51.07t51.07-21.24h375.38q29.83 0 51.07 21.24T740-630v415.38q0 29.83-21.24 51.07t-51.07 21.24zm0-60h375.38q4.62 0 8.46-3.84Q680-210 680-214.62V-630q0-4.61-3.85-8.46-3.84-3.85-8.46-3.85H292.31q-4.62 0-8.46 3.85Q280-634.61 280-630v415.38q0 4.62 3.85 8.47 3.84 3.84 8.46 3.84m-43.08-555.38v-60h461.54v60zM280-642.31v440z"/></svg>