<svg xmlns="http://www.w3.org/2000/svg" fill="currentColor" viewBox="0 -960 960 960"><path d="M244-502.31 235.85-550q-15.46-4.62-29.04-11.85t-25.73-18.31L135-563.69l-30.77-51.08 37.93-32.31q-4.31-16.07-4.31-32.92t4.31-32.92l-37.93-32.31L135-796.31l46.08 16.47q12.15-11.08 25.73-18.31T235.85-810l8.15-47.69h60l8.15 47.69q15.46 4.62 29.04 11.85t25.73 18.31L413-796.31l30.77 51.08-37.93 32.31q4.31 16.07 4.31 32.92t-4.31 32.92l37.93 32.31L413-563.69l-46.08-16.47q-12.15 11.08-25.73 18.31T312.15-550L304-502.31zm30-94.61q34.54 0 58.81-24.27T357.08-680t-24.27-58.81T274-763.08t-58.81 24.27T190.92-680t24.27 58.81T274-596.92m334.16 517.3-12.62-63.23q-22-4.46-40.92-15.46-18.93-11-34.08-27.38l-59.61 20.61-40.23-68.31 48.61-41.38Q462.69-297 462.69-320t6.62-45.23l-48.61-41.38 40.23-68.31 59.61 20.61q15.15-16.38 34.08-27.38 18.92-11 40.92-15.46l12.62-63.23h79.68l12.62 63.23q22 4.46 40.92 15.46 18.93 11 34.08 27.38l59.61-20.61 40.23 68.31-48.61 41.38q6.62 22.23 6.62 45.23t-6.62 45.23l48.61 41.38-40.23 68.31-59.61-20.61q-15.15 16.38-34.08 27.38-18.92 11-40.92 15.46l-12.62 63.23zM648-200q50 0 85-35t35-85-35-85-85-35-85 35-35 85 35 85 85 35"/></svg>