<svg xmlns="http://www.w3.org/2000/svg" fill="currentColor" viewBox="0 -960 960 960"><path d="M826.92-49.92 41.85-835 84-877.15 869.08-92.08zM740-334.69l-60-60v-433q0-5.39-3.46-8.85t-8.85-3.46H220q3.08-25.31 22.54-42.65Q262-900 288.85-900h378.84q29.83 0 51.07 21.24T740-827.69v126.31q16.46 4.3 27.46 17.19 11 12.88 11 29.96v75.38q0 17.08-11 29.97-11 12.88-27.46 17.19zM480.8-713.85q15.05 0 25.2-10.18t10.15-25.23-10.18-25.2-25.23-10.15-25.2 10.18-10.15 25.23 10.18 25.2 25.23 10.15M292.31-60q-29.83 0-51.07-21.24T220-132.31v-608.84l60 60v548.84q0 5.39 3.46 8.85t8.85 3.46h375.77q5.38 0 8.65-3.46t3.27-8.85v-148.84l60 59.99v88.85q0 29.83-21.24 51.07T667.69-60zm259.46-459.54"/></svg>