<svg xmlns="http://www.w3.org/2000/svg" fill="currentColor" viewBox="0 -960 960 960"><path d="M370-160q133 0 226.5-93.5T690-480t-93.5-226.5T370-800h-21q-10 0-19 2 57 66 88.5 147.5T450-480t-31.5 170.5T330-162q9 2 19 2zm0 60q-42.28 0-82.56-9.46T210-138.62q84.54-58.23 132.27-148.11Q390-376.62 390-480t-47.73-193.27Q294.54-763.15 210-821.38q37.16-19.7 77.44-29.16T370-860q78.85 0 148.2 29.92t120.65 81.21 81.22 120.63Q750-558.9 750-480.07q0 78.84-29.93 148.21-29.92 69.37-81.22 120.68T518.2-129.93Q448.85-100 370-100m80-380"/></svg>