<svg xmlns="http://www.w3.org/2000/svg" fill="currentColor" viewBox="0 -960 960 960"><path d="M206.77-221Q170-266.69 150-322.15 130-377.62 130-440q0-146.15 101.92-248.08Q333.85-790 480-790h32.23l-74.38-74.38 41.77-41.77L625.77-760 479.62-613.85l-42.77-42.77L510.23-730H480q-120.23 0-205.12 84.88Q190-560.23 190-440q0 50.23 15.73 95.04t44.19 81.19zm238.62-5.15q-1.93-26.47-16.85-49.16t-32.39-45.65q-17.46-22.96-31.42-47.54t-13.96-53.81q0-53.38 37.92-91.3 37.93-37.93 91.31-37.93t91.31 37.93q37.92 37.92 37.92 91.3 0 29.23-13.96 53.62-13.96 24.38-31.42 47.54-17.47 23.15-32.39 45.84t-16.85 49.16zm.76 100v-52.31h67.7v52.31zM753.23-221l-43.15-42.77q28.46-36.38 44.19-81.19T770-440q0-65.23-26.15-121.54-26.16-56.31-72.23-95.84l42.76-42.77q53.77 48.46 84.7 115.11Q830-518.38 830-440q0 62.38-20 117.85-20 55.46-56.77 101.15"/></svg>