<svg xmlns="http://www.w3.org/2000/svg" fill="currentColor" viewBox="0 -960 960 960"><path d="M340.62-140q-84.08 0-142.35-58.27T140-340.62q0-35.3 12.04-68.61t34.5-60.38l141.23-169.85L237.69-820h484.62l-90.08 180.54 141.23 169.85q22.46 27.07 34.5 60.38T820-340.62q0 84.08-58.58 142.35Q702.85-140 619.38-140zM480-330.39q-29.92 0-51.11-21.19-21.2-21.19-21.2-51.11 0-29.93 21.2-51.12Q450.08-475 480-475t51.11 21.19q21.2 21.19 21.2 51.12 0 29.92-21.2 51.11-21.19 21.19-51.11 21.19M382.69-665h195L625-760H335zm-42.07 465h278.76q58.93 0 99.77-41.04Q760-282.08 760-340.62q0-24.77-8.5-48.03-8.5-23.27-24.27-42.04L582.15-605h-203.3l-145.7 173.69q-15.77 18.77-24.46 42.35-8.69 23.57-8.69 48.34 0 58.54 41.04 99.58T340.62-200"/></svg>