<svg xmlns="http://www.w3.org/2000/svg" fill="currentColor" viewBox="0 -960 960 960"><path d="M480-487.69q46.92 0 79.61-32.7 32.7-32.69 32.7-79.61t-32.7-79.61q-32.69-32.7-79.61-32.7t-79.61 32.7q-32.7 32.69-32.7 79.61t32.7 79.61q32.69 32.7 79.61 32.7M420-580q-8 0-14-6t-6-14 6-14 14-6 14 6 6 14-6 14-14 6m60 0q-8 0-14-6t-6-14 6-14 14-6 14 6 6 14-6 14-14 6m60 0q-8 0-14-6t-6-14 6-14 14-6 14 6 6 14-6 14-14 6M212.31-140Q182-140 161-161t-21-51.31v-535.38Q140-778 161-799t51.31-21h535.38Q778-820 799-799t21 51.31v535.38Q820-182 799-161t-51.31 21zm0-60h535.38q4.62 0 8.46-3.85 3.85-3.84 3.85-8.46v-535.38q0-4.62-3.85-8.46-3.84-3.85-8.46-3.85H212.31q-4.62 0-8.46 3.85-3.85 3.84-3.85 8.46v535.38q0 4.62 3.85 8.46 3.84 3.85 8.46 3.85M200-760v560z"/></svg>