<svg xmlns="http://www.w3.org/2000/svg" fill="currentColor" viewBox="0 -960 960 960"><path d="M480-275.39q68.85 0 116.73-47.88T644.61-440t-47.88-116.73T480-604.61t-116.73 47.88T315.39-440t47.88 116.73T480-275.39m0-59.99q-44.31 0-74.46-30.16-30.16-30.15-30.16-74.46t30.16-74.46q30.15-30.16 74.46-30.16t74.46 30.16q30.16 30.15 30.16 74.46t-30.16 74.46q-30.15 30.16-74.46 30.16M172.31-140Q142-140 121-161t-21-51.31v-455.38Q100-698 121-719t51.31-21h122.15l74-80h223.08l74 80h122.15Q818-740 839-719t21 51.31v455.38Q860-182 839-161t-51.31 21zM480-200h307.69q5.39 0 8.85-3.46t3.46-8.85v-455.38q0-5.39-3.46-8.85t-8.85-3.46H638.77l-73.39-80H480z"/></svg>