<svg xmlns="http://www.w3.org/2000/svg" fill="currentColor" viewBox="0 -960 960 960"><path d="M616.24-527.69q21.84 0 37.03-15.29 15.19-15.28 15.19-37.11t-15.28-37.02q-15.28-15.2-37.12-15.2-21.83 0-37.02 15.29-15.19 15.28-15.19 37.11t15.28 37.02q15.28 15.2 37.11 15.2m-272.3 0q21.83 0 37.02-15.29 15.19-15.28 15.19-37.11t-15.28-37.02q-15.28-15.2-37.11-15.2-21.84 0-37.03 15.29-15.19 15.28-15.19 37.11t15.28 37.02q15.28 15.2 37.12 15.2M480-420q-62.61 0-114.46 35.04t-76.46 92.65h381.84q-24.61-57.61-76.46-92.65T480-420m.07 320q-78.84 0-148.21-29.92t-120.68-81.21-81.25-120.63Q100-401.1 100-479.93q0-78.84 29.92-148.21t81.21-120.68 120.63-81.25Q401.1-860 479.93-860q78.84 0 148.21 29.92t120.68 81.21 81.25 120.63Q860-558.9 860-480.07q0 78.84-29.92 148.21t-81.21 120.68-120.63 81.25Q558.9-100 480.07-100m-.07-60q134 0 227-93t93-227-93-227-227-93-227 93-93 227 93 227 227 93"/></svg>