<svg xmlns="http://www.w3.org/2000/svg" fill="currentColor" viewBox="0 -960 960 960"><path d="M480-189.23q-24.75 0-42.37-17.63Q420-224.48 420-249.23t17.63-42.38q17.62-17.62 42.37-17.62t42.37 17.62Q540-273.98 540-249.23t-17.63 42.37q-17.62 17.63-42.37 17.63M480-420q-24.75 0-42.37-17.63Q420-455.25 420-480t17.63-42.37Q455.25-540 480-540t42.37 17.63Q540-504.75 540-480t-17.63 42.37Q504.75-420 480-420m0-230.77q-24.75 0-42.37-17.62Q420-686.02 420-710.77t17.63-42.37q17.62-17.63 42.37-17.63t42.37 17.63Q540-735.52 540-710.77t-17.63 42.38q-17.62 17.62-42.37 17.62"/></svg>