<svg xmlns="http://www.w3.org/2000/svg" fill="currentColor" viewBox="0 -960 960 960"><path d="M440.05-140q-70.82 0-132.69-26.44-61.88-26.44-108.17-72.71t-72.74-108.12T100-479.95q0-70.82 26.45-132.69 26.44-61.88 72.72-108.17t108.14-72.74T440-820q21 0 40.5 2.5T520-810v62q-20-6-39.5-9t-40.5-3q-117.23 0-198.62 81.38Q160-597.23 160-480t81.38 198.62Q322.77-200 440-200t198.62-81.38Q720-362.77 720-480.07q0-10.93-1-21.08-1-10.16-3.38-21.16h61.22q2 10.23 2.58 20.77T780-480q0 70.83-26.44 132.69t-72.71 108.14-108.12 72.72Q510.88-140 440.05-140m118.87-178.92L410-467.85V-680h60v187.85l131.08 131.07zM720-602.31v-120H600v-60h120v-120h60v120h120v60H780v120z"/></svg>