<svg xmlns="http://www.w3.org/2000/svg" fill="currentColor" viewBox="0 -960 960 960"><path d="M212.31-140Q182-140 161-161t-21-51.31v-535.38Q140-778 161-799t51.31-21h535.38Q778-820 799-799t21 51.31v535.38Q820-182 799-161t-51.31 21zm0-60h535.38q5.39 0 8.85-3.46t3.46-8.85v-115.38H628.46q-26.15 38-64.96 59t-83.5 21-83.5-21-64.96-59H200v115.38q0 5.39 3.46 8.85t8.85 3.46M480-307.69q38 0 69-22t43-58h168v-360q0-5.39-3.46-8.85t-8.85-3.46H212.31q-5.39 0-8.85 3.46t-3.46 8.85v360h168q12 36 43 58t69 22m0-106.16L333.85-560 376-603.38l74 74v-176.77h60v176.77l74-74L626.15-560zM212.31-200H200h560z"/></svg>