<svg xmlns="http://www.w3.org/2000/svg" fill="currentColor" viewBox="0 -960 960 960"><path d="M286.15-180 140-326.15l146.15-146.16 42.77 42.16-74 74h209.31v59.99H254.92l73.39 74.01zm290.03-114.23q-13.56 0-22.76-9.17-9.19-9.18-9.19-22.73 0-13.56 9.17-22.75 9.18-9.2 22.73-9.2 13.56 0 22.76 9.18 9.19 9.17 9.19 22.73 0 13.55-9.17 22.75-9.18 9.19-22.73 9.19m143.84 0q-13.56 0-22.75-9.17-9.19-9.18-9.19-22.73 0-13.56 9.17-22.75 9.17-9.2 22.73-9.2t22.75 9.18q9.19 9.17 9.19 22.73 0 13.55-9.17 22.75-9.17 9.19-22.73 9.19m-46.17-193.46-42.77-41.77 74.38-74.39H495.77v-59.99h209.31l-73.39-74.01L673.85-780 820-633.85zM240.02-601.92q-13.56 0-22.75-9.18-9.19-9.17-9.19-22.73 0-13.55 9.17-22.75 9.17-9.19 22.73-9.19t22.75 9.17q9.19 9.18 9.19 22.73 0 13.56-9.17 22.75-9.17 9.2-22.73 9.2m143.85 0q-13.56 0-22.76-9.18-9.19-9.17-9.19-22.73 0-13.55 9.17-22.75 9.18-9.19 22.73-9.19 13.56 0 22.76 9.17 9.19 9.18 9.19 22.73 0 13.56-9.17 22.75-9.18 9.2-22.73 9.2"/></svg>