<svg xmlns="http://www.w3.org/2000/svg" fill="currentColor" viewBox="0 -960 960 960"><path d="M427.31-288.85q37.77 0 64.07-26.3 26.31-26.31 26.31-64.08V-600H630v-70.77H482.31v220q-11.46-8.61-25.31-13.73-13.85-5.11-29.69-5.11-37.77 0-64.08 26.3-26.31 26.31-26.31 64.08t26.31 64.08q26.31 26.3 64.08 26.3M172.31-180Q142-180 121-201t-21-51.31v-455.38Q100-738 121-759t51.31-21h615.38Q818-780 839-759t21 51.31v455.38Q860-222 839-201t-51.31 21zm0-60h615.38q4.62 0 8.46-3.85 3.85-3.84 3.85-8.46v-455.38q0-4.62-3.85-8.46-3.84-3.85-8.46-3.85H172.31q-4.62 0-8.46 3.85-3.85 3.84-3.85 8.46v455.38q0 4.62 3.85 8.46 3.84 3.85 8.46 3.85M160-240v-480z"/></svg>