<svg xmlns="http://www.w3.org/2000/svg" fill="currentColor" viewBox="0 -960 960 960"><path d="M450-72v-69.23q-125-12.85-210.46-98.31T141.23-450H72v-60h69.23q12.85-125 98.31-210.46T450-818.77V-888h60v69.23q125 12.85 210.46 98.31T818.77-510H888v60h-69.23q-12.85 125-98.31 210.46T510-141.23V-72zm30-128q116 0 198-82t82-198-82-198-198-82-198 82-82 198 82 198 198 82m0-140q-57.75 0-98.87-41.13Q340-422.25 340-480t41.13-98.87Q422.25-620 480-620t98.87 41.13Q620-537.75 620-480t-41.13 98.87Q537.75-340 480-340m0-60q33 0 56.5-23.5T560-480t-23.5-56.5T480-560t-56.5 23.5T400-480t23.5 56.5T480-400m0-80"/></svg>