<svg xmlns="http://www.w3.org/2000/svg" fill="currentColor" viewBox="0 -960 960 960"><path d="M220-97.69v-60h230v-174.62h-90q-74.92 0-127.46-52.54Q180-437.38 180-512.31q0-56.54 33.77-102.23t86.69-67.92q8.62-76.92 58.77-123.38 50.16-46.47 120.77-46.47t120.77 46.47q50.15 46.46 58.77 123.38 53.3 21.46 86.88 67.54Q780-568.85 780-512.31q0 74.93-52.54 127.46-52.54 52.54-127.46 52.54h-90v174.62h230v60zm140-294.62h240q50 0 85-35t35-85q0-38.69-23.77-69.27-23.77-30.57-60.23-45.34l-32-13.39-4.46-36q-6.39-53.84-39.31-84.92T480-792.31t-80.23 31.08-39.31 84.92l-4.46 36-35.08 14.93Q286-610.61 263-580.42t-23 68.11q0 50 35 85t85 35m120-200"/></svg>