<svg xmlns="http://www.w3.org/2000/svg" fill="currentColor" viewBox="0 -960 960 960"><path d="M570-100q-78.15 0-147.44-29.9-69.3-29.9-121.03-81.63T219.9-332.55Q190-401.85 190-479.88q0-78.98 29.96-147.97 29.97-69 81.58-120.61 51.62-51.62 121.04-81.58Q492.01-860 570-860q43.23 0 83.65 9.77 40.43 9.77 76.35 28.85-82.16 56.46-131.08 145.23T550-480t48.92 196.15T730-138.62q-35.92 19.08-76.35 28.85Q613.23-100 570-100m0-60h21q10 0 19-2-57-66-88.5-147.5T490-480t31.5-170.5T610-798q-9-2-19-2h-21q-133 0-226.5 93.5T250-480t93.5 226.5T570-160m-80-320"/></svg>