<svg xmlns="http://www.w3.org/2000/svg" fill="currentColor" viewBox="0 -960 960 960"><path d="m780-288-60-60v-439.69q0-4.62-3.85-8.46-3.84-3.85-8.46-3.85H434l-83.08 83.08-43.38-42.16L408.46-860h299.23Q738-860 759-839t21 51.31zm38.46 236.15L251.54-618.77 240-607.23v434.92q0 4.62 3.85 8.46 3.84 3.85 8.46 3.85h455.38q4.62 0 8.46-3.85 3.85-3.84 3.85-8.46v-62.92l60 60v2.92Q780-142 759-121t-51.31 21H252.31Q222-100 201-121t-21-51.31v-459.23l29.39-29.38L54.93-815.38l42.76-42.16L860.61-94.62zM478.69-391.77"/></svg>