<svg xmlns="http://www.w3.org/2000/svg" fill="currentColor" viewBox="0 -960 960 960"><path d="M444.62-858.38q8.84-1 17.69-1.31 8.84-.31 17.69-.31 9.85 0 18.38.31 8.54.31 17.77 1.31l-.77 60Q506.54-800 498-800h-35.62q-8.15 0-16.61 1.62zm-159.93 52.15q15.46-9.85 31.04-16.88 15.58-7.04 32.66-13.27l25.38 54.3q-17.31 5.62-32.69 12.77-15.39 7.16-30.08 16.62zm365.08 53.92q-14.69-9.46-30.08-16.81-15.38-7.34-32.69-12.96l25.38-54.3q17.08 6.23 32.85 13.46t30.85 17.08zm100.54 99.46q-9.85-14.69-21.12-28.07-11.27-13.39-23.34-25.85l46.46-38.46q12.46 12.85 24.11 26.81 11.66 13.96 21.5 29.04zm-588.85-35.3q9.85-15.08 21-28.85 11.16-13.77 23.62-26.61l46.46 38.07q-12.08 12.46-22.85 26.04t-20.61 28.27zm-58.07 156.53q2-17.69 6.23-35.26 4.23-17.58 9.84-34.66l59 14.54q-5.84 16.69-9.96 33.5t-6.12 34.5zm694.84 15.23q-2-17.69-5.92-34.8-3.93-17.12-9.77-33.81l58.38-14.15q5.62 17.07 9.85 34.46 4.23 17.38 6.23 35.07zm-15.69 141.77q5.84-16.69 9.46-33.19t5.62-34.19l58.99 12.62q-2 17.69-6.23 35.07-4.23 17.39-9.84 34.46zM162.38-441q2 17.69 6.12 34.5t9.96 33.5l-59 14.54q-5.61-17.08-9.84-34.66-4.23-17.57-6.23-35.26zm546.08 185.15q12.08-12.46 22.54-26.03 10.46-13.58 20.31-28.27l48.23 36.92q-9.85 15.08-20.81 28.84-10.96 13.77-23.42 26.62zm-501.38 40.46q-12.46-12.84-23.81-27.11t-21.19-29.35l47.38-36.53q9.85 14.69 20.62 28.57 10.77 13.89 22.84 26.35zM588-178.92q17.31-6.23 32.38-13.27 15.08-7.04 29.77-16.5l26.93 53.53q-15.08 9.85-30.85 17.39T613.38-124zm-239 56.3q-17.08-6.23-32.96-13.77-15.89-7.53-31.35-17.38l26.93-53.54q14.69 9.46 30.07 16.81 15.39 7.35 32.69 12.96zM480-100q-8.85 0-17.69-.31-8.85-.31-17.69-1.31l1.15-60Q456.85-160 480-160h18q8.54 0 17.38-1.62l.77 60q-9.23 1-17.77 1.31-8.53.31-18.38.31m40-150q-34.92 0-63.73-21.08-28.81-21.07-40.65-54.38-3.39-10.16-7.66-19.62t-12.04-17.23l-54.61-54.61q-24.85-24.85-38.08-56.43Q290-504.92 290-540q0-71.15 49.62-120.58Q389.23-710 460-710q65.15 0 113.08 42.62 47.92 42.61 55.92 107h-60.61q-7.39-39.24-37.77-64.43Q500.23-650 460-650q-45.85 0-77.92 31.88Q350-586.23 350-540q0 22.31 8.77 43.35t25.31 37.57l54 54q12.84 12.85 20.96 28.58 8.11 15.73 13.73 31.96 5.77 15.69 18.46 25.12Q503.92-310 520-310q21.23 0 35.62-14.58Q570-339.15 570-360h60q0 45.38-31.81 77.69T520-250m20-160q-20.77 0-35.38-14.62Q490-439.23 490-460q0-21.38 14.62-35.69Q519.23-510 540-510q21.38 0 35.69 14.31T590-460q0 20.77-14.31 35.38Q561.38-410 540-410"/></svg>