<svg xmlns="http://www.w3.org/2000/svg" fill="currentColor" viewBox="0 -960 960 960"><path d="m168.85-50 75.77-343.85h48.3L217.15-50zm124.23 0 112-570.92L310-582.54V-450h-60v-171.85l192.38-81q28.24-11.61 54.77-4.03 26.54 7.57 42.39 32.27L579.15-611q26 42 70.31 69.77T750-510.77v60q-64.08-1.92-120.23-32.69-56.16-30.77-94.77-83.85l-29.77 150.39L590-335.77V-50h-60v-233.46l-100.15-95.77L355.54-50zM540-746.15q-30.31 0-52.08-21.77T466.15-820t21.77-52.08T540-893.85t52.08 21.77T613.85-820t-21.77 52.08T540-746.15M706.15-50v-343.85h47.7V-50z"/></svg>