<svg xmlns="http://www.w3.org/2000/svg" fill="currentColor" viewBox="0 -960 960 960"><path d="M450-443.85h60V-640h-60zm30 116.16q13.73 0 23.02-9.29t9.29-23.02-9.29-23.02-23.02-9.29-23.02 9.29-9.29 23.02 9.29 23.02 23.02 9.29M180-204.62v-59.99h72.31v-298.47q0-80.69 49.81-142.69 49.8-62 127.88-79.31V-810q0-20.83 14.57-35.42Q459.14-860 479.95-860q20.82 0 35.43 14.58Q530-830.83 530-810v24.92q78.08 17.31 127.88 79.31 49.81 62 49.81 142.69v298.47H780v59.99zM479.93-92.31q-29.85 0-51.04-21.24-21.2-21.24-21.2-51.07h144.62q0 29.93-21.26 51.12t-51.12 21.19m-167.62-172.3h335.38v-298.47q0-69.46-49.11-118.57-49.12-49.12-118.58-49.12t-118.58 49.12q-49.11 49.11-49.11 118.57z"/></svg>