<svg xmlns="http://www.w3.org/2000/svg" fill="currentColor" viewBox="0 -960 960 960"><path d="M211.62-211.23q-53.23-54-82.23-122t-29-146.77 29-146.77 82.23-122l34.15 34.16q-47 47-72.35 106.84-25.34 59.85-25.34 127.77t25.34 127.77q25.35 59.84 72.35 106.84zm81.53-81.54q-36.84-38-57.11-84.96T215.77-480t20.27-102.27 57.11-84.96l33.54 33.54q-29.61 30-46.42 68.84Q263.46-526 263.46-480t16.81 84.85q16.81 38.84 46.42 68.84zm152.24-13.38q-1.93-26.47-16.85-49.16t-32.39-45.65q-17.46-22.96-31.42-47.54t-13.96-53.81q0-53.38 37.92-91.3 37.93-37.93 91.31-37.93t91.31 37.93q37.92 37.92 37.92 91.3 0 29.23-13.96 53.62-13.96 24.38-31.42 47.54-17.47 23.15-32.39 45.84t-16.85 49.16zm.76 100v-52.31h67.7v52.31zm221.46-86.62-33.53-33.54q29.61-30 46.42-68.84Q697.31-434 697.31-480t-16.81-84.85q-16.81-38.84-46.42-68.84l33.53-33.54q36.85 38 57.12 84.96T745-480t-20.27 102.27-57.12 84.96m81.54 81.54L715-245.39q47-47 72.35-106.84 25.34-59.85 25.34-127.77t-25.34-127.77Q762-667.61 715-714.61l34.15-34.16q52.85 54 82.04 122T860.38-480t-29.19 146.77-82.04 122"/></svg>