<svg xmlns="http://www.w3.org/2000/svg" fill="currentColor" viewBox="0 -960 960 960"><path d="M360.01-482.31q12.76 0 21.37-8.62 8.62-8.63 8.62-21.38v-120q0-12.75-8.63-21.37-8.63-8.63-21.38-8.63-12.76 0-21.37 8.63-8.62 8.62-8.62 21.37v120q0 12.75 8.63 21.38 8.63 8.62 21.38 8.62M410-257.69h140v-70q0-29.16-20.42-49.58-20.43-20.42-49.58-20.42t-49.58 20.42Q410-356.85 410-327.69zm190.01-224.62q12.76 0 21.37-8.62 8.62-8.63 8.62-21.38v-120q0-12.75-8.63-21.37-8.63-8.63-21.38-8.63-12.76 0-21.37 8.63-8.62 8.62-8.62 21.37v120q0 12.75 8.63 21.38 8.63 8.62 21.38 8.62M480.07-100q-78.84 0-148.21-29.92t-120.68-81.21-81.25-120.63Q100-401.1 100-479.93q0-78.84 29.92-148.21t81.21-120.68 120.63-81.25Q401.1-860 479.93-860q78.84 0 148.21 29.92t120.68 81.21 81.25 120.63Q860-558.9 860-480.07q0 78.84-29.92 148.21t-81.21 120.68-120.63 81.25Q558.9-100 480.07-100m-.07-60q134 0 227-93t93-227-93-227-227-93-227 93-93 227 93 227 227 93m0-320"/></svg>