<svg xmlns="http://www.w3.org/2000/svg" fill="currentColor" viewBox="0 -960 960 960"><path d="M629.23-180H172.31Q142-180 121-201t-21-51.31v-455.38Q100-738 121-759t51.31-21h615.38Q818-780 839-759t21 51.31v455.38Q860-222 839-201t-51.31 21h-44.46L552.92-370.31q-19.84 15.15-43.38 22.73T460-340q-66.54 0-113.27-46.73T300-500t46.73-113.27T460-660t113.27 46.73T620-500q0 24.31-5.85 45.23-5.84 20.92-19.84 41.54L767.54-240h20.15q4.62 0 8.46-3.85 3.85-3.84 3.85-8.46v-455.38q0-4.62-3.85-8.46-3.84-3.85-8.46-3.85H172.31q-4.62 0-8.46 3.85-3.85 3.84-3.85 8.46v455.38q0 4.62 3.85 8.46 3.84 3.85 8.46 3.85h396.92zM460-400q42 0 71-29t29-71-29-71-71-29-71 29-29 71 29 71 71 29M160-240v-480z"/></svg>