<svg xmlns="http://www.w3.org/2000/svg" fill="currentColor" viewBox="0 -960 960 960"><path d="M212.31-140Q182-140 161-161t-21-51.31v-535.38Q140-778 161-799t51.31-21h535.38Q778-820 799-799t21 51.31v535.38Q820-182 799-161t-51.31 21zm0-60h535.38q4.62 0 8.46-3.85 3.85-3.84 3.85-8.46v-535.38q0-4.62-3.85-8.46-3.84-3.85-8.46-3.85H212.31q-4.62 0-8.46 3.85-3.85 3.84-3.85 8.46v535.38q0 4.62 3.85 8.46 3.84 3.85 8.46 3.85M200-760v560zm171.85 436.15L480-389.46l108.15 65.61-28.69-123 95.92-82.69-126.23-10.61-49.15-116-49.15 116-126.23 10.61 95.92 82.69z"/></svg>