<svg xmlns="http://www.w3.org/2000/svg" fill="currentColor" viewBox="0 -960 960 960"><path d="M451.69-207.69h54.62v-48.46q46.54-6.31 84.27-34.97 37.73-28.65 37.73-86.88 0-42-24.77-74.31-24.77-32.3-96.77-58.3-63.08-21.54-83.77-37.31T402.31-592t21.19-46 58.5-17.69q31.23 0 50.38 14.73 19.16 14.73 29.47 36.96l49.38-19.85q-12.54-31.92-40.88-54.65-28.35-22.73-62.04-25.35v-48.46h-54.62v48.46q-51.15 9.85-78.57 41.5-27.43 31.66-27.43 70.35 0 45.08 27.31 72.54t89 49.61q63.77 23.39 87.12 41.97 23.34 18.57 23.34 49.88 0 37.62-27.15 54.65-27.16 17.04-61.31 17.04-33.77 0-60.42-20.3-26.66-20.31-40.97-59.39L334-365.38q15.54 44.53 44.65 70.76 29.12 26.23 73.04 36.47zM480-100q-78.77 0-148.11-29.96-69.35-29.96-120.66-81.27t-81.27-120.66Q100-401.23 100-480t29.96-148.11q29.96-69.35 81.27-120.66t120.66-81.27Q401.23-860 480-860t148.11 29.96q69.35 29.96 120.66 81.27t81.27 120.66Q860-558.77 860-480t-29.96 148.11q-29.96 69.35-81.27 120.66t-120.66 81.27Q558.77-100 480-100m0-60q134 0 227-93t93-227-93-227-227-93-227 93-93 227 93 227 227 93m0-320"/></svg>