<svg xmlns="http://www.w3.org/2000/svg" fill="currentColor" viewBox="0 -960 960 960"><path d="M479.23-100q-77.77 0-146.92-29.96-69.16-29.96-120.77-81.58-51.62-51.61-81.58-120.96T100-480q0-79.15 30.77-148.5t83.58-120.65q52.8-51.31 123.54-81.08Q408.62-860 488.77-860q75 0 142.15 25.58 67.16 25.58 117.96 70.81 50.81 45.23 80.96 107.5Q860-593.85 860-521.08q0 103.85-61.73 162.46Q736.54-300 640-300h-72.46q-17.08 0-27.31 11.15Q530-277.69 530-262.46q0 18.54 15 38.54T560-178q0 39.61-21.92 58.81Q516.15-100 479.23-100M260-450q21.38 0 35.69-14.31T310-500t-14.31-35.69T260-550t-35.69 14.31T210-500t14.31 35.69T260-450m120-160q21.38 0 35.69-14.31T430-660t-14.31-35.69T380-710t-35.69 14.31T330-660t14.31 35.69T380-610m200 0q21.38 0 35.69-14.31T630-660t-14.31-35.69T580-710t-35.69 14.31T530-660t14.31 35.69T580-610m120 160q21.38 0 35.69-14.31T750-500t-14.31-35.69T700-550t-35.69 14.31T650-500t14.31 35.69T700-450M479.23-160q9.77 0 15.27-4.81T500-178q0-14-15-31.46t-15-54.69q0-42.77 29-69.31T570-360h70q70.62 0 115.31-41.38Q800-442.77 800-521.08q0-121.38-93.08-200.15Q613.85-800 488.77-800q-137.15 0-232.96 93T160-480q0 133 93.5 226.5T479.23-160"/></svg>