<svg xmlns="http://www.w3.org/2000/svg" fill="currentColor" viewBox="0 -960 960 960"><path d="M480-275.39q68.85 0 116.73-47.88T644.61-440q0-5-.3-10-.31-5-1.7-10h-59.99q2 5 2 10v10q0 43.92-30.35 74.27T480-335.38H356.93q18.99 26.38 51.57 43.19 32.58 16.8 71.5 16.8M317.39-420h59.99q-2-5-2-10v-10q0-43.92 30.35-74.27T480-544.62h123.07q-20.53-26.76-52.15-43.38-31.61-16.61-70.92-16.61-68.85 0-116.73 47.88T315.39-440q0 5 .3 10 .31 5 1.7 10M172.31-140Q142-140 121-161t-21-51.31v-455.38Q100-698 121-719t51.31-21h122.15l74-80h223.08l74 80h122.15Q818-740 839-719t21 51.31v455.38Q860-182 839-161t-51.31 21zm0-60h615.38q5.39 0 8.85-3.46t3.46-8.85v-455.38q0-5.39-3.46-8.85t-8.85-3.46H638.77l-73.39-80H394.62l-73.39 80H172.31q-5.39 0-8.85 3.46t-3.46 8.85v455.38q0 5.39 3.46 8.85t8.85 3.46M480-440"/></svg>