<svg xmlns="http://www.w3.org/2000/svg" fill="currentColor" viewBox="0 -960 960 960"><path d="M240-175.39q-26.65 0-45.63-18.98T175.39-240t18.98-45.63T240-304.61q5 0 9.42.38 4.43.39 9.04 2.39l159.7-159.7q-5-17.15-.85-34.38t16.84-29.93q12.7-12.69 29.93-16.84t34.38.85l159.7-159.7q-1.62-4.61-2.2-9.04-.57-4.42-.57-9.42 0-26.65 18.98-45.63T720-784.61t45.63 18.98T784.61-720t-18.98 45.63T720-655.39q-6.15 0-18.46-2.77l-159.7 159.08q5 17.16.85 34.69-4.15 17.54-16.73 30.12-13.42 13.42-30.65 17.58-17.23 4.15-34.39-1.47l-148 147.39.77.77h109.85q8.69-15.69 23.61-25.15 14.93-9.46 32.73-9.46 18.66 0 34.08 9.15T537.69-270h124.62q8.69-16.31 23.92-25.46t33.77-9.15q26.65 0 45.63 18.98T784.61-240t-18.98 45.63T720-175.39q-18.54 0-33.77-9.46T662.31-210H537.69q-8.31 16.31-23.79 25.46-15.49 9.15-33.9 9.15-17.92 0-32.85-9.46-14.92-9.46-23.61-25.15H296.46q-8.31 15.69-23.51 25.15-15.21 9.46-32.95 9.46m0-240q-26.65 0-45.63-18.98T175.39-480t18.98-45.63T240-544.61t45.63 18.98T304.61-480t-18.98 45.63T240-415.39m0-240q-26.65 0-45.63-18.98T175.39-720t18.98-45.63T240-784.61t45.63 18.98T304.61-720t-18.98 45.63T240-655.39m240 0q-26.65 0-45.63-18.98T415.39-720t18.98-45.63T480-784.61t45.63 18.98T544.61-720t-18.98 45.63T480-655.39m240 240q-26.65 0-45.63-18.98T655.39-480t18.98-45.63T720-544.61t45.63 18.98T784.61-480t-18.98 45.63T720-415.39"/></svg>