<svg xmlns="http://www.w3.org/2000/svg" fill="currentColor" viewBox="0 -960 960 960"><path d="M550-451.54q-41.92 0-70.96-29.04T450-551.54t29.04-70.96T550-651.54t70.96 29.04T650-551.54t-29.04 70.96T550-451.54M286.15-327.69q-29.82 0-51.06-21.24T213.85-400v-303.08q0-29.82 21.24-51.06t51.06-21.24h527.69q29.83 0 51.07 21.24t21.24 51.06V-400q0 29.83-21.24 51.07t-51.07 21.24zm60-60h407.7q0-29.92 21.24-51.12Q796.33-460 826.15-460v-183.08q-29.92 0-51.11-21.24t-21.19-51.06h-407.7q0 29.92-21.24 51.11t-51.06 21.19V-460q29.92 0 51.11 21.24t21.19 51.07m420.77 200H146.16q-29.83 0-51.07-21.24T73.85-260v-396.15h60V-260q0 4.61 3.84 8.46 3.85 3.85 8.47 3.85h620.76zm-480.77-200h-12.3v-327.69h12.3q-5 0-8.65 3.65t-3.65 8.65V-400q0 5 3.65 8.65 3.65 3.66 8.65 3.66"/></svg>