<svg xmlns="http://www.w3.org/2000/svg" fill="currentColor" viewBox="0 -960 960 960"><path d="M370-140H172.31Q142-140 121-161t-21-51.31v-455.38Q100-698 121-719t51.31-21h122.15l74-80h223.08l74 80h122.15Q818-740 839-719t21 51.31v455.38Q860-182 839-161t-51.31 21H590v-60h197.69q4.62 0 8.46-3.85 3.85-3.84 3.85-8.46v-455.38q0-4.62-3.85-8.46-3.84-3.85-8.46-3.85H638.77l-73.39-80H394.62l-73.39 80H172.31q-4.62 0-8.46 3.85-3.85 3.84-3.85 8.46v455.38q0 4.62 3.85 8.46 3.84 3.85 8.46 3.85H370zm80 0h60v-130.16q81.77-11.69 135.88-73Q700-404.46 700-487.69h-60q0 64.84-46.62 112.42-46.61 47.58-113.38 47.58t-113.38-47.58Q320-422.85 320-487.69h-60q0 83.23 54.12 144.53 54.11 61.31 135.88 73zm30-283.08q26.85 0 45.73-18.88 18.88-18.89 18.88-45.73v-160q0-26.85-18.88-45.73-18.88-18.89-45.73-18.89t-45.73 18.89q-18.88 18.88-18.88 45.73v160q0 26.84 18.88 45.73 18.88 18.88 45.73 18.88M172.31-200H800 160z"/></svg>