<svg xmlns="http://www.w3.org/2000/svg" fill="currentColor" viewBox="0 -960 960 960"><path d="M440-492.31q-57.75 0-98.87-41.12Q300-574.56 300-632.31t41.13-98.87q41.12-41.13 98.87-41.13t98.87 41.13Q580-690.06 580-632.31t-41.13 98.88q-41.12 41.12-98.87 41.12m0-60q33 0 56.5-23.5t23.5-56.5-23.5-56.5-56.5-23.5-56.5 23.5-23.5 56.5 23.5 56.5 56.5 23.5M866.31-51.54 749.08-168.77q-20.23 12.77-42.7 20-22.46 7.23-46.3 7.23-66.23 0-112.39-46.24-46.15-46.25-46.15-112.31t46.24-112.22q46.25-46.15 112.31-46.15t112.22 46.22q46.15 46.22 46.15 112.24 0 23.92-7.23 46.38-7.23 22.47-20 42.7L908.46-93.69zM660-201.54q41.62 0 70.04-28.42T758.46-300t-28.42-70.04T660-398.46t-70.04 28.42T561.54-300t28.42 70.04T660-201.54m-520 13.85V-276q0-29.77 15.66-54.73 15.65-24.96 42.96-38.81 47.15-23.69 113.65-42.07 66.5-18.39 145.65-15.31-8.92 14.15-15.49 29.14-6.56 15-10.43 31.09-65.77.77-119.69 17.42T226.77-316q-12.69 6.15-19.73 16.87T200-276v28.31h227.39q3.46 15.84 9.46 31.03 6 15.2 14.15 28.97zm287.39-60"/></svg>