<svg xmlns="http://www.w3.org/2000/svg" fill="currentColor" viewBox="0 -960 960 960"><path d="M480-370q50.61 0 91.96-24.04t66.58-63.65q-33.08-25.54-73.43-38.92Q524.77-510 480-510t-85.11 13.39q-40.35 13.38-73.43 38.92 25.23 39.61 66.58 63.65T480-370m0-200q29.15 0 49.58-20.42Q550-610.85 550-640t-20.42-49.58Q509.15-710 480-710t-49.58 20.42Q410-669.15 410-640t20.42 49.58Q450.85-570 480-570m0 390.54q117.38-105.08 179.65-201.58t62.27-169.04q0-109.38-69.5-179.84T480-800.38t-172.42 70.46-69.5 179.84q0 72.54 62.27 169.04T480-179.46m0 79.84Q329-230.46 253.54-343.15q-75.46-112.7-75.46-206.93 0-138.46 89.57-224.19Q357.23-860 480-860t212.35 85.73q89.57 85.73 89.57 224.19 0 94.23-75.46 206.93Q631-230.46 480-99.62m0-458.07"/></svg>