<svg xmlns="http://www.w3.org/2000/svg" fill="currentColor" viewBox="0 -960 960 960"><path d="M480-566.92q-57.75 0-98.87-41.13Q340-649.17 340-706.92t41.13-98.88q41.12-41.12 98.87-41.12t98.87 41.12Q620-764.67 620-706.92t-41.13 98.87q-41.12 41.13-98.87 41.13m0-60q33 0 56.5-23.5t23.5-56.5-23.5-56.5-56.5-23.5-56.5 23.5-23.5 56.5 23.5 56.5 56.5 23.5M180-120.77v-237.54q0-29.38 15.57-54.43 15.57-25.04 43.05-39.11 50.61-25.23 112.23-41.69Q412.46-510 480-510t129.15 16.46q61.62 16.46 112.23 41.69 27.48 14.07 43.05 39.11Q780-387.69 780-358.28v165.2q0 30.31-21 51.31t-51.31 21H400q-40.61 0-68.38-27.77t-27.77-68.39q0-40.61 27.77-68.38T400-313.08h118l60.85-125.46q-23.46-5.92-49.46-8.69Q503.38-450 480-450q-64.69 0-118.96 15.58-54.27 15.57-94.27 36.11-12.69 6.16-19.73 17-7.04 10.85-7.04 23v237.54zm220-60h54.92l34.93-72.31H400q-14.69 0-25.42 10.73t-10.73 25.42q0 14.7 10.73 25.43T400-180.77m121 0h186.69q5.39 0 8.85-3.46t3.46-8.85v-165.23q0-12.15-7.42-23-7.43-10.84-18.73-17-12.39-6.38-26.58-12.5-14.19-6.11-29.42-11.73zm-41-127.08"/></svg>