<svg xmlns="http://www.w3.org/2000/svg" fill="currentColor" viewBox="0 -960 960 960"><path d="M512.31-140h-300q-29.83 0-51.07-21.24T140-212.31v-300h372.31zM180-220h300l-97.08-131.54-71.38 93.85-52.92-69.39zm24.62-535.38H140q0-26.66 18.98-45.64T204.62-820zm89.23 0V-820h64.61v64.62zm153.84 0V-820h64.62v64.62zm153.85 0V-820h64.61v64.62zm0 615.38v-64.62h64.61V-140zm153.84-615.38V-820q26.66 0 45.64 18.98T820-755.38zM140-601.54v-64.61h64.62v64.61zm615.38 396.92H820q0 26.66-18.98 45.64T755.38-140zm0-89.23v-64.61H820v64.61zm0-153.84v-64.62H820v64.62zm0-153.85v-64.61H820v64.61z"/></svg>