<svg xmlns="http://www.w3.org/2000/svg" fill="currentColor" viewBox="0 -960 960 960"><path d="M252.31-100Q222-100 201-121t-21-51.31v-615.38Q180-818 201-839t51.31-21h455.38Q738-860 759-839t21 51.31v615.38Q780-142 759-121t-51.31 21zm0-60h455.38q4.62 0 8.46-3.85 3.85-3.84 3.85-8.46v-615.38q0-4.62-3.85-8.46-3.84-3.85-8.46-3.85H640v262.31l-90-53.85-90 53.85V-800H252.31q-4.62 0-8.46 3.85-3.85 3.84-3.85 8.46v615.38q0 4.62 3.85 8.46 3.84 3.85 8.46 3.85m42.31-90h373.84L546.15-413.08 443.08-279.23l-64.62-82zM240-160v-640zm220-377.69 90-53.85 90 53.85-90-53.85z"/></svg>