<svg xmlns="http://www.w3.org/2000/svg" fill="currentColor" viewBox="0 -960 960 960"><path d="M212.31-140Q182-140 161-161t-21-51.31v-535.38Q140-778 161-799t51.31-21h535.38Q778-820 799-799t21 51.31v535.38Q820-182 799-161t-51.31 21zm0-60h125.77v-186.15H325q-15.85 0-26.38-10.54-10.54-10.54-10.54-26.39V-760h-75.77q-5.39 0-8.85 3.46t-3.46 8.85v535.38q0 5.39 3.46 8.85t8.85 3.46m409.61 0h125.77q5.39 0 8.85-3.46t3.46-8.85v-535.38q0-5.39-3.46-8.85t-8.85-3.46h-75.77v336.92q0 15.85-10.54 26.39-10.53 10.54-26.38 10.54h-13.08zm-236.15 0h188.46v-186.15h-13.08q-15.84 0-26.38-10.54t-10.54-26.39V-760h-88.46v336.92q0 15.85-10.54 26.39t-26.38 10.54h-13.08z"/></svg>