<svg xmlns="http://www.w3.org/2000/svg" fill="currentColor" viewBox="0 -960 960 960"><path d="M510-510h288.77q-11.54-115.77-92.27-196.69-80.73-80.93-196.5-92.08zm-60 348.77v-637.54q-123.69 11.15-206.85 102.42Q160-605.08 160-480t83.15 216.35Q326.31-172.38 450-161.23m60 0Q625.77-171.77 706.81-253t91.96-197H510zM480.07-100q-78.84 0-148.21-29.92t-120.68-81.21-81.25-120.63Q100-401.1 100-479.93q0-78.84 29.92-148.21t81.21-120.68 120.63-81.25Q401.1-860 479.93-860q78.84 0 147.88 29.96t120.65 81.58q51.62 51.61 81.58 120.61Q860-558.86 860-479.88q0 78.03-29.92 147.33-29.92 69.29-81.21 121.02T628.24-129.9 480.07-100"/></svg>