<svg xmlns="http://www.w3.org/2000/svg" fill="currentColor" viewBox="0 -960 960 960"><path d="M480-291q98.62-83.08 149.31-160.54T680-596.69q0-89.23-56-146.27T480-800t-144 57.04-56 146.27q0 67.69 50.69 145.15T480-291m0 76Q350.15-315.54 285.08-411.42 220-507.31 220-596.69q0-115.39 72.62-189.35Q365.23-860 480-860t187.38 73.96Q740-712.08 740-596.69q0 89.38-65.08 185.07Q609.85-315.92 480-215m0-312.69q29.92 0 51.11-21.2 21.2-21.19 21.2-51.11t-21.2-51.11q-21.19-21.2-51.11-21.2t-51.11 21.2q-21.2 21.19-21.2 51.11t21.2 51.11q21.19 21.2 51.11 21.2M220-100v-60h520v60zm260-500"/></svg>