<svg xmlns="http://www.w3.org/2000/svg" fill="currentColor" viewBox="0 -960 960 960"><path d="M172.31-180Q142-180 121-201t-21-51.31v-455.38Q100-738 121-759t51.31-21h615.38Q818-780 839-759t21 51.31v455.38Q860-222 839-201t-51.31 21zm90.77-182.31h39.07v-235.38h-31.38l-67.69 48.46L224-518.62l39.08-27.53zm123.23 0h151.38v-35.38h-97.08l-1.23-2.77q19.47-18.08 33.54-32.66 14.08-14.57 25.54-26.42 17.23-17.61 25.46-35.04 8.23-17.42 8.23-37.42 0-28.23-20.84-46.96-20.85-18.73-53.31-18.73-24.08 0-44.31 13.84-20.23 13.85-28.61 36.31l35.38 14.46q5.39-13 15.46-20.5 10.08-7.5 22.08-7.5 16.15 0 26.23 8.58t10.08 22.5q0 11.77-4.39 21.27-4.38 9.5-18.38 24.27-15.62 16.77-35.66 36.42-20.03 19.66-49.57 48.81zm293.69 0q34.08 0 55.12-19.42 21.03-19.42 21.03-50.27 0-19.92-10.57-33.73Q735-479.54 715.85-486v-2q15.53-6.08 23.92-18.19 8.38-12.12 8.38-30.27 0-27-19.65-44.12-19.65-17.11-50.5-17.11-26.54 0-45.35 14.5-18.8 14.5-25.57 31.65l34.61 14.46q4.39-11.61 14.16-18.42t22.15-6.81q14.15 0 23.23 8.08t9.08 20.23q0 14.77-10.77 23.54T672-501.69h-15.69v35.38H674q21.15 0 32.73 8.58T718.31-434q0 14.15-11.58 24.62-11.58 10.46-26.73 10.46-17 0-26.96-7.5t-17.35-25.73l-34.61 13.69q7.77 26.69 28.5 41.42T680-362.31M172.31-240h615.38q5.39 0 8.85-3.46t3.46-8.85v-455.38q0-5.39-3.46-8.85t-8.85-3.46H172.31q-5.39 0-8.85 3.46t-3.46 8.85v455.38q0 5.39 3.46 8.85t8.85 3.46M160-240v-480z"/></svg>