<svg xmlns="http://www.w3.org/2000/svg" fill="currentColor" viewBox="0 -960 960 960"><path d="M465.85-160q4.46 15.38 12.27 31.31 7.8 15.92 16.5 28.69H212.31Q182-100 161-121t-21-51.31v-615.38Q140-818 161-839t51.31-21h455.38Q698-860 719-839t21 51.31v284.38q-13.39-1.61-30-1.61-16.62 0-30 1.61v-284.38q0-4.62-3.85-8.46-3.84-3.85-8.46-3.85H470v263.84L380-590l-90 53.84V-800h-77.69q-4.62 0-8.46 3.85-3.85 3.84-3.85 8.46v615.38q0 4.62 3.85 8.46 3.84 3.85 8.46 3.85zM710-66.16q-74.92 0-127.46-52.53Q530-171.23 530-246.15q0-74.93 52.54-127.46 52.54-52.54 127.46-52.54t127.46 52.54Q890-321.08 890-246.15q0 74.92-52.54 127.46Q784.92-66.16 710-66.16m-42.31-92.3 134.62-88.46-134.62-88.46zM290-800h180zm175.85 0H200h480-230z"/></svg>