<svg xmlns="http://www.w3.org/2000/svg" fill="currentColor" viewBox="0 -960 960 960"><path d="m757.92-592.23-128.3-128.31-85 84.39-70.77-70.16 106.46-107.07q10.46-10.46 23.34-15.19 12.89-4.73 25.97-4.73 13.69 0 26.46 4.73t22.61 15.19l73.46 73.46q16.46 15.84 24.19 36.23 7.74 20.38 7.74 41.85 0 18.38-6.39 36.34-6.38 17.96-19.77 33.27M255-416.69q-15.3-15.31-15.3-35.58t15.3-35.58l91.08-91.69 70.77 70.77-92.08 92.08q-14.69 15.3-34.58 15.3-19.88 0-35.19-15.3m-59.15 285.84q-9.85-10.46-14.89-23.42t-5.04-27.04 4.74-26.84q4.73-12.77 15.19-23.24l278-277.38-133.93-134.54q-15.3-14.69-15.11-34.57.19-19.89 15.5-35.2 14.69-15.3 35.07-15.11 20.39.19 35.7 15.5l133.54 133.54 57-57 101.61 102.84q9.31 9.31 9.31 20.89 0 11.57-9.31 20.88-9.31 8.92-21.46 8.54-12.15-.39-23.77-11.23l-363 363q-10.46 10.46-23.04 15.38-12.57 4.93-26.04 4.93-13.46 0-26.53-5.04-13.08-5.04-23.54-14.89"/></svg>