<svg xmlns="http://www.w3.org/2000/svg" fill="currentColor" viewBox="0 -960 960 960"><path d="M90-130.77v-60.77q34.54-1.92 53.35-20.19Q162.15-230 213.54-230q51.38 0 73.15 20t60.08 20 60.08-20T480-230t73.54 20q22.15 20 60.46 20t59.69-20q21.39-20 72.77-20 51.39 0 70.19 18.27 18.81 18.27 53.35 20.19v60.77q-47.46-2.31-67.12-20.77Q783.23-170 746.46-170t-58.15 20q-21.39 20-74.31 20t-75.08-20q-22.15-20-58.92-20t-58.54 20-74.69 20-74.69-20-58.54-20-56.42 18.46Q137.46-133.08 90-130.77m0-180v-60.77q34.54-1.92 53.35-20.19Q162.15-410 213.54-410q51.38 0 73.46 20t59.77 20q38.31 0 60.08-20T480-410t73.15 20 60.08 20 60.08-20 73.15-20q51.39 0 70.19 18.27 18.81 18.27 53.35 20.19v60.77q-47.46-2.31-67.12-20.77Q783.23-350 746.46-350t-57.23 20T614-310q-53.54 0-75.38-20-21.85-20-58.62-20-38 0-58.23 20t-75 20-75.62-20q-20.84-20-57.61-20t-56.42 18.46Q137.46-313.08 90-310.77m203.69-197.85 131.08-131.07L374-690.46q-32.61-32.62-67.69-46.66-35.08-14.03-87.54-15.19V-830q68.85 1.15 114 17.08 45.15 15.92 89.08 59.84l244.46 244.46q-12.39 8.7-24.54 13.66-12.16 4.96-28.15 4.96-31.39 0-54.89-20T480-530t-78.73 20-54.89 20q-15.99 0-28.15-4.96-12.15-4.96-24.54-13.66m368.92-317.53q38.54 0 65.43 27.19 26.88 27.19 26.88 65.11 0 38.54-26.88 65.43-26.89 26.88-65.43 26.88-38.53 0-65.42-26.88-26.88-26.89-26.88-65.43 0-37.92 26.88-65.11 26.89-27.19 65.42-27.19"/></svg>