<svg xmlns="http://www.w3.org/2000/svg" fill="currentColor" viewBox="0 -960 960 960"><path d="M212.31-140q-29.83 0-51.07-21.24T140-212.31v-535.38q0-29.83 21.24-51.07T212.31-820h535.38q29.83 0 51.07 21.24T820-747.69v535.38q0 29.83-21.24 51.07T747.69-140zm0-60h535.38q5.39 0 8.85-3.46t3.46-8.85V-680H200v467.69q0 5.39 3.46 8.85t8.85 3.46M480-300q-73.54 0-131.88-38.92-58.35-38.93-86.2-101.08 27.85-62.15 86.2-101.08Q406.46-580 480-580t131.88 38.92q58.35 38.93 86.2 101.08-27.85 62.15-86.2 101.08Q553.54-300 480-300m0-47.69q51.77 0 95.27-24.39 43.5-24.38 70.65-67.92-27.15-43.54-70.65-67.92-43.5-24.39-95.27-24.39t-95.27 24.39q-43.5 24.38-70.65 67.92 27.15 43.54 70.65 67.92 43.5 24.39 95.27 24.39m.09-40q21.83 0 37.02-15.29 15.2-15.28 15.2-37.11t-15.29-37.02q-15.28-15.2-37.11-15.2t-37.02 15.29q-15.2 15.28-15.2 37.11t15.29 37.02q15.28 15.2 37.11 15.2"/></svg>