<svg xmlns="http://www.w3.org/2000/svg" fill="currentColor" viewBox="0 -960 960 960"><path d="M480-220q-100.23 0-173.92-66t-84.23-164H87.69v-60h134.16q10.54-98 84.23-164T480-740t173.92 66 84.23 164h134.16v60H738.15q-10.54 98-84.23 164T480-220m0-60q83 0 141.5-58.5T680-480t-58.5-141.5T480-680t-141.5 58.5T280-480t58.5 141.5T480-280m-80-64.62h160q16.02 0 26.86-10.83 10.83-10.84 10.83-26.86v-120q0-16.02-10.83-26.85Q576.02-540 560-540h-2.31v-33.69q0-34.04-22.23-57.87-22.23-23.82-55.45-23.82-32.24 0-54.97 22.82t-22.73 54.87V-540H400q-16.02 0-26.86 10.84-10.83 10.83-10.83 26.85v120q0 16.02 10.83 26.86 10.84 10.83 26.86 10.83m80-68.46q-12.23 0-20.73-8.5t-8.5-20.73 8.5-20.73 20.73-8.5 20.73 8.5 8.5 20.73-8.5 20.73-20.73 8.5M437.69-540v-37.69q0-17.77 12.27-30.04T480-620t30.04 12.27 12.27 30.04V-540zM480-442.31"/></svg>