<svg xmlns="http://www.w3.org/2000/svg" fill="currentColor" viewBox="0 -960 960 960"><path d="M320-100q-57.75 0-98.87-41.13Q180-182.25 180-240v-335.39q0-52.38 33.04-90.34t82.35-46.58v-75.38q0-29.83 21.24-51.07T367.69-860h224.62q29.82 0 51.06 21.24t21.24 51.07v75.38q49.31 8.62 82.35 46.58T780-575.39V-240q0 57.75-41.13 98.87Q697.75-100 640-100zm-80-337.69h480v-137.7q0-33-23.5-56.5t-56.5-23.5H320q-33 0-56.5 23.5t-23.5 56.5zM320-160h320q33 0 56.5-23.5T720-240v-137.69H240V-240q0 33 23.5 56.5T320-160m195.38-555.38h89.24v-72.31q0-5.39-3.47-8.85-3.46-3.46-8.84-3.46H367.69q-5.38 0-8.84 3.46-3.47 3.46-3.47 8.85v72.31h89.24q0-14.7 10.34-25.04 10.35-10.35 25.04-10.35t25.04 10.35q10.34 10.34 10.34 25.04"/></svg>