<svg xmlns="http://www.w3.org/2000/svg" fill="currentColor" viewBox="0 -960 960 960"><path d="M280-320h400q66 0 113-47t47-113-47-113-113-47H280q-66 0-113 47t-47 113 47 113 113 47m110-380h180v-31.54q0-5.38-3.46-8.84t-8.85-3.46H402.31q-5.39 0-8.85 3.46t-3.46 8.84zM280-160v-100q-91.54 0-155.77-64.14T60-479.91t64.17-155.86Q188.33-700 280-700h50v-31.54q0-30.3 21-51.3t51.31-21h155.38q30.31 0 51.31 21t21 51.3V-700h50q91.67 0 155.83 64.14Q900-571.72 900-480.09t-64.17 155.86Q771.67-260 680-260v100h-60v-100H340v100z"/></svg>