<svg xmlns="http://www.w3.org/2000/svg" fill="currentColor" viewBox="0 -960 960 960"><path d="M108.85-414.39 60-449.46 245-746l117.69 137.69 156.16-254.23 117.69 176.93L771.15-900l48.08 35.46-181.46 289-116.69-175.92L371-507.16l-118.31-138.3zM572.31-240q45.07 0 76.19-31.12t31.12-76.19q0-45.08-31.13-76.19-31.12-31.12-76.19-31.12t-76.19 31.12Q465-392.37 465-347.3t31.12 76.18Q527.24-240 572.31-240m205.15 140L667.15-210.31q-20.23 14.77-44.34 22.54-24.12 7.77-50.5 7.77-69.71 0-118.51-48.78T405-347.24t48.78-118.53q48.78-48.84 118.46-48.84t118.53 48.79q48.84 48.8 48.84 118.51 0 26.39-7.77 50.69-7.76 24.31-22.53 44.54l109.92 110.31z"/></svg>