<svg xmlns="http://www.w3.org/2000/svg" fill="currentColor" viewBox="0 -960 960 960"><path d="M780-75.39 735.39-120l120-120-120-120L780-404.61 944.61-240zM340-140v-80H172.31Q142-220 121-241t-21-51.31v-455.38Q100-778 121-799t51.31-21h615.38Q818-820 839-799t21 51.31V-480h-60v-267.69q0-4.62-3.85-8.46-3.84-3.85-8.46-3.85H172.31q-4.62 0-8.46 3.85-3.85 3.84-3.85 8.46v455.38q0 4.62 3.85 8.46 3.84 3.85 8.46 3.85H680v60h-84.62v80zm110-230h60v-120h120v-60H510v-120h-60v120H330v60h120zm-290 90v-480z"/></svg>