<svg xmlns="http://www.w3.org/2000/svg" fill="currentColor" viewBox="0 -960 960 960"><path d="M550-369.23q14.69 0 25.65-10.96t10.96-25.66q0-14.69-10.96-25.65T550-442.46t-25.65 10.96q-10.97 10.96-10.97 25.65 0 14.7 10.97 25.66 10.96 10.96 25.65 10.96m-23.85-120.31h47.69q.77-27.08 6.97-40.19 6.19-13.12 29.34-35.5 27.69-26.54 37.69-44.85 10-18.3 10-42.53 0-42.7-30.15-70.43T550-750.77q-37.15 0-65.35 20.5-28.19 20.5-40.96 55.04l43.23 18.15q10.16-24.23 26.04-36.34 15.89-12.12 37.04-12.12 26.31 0 43.23 15.23t16.92 40.16q0 15.15-8.57 28.42-8.58 13.27-29.73 32.65-29.16 25.54-37.43 43-8.27 17.47-8.27 56.54M322.31-260Q292-260 271-281t-21-51.31v-455.38Q250-818 271-839t51.31-21h455.38Q808-860 829-839t21 51.31v455.38Q850-302 829-281t-51.31 21zm0-60h455.38q4.62 0 8.46-3.85 3.85-3.84 3.85-8.46v-455.38q0-4.62-3.85-8.46-3.84-3.85-8.46-3.85H322.31q-4.62 0-8.46 3.85-3.85 3.84-3.85 8.46v455.38q0 4.62 3.85 8.46 3.84 3.85 8.46 3.85m-140 200Q152-120 131-141t-21-51.31v-515.38h60v515.38q0 4.62 3.85 8.46 3.84 3.85 8.46 3.85h515.38v60zM310-800v480z"/></svg>