<svg xmlns="http://www.w3.org/2000/svg" fill="currentColor" viewBox="0 -960 960 960"><path d="M480.07-100q-78.84 0-148.21-29.92t-120.68-81.21-81.25-120.63Q100-401.1 100-479.93q0-78.84 29.92-148.21t81.21-120.68 120.63-81.25Q401.1-860 479.93-860q78.84 0 148.21 29.92t120.68 81.21 81.25 120.63Q860-558.9 860-480.07q0 78.84-29.92 148.21t-81.21 120.68-120.63 81.25Q558.9-100 480.07-100m-.07-60q58.5 0 110.21-19.42 51.71-19.43 93.48-54.12l-70.84-70.85q-27.47 21-61.48 32.7Q517.36-260 480-260q-91.67 0-155.83-64.14Q260-388.28 260-479.91t64.14-155.86T479.91-700t155.86 64.17Q700-571.67 700-480q0 37.46-12 71.68t-33 61.78l70.85 70.85q34.69-41.77 54.42-93.69Q800-421.31 800-480q0-134-93-227t-227-93-227 93-93 227 93 227 227 93m0-160q24.69 0 47.5-7.23t41.96-20.54L495-422.23q-3.73 1.48-7.46 1.86-3.73.37-7.46.37-24.62 0-42.35-17.73T420-480t17.73-42.27T480-540t42.27 17.73T540-480.08q0 4.45-.37 8.53-.38 4.07-1.86 7.78l73.84 73.85q13.31-19.16 20.85-41.87Q640-454.51 640-480q0-66-47-113t-113-47-113 47-47 113 47 113 113 47"/></svg>