<svg xmlns="http://www.w3.org/2000/svg" fill="currentColor" viewBox="0 -960 960 960"><path d="M172.31-100Q142-100 121-121t-21-51.31v-455.38q0-26.16 15.42-46.73Q130.85-695 155-704.77l461-187.54 19.84 50.62L286.61-700h501.08Q818-700 839-679t21 51.31v455.38Q860-142 839-121t-51.31 21zm0-60h615.38q4.62 0 8.46-3.85 3.85-3.84 3.85-8.46v-276.92H160v276.92q0 4.62 3.85 8.46 3.84 3.85 8.46 3.85m144.61-52.31q38.54 0 65.43-26.88 26.88-26.89 26.88-65.43 0-38.53-26.88-65.42-26.89-26.88-65.43-26.88t-65.42 26.88q-26.88 26.89-26.88 65.42 0 38.54 26.88 65.43 26.88 26.88 65.42 26.88M160-509.23h490v-76.92h60v76.92h90v-118.46q0-4.62-3.85-8.46-3.84-3.85-8.46-3.85H172.31q-4.62 0-8.46 3.85-3.85 3.84-3.85 8.46zM160-160v-289.23z"/></svg>