<svg xmlns="http://www.w3.org/2000/svg" fill="currentColor" viewBox="0 -960 960 960"><path d="M171.08-709.23H417zM640-440H160zM167.69-110.77V-140l60-40q-52.9 0-90.29-37.4-37.4-37.39-37.4-90.29V-680q0-76.69 78.27-108.34Q256.54-820 445.23-820q-9.15 13.77-16.15 28.58T417-760.62q-114.69 2-172.31 14.31-57.61 12.31-73.61 37.08h235.38q-1.84 15-1.84 30t2.23 30H160V-500h321.77q16.23 18.23 35.5 33.54T559.46-440H160v132.31q0 28.2 19.74 47.95Q199.49-240 227.69-240h344.62q28.2 0 47.95-19.74Q640-279.49 640-307.69v-106.85q15 2.23 30 2.23t30-1.84v107.23q0 53-37.4 89.96Q625.21-180 572.31-180l60 40v29.23zM672.15-500q-74.77 0-127.3-52.54-52.54-52.54-52.54-127.6 0-74.17 52.24-127.01Q596.8-860 672.46-860q74.77 0 127.31 52.54T852.31-680t-52.7 127.46T672.15-500m-17.54-147.69H690v-140h-35.39zm17.7 76.92q8 0 13.42-5.62 5.42-5.61 5.81-13.23 0-7.84-5.62-13.73-5.61-5.88-13.61-5.88t-13.62 5.61q-5.61 5.62-5.61 13.62t5.61 13.61q5.62 5.62 13.62 5.62M400.09-287.69q21.83 0 37.02-15.29 15.2-15.28 15.2-37.11t-15.29-37.02q-15.28-15.2-37.11-15.2t-37.02 15.29q-15.2 15.28-15.2 37.11t15.29 37.02q15.28 15.2 37.11 15.2"/></svg>