<svg xmlns="http://www.w3.org/2000/svg" fill="currentColor" viewBox="0 -960 960 960"><path d="M140-104.62v-750.76l55.39 49.23 56.92-49.23 56.92 49.23 56.92-49.23 56.93 49.23L480-855.38l56.92 49.23 56.93-49.23 56.92 49.23 56.92-49.23 56.92 49.23L820-855.38v750.76l-55.39-49.23-56.92 49.23-56.92-49.23-56.92 49.23-56.93-49.23L480-104.62l-56.92-49.23-56.93 49.23-56.92-49.23-56.92 49.23-56.92-49.23zm110-197.69h460v-60H250zM250-450h460v-60H250zm0-147.69h460v-60H250zM200-196h560v-568H200zm0-568v568z"/></svg>