<svg xmlns="http://www.w3.org/2000/svg" fill="currentColor" viewBox="0 -960 960 960"><path d="M240-100q-41.92 0-70.96-29.04T140-199.82V-300h120v-552.31l55.39 47.7 56.15-47.7 56.15 47.7 56.16-47.7 56.15 47.7 56.15-47.7 56.16 47.7 56.15-47.7 56.15 47.7 55.39-47.7V-200q0 41.92-29.04 70.96T720-100zm480-60q17 0 28.5-11.5T760-200v-560H320v460h360v100q0 17 11.5 28.5T720-160M367.69-610v-60h226.92v60zm0 120v-60h226.92v60zm310-114.62q-14.69 0-25.04-10.34-10.34-10.35-10.34-25.04t10.34-25.04q10.35-10.34 25.04-10.34t25.04 10.34q10.35 10.35 10.35 25.04t-10.35 25.04q-10.35 10.34-25.04 10.34m0 120q-14.69 0-25.04-10.34-10.34-10.35-10.34-25.04t10.34-25.04q10.35-10.34 25.04-10.34t25.04 10.34q10.35 10.35 10.35 25.04t-10.35 25.04q-10.35 10.34-25.04 10.34M240-160h380v-80H200v40q0 17 11.5 28.5T240-160m-40 0v-80z"/></svg>