<svg xmlns="http://www.w3.org/2000/svg" fill="currentColor" viewBox="0 -960 960 960"><path d="M292.31-60q-29.83 0-51.07-21.24T220-132.31v-695.38q0-29.83 21.24-51.07T292.31-900h375.38q29.83 0 51.07 21.24T740-827.69v695.38q0 29.83-21.24 51.07T667.69-60zM280-170v37.69q0 5.39 3.46 8.85t8.85 3.46h375.38q5.39 0 8.85-3.46t3.46-8.85V-170zm0-620h400v-37.69q0-5.39-3.46-8.85t-8.85-3.46H292.31q-5.39 0-8.85 3.46t-3.46 8.85zm200 450q-54 0-105 15.5T280-280v50h400v-50q-44-29-95-44.5T480-340m0-60q54 0 104.5 13.1t95.5 37.21V-730H280v380.31q45-24.11 95.5-37.21T480-400m-.05-50q45.82 0 77.93-32.07Q590-514.14 590-559.95q0-45.82-32.07-77.93Q525.86-670 480.05-670q-45.82 0-77.93 32.07Q370-605.86 370-560.05q0 45.82 32.07 77.93Q434.14-450 479.95-450m.05-60q-20.85 0-35.42-14.58Q430-539.15 430-560t14.58-35.42Q459.15-610 480-610t35.42 14.58Q530-580.85 530-560t-14.58 35.42Q500.85-510 480-510m0 280h200-400zm0 60"/></svg>