<svg xmlns="http://www.w3.org/2000/svg" fill="currentColor" viewBox="0 -960 960 960"><path d="M370-650v-60h220v60zM286.15-97.69q-29.15 0-49.57-20.43-20.42-20.42-20.42-49.57 0-29.16 20.42-49.58t49.57-20.42q29.16 0 49.58 20.42t20.42 49.58q0 29.15-20.42 49.57-20.42 20.43-49.58 20.43m387.7 0q-29.16 0-49.58-20.43-20.42-20.42-20.42-49.57 0-29.16 20.42-49.58t49.58-20.42q29.15 0 49.57 20.42t20.42 49.58q0 29.15-20.42 49.57Q703-97.69 673.85-97.69M60-810v-60h114.46l166.92 352.31h272.7q3.46 0 6.15-1.73t4.62-4.81L772.77-790h68.3L677.38-494.31q-9.84 17.31-26.03 26.96-16.2 9.66-35.5 9.66H324l-46.31 84.61q-3.08 4.62-.19 10 2.88 5.39 8.65 5.39h457.69v60H286.15q-40 0-60.42-34.2-20.42-34.19-1.11-69.19l57.07-102.61L136.16-810z"/></svg>