<svg xmlns="http://www.w3.org/2000/svg" fill="currentColor" viewBox="0 -960 960 960"><path d="M778.15-295.08 734-338l26-26v-232L596-760H364l-26 26-42.15-43.38L338.46-820h283.26L820-621.45v281.76zM510-562v-110.31h-60V-622zM818.46-57.23 678-197.69 621.54-140H338.28L140-339.69v-281.85L196.46-678 57.23-818.46l42.16-42.15L860.61-99.39zM364-200h232l39.85-39.85-396-396L200-596v232zm116-91.54q-13.73 0-23.02-9.29t-9.29-23.02 9.29-23.02q9.29-9.28 23.02-9.28t23.02 9.28q9.29 9.29 9.29 23.02t-9.29 23.02-23.02 9.29m-42.15-146.31"/></svg>