<svg xmlns="http://www.w3.org/2000/svg" fill="currentColor" viewBox="0 -960 960 960"><path d="M456.92-215h60v-40h50q12.77 0 21.39-8.62 8.61-8.61 8.61-21.38v-120q0-12.77-8.61-21.38-8.62-8.62-21.39-8.62h-130v-60h160v-60h-80v-40h-60v40h-50q-12.77 0-21.38 8.62-8.62 8.61-8.62 21.38v120q0 12.77 8.62 21.38 8.61 8.62 21.38 8.62h130v60h-160v60h80zM252.31-100Q222-100 201-121t-21-51.31v-615.38Q180-818 201-839t51.31-21H570l210 210v477.69Q780-142 759-121t-51.31 21zM540-644.62V-800H252.31q-4.62 0-8.46 3.85-3.85 3.84-3.85 8.46v615.38q0 4.62 3.85 8.46 3.84 3.85 8.46 3.85h455.38q4.62 0 8.46-3.85 3.85-3.84 3.85-8.46v-472.31zM240-800v155.38zv640z"/></svg>