<svg xmlns="http://www.w3.org/2000/svg" fill="currentColor" viewBox="0 -960 960 960"><path d="M170-330v-580h340v170q0 30.22 18.23 54.84t48.08 32.78l105 29q47.78 13.12 78.24 52.96Q790-530.59 790-479.97V-330zm60-60h500v-90.06q0-30.4-18.42-53.59-18.43-23.2-47.89-31.97l-105-30q-33.69-10.23-58.96-32.42t-38.11-54.27H380q-7.08 0-12.38-5.31-5.31-5.3-5.31-12.38t5.31-12.38q5.3-5.31 12.38-5.31h73.62q-2-11.62-2.5-21.35T450-762.31h-70q-7.08 0-12.38-5.31-5.31-5.3-5.31-12.38t5.31-12.38q5.3-5.31 12.38-5.31h70V-850H230zM200.05-50q-45.82 0-77.93-32.07Q90-114.14 90-159.95q0-45.82 32.07-77.93Q154.14-270 199.95-270q45.82 0 77.93 32.07Q310-205.86 310-160.05q0 45.82-32.07 77.93Q245.86-50 200.05-50m-.05-60q20.85 0 35.42-14.58Q250-139.15 250-160t-14.58-35.42Q220.85-210 200-210t-35.42 14.58Q150-180.85 150-160t14.58 35.42Q179.15-110 200-110m560.05 60q-45.82 0-77.93-32.07Q650-114.14 650-159.95q0-45.82 32.07-77.93Q714.14-270 759.95-270q45.82 0 77.93 32.07Q870-205.86 870-160.05q0 45.82-32.07 77.93Q805.86-50 760.05-50m-.05-60q20.85 0 35.42-14.58Q810-139.15 810-160t-14.58-35.42Q780.85-210 760-210t-35.42 14.58Q710-180.85 710-160t14.58 35.42Q739.15-110 760-110M480.05-50q-45.82 0-77.93-32.07Q370-114.14 370-159.95q0-45.82 32.07-77.93Q434.14-270 479.95-270q45.82 0 77.93 32.07Q590-205.86 590-160.05q0 45.82-32.07 77.93Q525.86-50 480.05-50m-.05-60q20.85 0 35.42-14.58Q530-139.15 530-160t-14.58-35.42Q500.85-210 480-210t-35.42 14.58Q430-180.85 430-160t14.58 35.42Q459.15-110 480-110m280-50"/></svg>