<svg xmlns="http://www.w3.org/2000/svg" fill="currentColor" viewBox="0 -960 960 960"><path d="M515.77-100q-47.05 0-92.26-12.85-45.2-12.84-85.12-37.77L381.77-194q31 17 65 25.5t69 8.5q117 0 198.5-81.5t81.5-198.5-81.5-198.5-198.5-81.5h-29.08l71.23 71.23-42.15 44.92L369.62-750l146.15-146.15 42.15 44.92L486.69-780h29.08q141.66 0 240.83 99.15t99.17 240.8q0 70.82-26.77 132.66-26.77 61.85-72.77 107.85T648.4-126.77 515.77-100m-240-128.46L64.23-440l211.54-211.54L487.31-440zm0-85.54 126-126-126-126-126 126zm0-126"/></svg>