<svg xmlns="http://www.w3.org/2000/svg" fill="currentColor" viewBox="0 -960 960 960"><path d="M522-100v-62q34-5 66.5-18t61.5-34l42.15 43.38q-38.15 28.93-80.88 46.89T522-100m-80 0q-129.15-16.85-214.58-112.77Q142-308.69 142-438q0-70.77 26.77-132.61 26.77-61.85 72.77-107.85t107.85-72.77Q411.23-778 482-778h18.31l-72.77-72.77 42.15-43.38L615.84-748 469.69-601.85 427.54-644l74-74H482q-117 0-198.5 81.5T202-438q0 104 68 182.5t172 94.27zm307.38-127.85L706-270q21-29 34.19-61.31T758.77-398H820q-5 46.15-23.16 88.88-18.15 42.73-47.46 81.27M820-478h-61.23q-5.39-34.38-18.58-66.69T706-606l43.38-42.15q28.93 35.54 46.77 78.88Q814-525.92 820-478"/></svg>