<svg xmlns="http://www.w3.org/2000/svg" fill="currentColor" viewBox="0 -960 960 960"><path d="M204.62-140q-26.66 0-45.64-18.98T140-204.62q0-26.65 18.98-45.63t45.64-18.98q26.65 0 45.63 18.98t18.98 45.63q0 26.66-18.98 45.64T204.62-140m486.15 0q0-115.08-43.27-214.9-43.28-99.83-118.03-174.58-74.74-74.74-174.57-118.02-99.83-43.27-214.9-43.27V-780q133.54 0 249.42 50.12 115.89 50.11 203.12 137.34T729.88-389.5Q780-273.7 780-140zM460-140q0-67-25-124.5T366-366t-101.5-69T140-460v-89.23q85.46 0 159.52 32.03 74.05 32.03 129.94 87.74 55.71 55.84 87.74 129.84 32.03 73.99 32.03 159.62z"/></svg>