<svg xmlns="http://www.w3.org/2000/svg" fill="currentColor" viewBox="0 -960 960 960"><path d="M450-210v-540h60v540zM50-330v-14.92q0-20.54 11.46-37.27t31.39-25.58q24.84-11 51.57-16.61Q171.15-430 200-430t55.58 5.62q26.73 5.61 51.57 16.61 19.93 8.85 31.39 25.58T350-344.92V-330zm560 0v-14.92q0-20.54 11.46-37.27t31.39-25.58q24.84-11 51.57-16.61Q731.15-430 760-430t55.58 5.62q26.73 5.61 51.57 16.61 19.93 8.85 31.39 25.58T910-344.92V-330zM200-490q-29.15 0-49.58-20.42Q130-530.85 130-560t20.42-49.58Q170.85-630 200-630t49.58 20.42Q270-589.15 270-560t-20.42 49.58Q229.15-490 200-490m560 0q-29.15 0-49.58-20.42Q690-530.85 690-560t20.42-49.58Q730.85-630 760-630t49.58 20.42Q830-589.15 830-560t-20.42 49.58Q789.15-490 760-490"/></svg>