<svg xmlns="http://www.w3.org/2000/svg" fill="currentColor" viewBox="0 -960 960 960"><path d="M270-290h423.07L561.54-465.38 449.23-319.23l-80-102.31zm-22.31-208.46q86.92-4.23 148.27-65.58t65.58-148.27h-52.62q-4.23 65.46-50 111.23t-111.23 50zm0-126q35.31-2.31 59.81-27.43Q332-677 334.31-712.31h-86.62zM212.31-140Q182-140 161-161t-21-51.31v-535.38Q140-778 161-799t51.31-21h535.38Q778-820 799-799t21 51.31v535.38Q820-182 799-161t-51.31 21zm0-60h535.38q4.62 0 8.46-3.85 3.85-3.84 3.85-8.46v-535.38q0-4.62-3.85-8.46-3.84-3.85-8.46-3.85H212.31q-4.62 0-8.46 3.85-3.85 3.84-3.85 8.46v535.38q0 4.62 3.85 8.46 3.84 3.85 8.46 3.85M200-200v-560z"/></svg>