<svg xmlns="http://www.w3.org/2000/svg" fill="currentColor" viewBox="0 -960 960 960"><path d="M570-42.39v-59.99q117 0 198.31-81.31T849.62-382h59.99q0 70.77-26.76 132.62-26.77 61.84-72.58 107.65T702.62-69.15Q640.77-42.39 570-42.39m0-147.69v-60q55 0 93.46-38.46T701.92-382h60q0 79.54-56.19 135.73T570-190.08M233.54-78.16q-13.46 0-26.54-5.03-13.08-5.04-23.54-14.89l-142-142q-9.84-10.46-14.88-23.54-5.04-13.07-5.04-26.53 0-14.08 5.04-26.66t14.88-22.42l119.31-119.31q20.31-20.31 49.88-20.61 29.58-.31 49.89 20l54.23 54.23L357-447.15l-54.23-54.24q-20.31-20.3-20.31-49.26 0-28.97 20.31-49.27l49.31-49.31q20.3-20.31 49.38-20.31t49.39 20.31L505.08-595l42.23-42.23-54.23-54.23q-20.31-20.31-20.31-49.58t20.31-49.57l119.3-119.31q10.47-10.46 23.35-15.69t26.35-5.23q13.46 0 26.23 5.03 12.77 5.04 23.23 15.5l142 142q10.46 9.85 15.19 22.62t4.73 26.84q0 13.47-4.73 26.54-4.73 13.08-15.19 23.54L734.23-549.46q-20.31 20.31-49.58 20.31t-49.57-20.31l-54.23-54.23-42.24 42.23 54.24 54.23q20.3 20.31 20 49.58-.31 29.27-20.62 49.57l-48.31 48.31q-20.3 20.31-49.57 20.5t-49.58-20.12l-54.23-54.23-42.23 42.24 54.23 54.23q20.31 20.3 20 49.88t-20.62 49.88L282.62-98.08q-9.85 9.85-22.43 14.89-12.57 5.03-26.65 5.03m-6.54-61.3q2.69 2.69 6.54 2.69t6.54-2.69l43.15-43.16L127-338.85l-43.15 43.16q-2.7 2.69-2.7 6.54 0 3.84 2.7 6.53zm90.39-77.69 43.15-43.16q2.69-2.69 2.69-6.54 0-3.84-2.69-6.54L217.39-416.54q-2.7-2.69-6.54-2.69-3.85 0-6.54 2.69l-43.16 43.15zm170.53-184q2.7 2.69 6.54 2.69 3.85 0 6.54-2.69L550.85-451q2.69-2.69 2.69-6.54 0-3.84-2.69-6.54L407.69-607.23q-2.69-2.69-6.54-2.69-3.84 0-6.54 2.69l-49.84 49.84q-2.69 2.7-2.69 6.54 0 3.85 2.69 6.54zm190.31-190.7q2.69 2.7 6.54 2.7t6.54-2.7L734.46-635 578.23-791.23l-43.15 43.15q-2.7 2.7-2.7 6.54 0 3.85 2.7 6.54zm90.77-77.3 43.15-43.16q2.7-2.69 2.7-6.54 0-3.84-2.7-6.53L669-868.54q-2.69-2.69-6.54-2.69t-6.54 2.69l-43.15 43.16zM448-504"/></svg>