<svg xmlns="http://www.w3.org/2000/svg" fill="currentColor" viewBox="0 -960 960 960"><path d="M711.69-460 166.93-657.07l20.3-56.77L768.15-502q24.62 9.54 38.23 31.08Q820-449.38 820-424.61v172.3Q820-222 799-201t-51.31 21H212.31Q182-180 161-201t-21-51.31v-135.38Q140-418 161-439t51.31-21zm36 220q4.62 0 8.46-3.85 3.85-3.84 3.85-8.46v-135.38q0-4.62-3.85-8.46-3.84-3.85-8.46-3.85H212.31q-4.62 0-8.46 3.85-3.85 3.84-3.85 8.46v135.38q0 4.62 3.85 8.46 3.84 3.85 8.46 3.85zm-344.61-50H710v-60H403.08zM280-284.62q15.08 0 25.23-10.15T315.38-320t-10.15-25.23T280-355.38t-25.23 10.15T244.62-320t10.15 25.23T280-284.62M200-240v-160z"/></svg>