<svg xmlns="http://www.w3.org/2000/svg" fill="currentColor" viewBox="0 -960 960 960"><path d="M675.38-144.62q-57.75 0-98.87-41.12-41.12-41.13-41.12-98.88t41.12-98.87 98.87-41.12 98.88 41.12q41.12 41.12 41.12 98.87t-41.12 98.88q-41.13 41.12-98.88 41.12m0-60q33 0 56.5-23.5t23.5-56.5-23.5-56.5-56.5-23.5-56.5 23.5-23.5 56.5 23.5 56.5 56.5 23.5m-390.76-60q-57.75 0-98.88-41.12-41.12-41.13-41.12-98.88t41.12-98.87q41.13-41.12 98.88-41.12t98.87 41.12 41.12 98.87-41.12 98.88q-41.12 41.12-98.87 41.12m0-60q33 0 56.5-23.5t23.5-56.5-23.5-56.5-56.5-23.5-56.5 23.5-23.5 56.5 23.5 56.5 56.5 23.5M440-572.31q-57.75 0-98.87-41.12Q300-654.56 300-712.31t41.13-98.87q41.12-41.13 98.87-41.13t98.87 41.13Q580-770.06 580-712.31t-41.13 98.88q-41.12 41.12-98.87 41.12m0-60q33 0 56.5-23.5t23.5-56.5-23.5-56.5-56.5-23.5-56.5 23.5-23.5 56.5 23.5 56.5 56.5 23.5m0-80"/></svg>