<svg xmlns="http://www.w3.org/2000/svg" fill="currentColor" viewBox="0 -960 960 960"><path d="M611.54-366.15q-14.31 0-24.08-9.77T577.69-400v-160q0-14.31 9.77-24.08t24.08-9.77h100q14.31 0 24.07 9.77 9.77 9.77 9.77 24.08v160q0 14.31-9.77 24.08-9.76 9.77-24.07 9.77zm13.84-47.7h72.31v-132.3h-72.31zm-410.76 47.7v-96.16q0-14.31 10.53-24.84 10.54-10.54 24.85-10.54h84.62v-48.46h-120v-47.7h133.84q14.31 0 24.08 9.77t9.77 24.08v62.31q0 14.31-10.54 24.84-10.54 10.54-24.85 10.54h-84.61v48.46h120v47.7zm241.53-156.54v-47.69h47.7v47.69zm0 135.38V-435h47.7v47.69zM171.54-184.23q-30.31 0-51.31-21t-21-51.31v-444.61q0-30.31 21-51.31t51.31-21H290v-80h60v80h260v-80h60v80h118.46q30.31 0 51.31 21t21 51.31v444.61q0 30.31-21 51.31t-51.31 21zm0-60h284.61v-55.39h47.7v55.39h284.61q4.62 0 8.46-3.85 3.85-3.84 3.85-8.46v-444.61q0-4.62-3.85-8.46-3.84-3.85-8.46-3.85H503.85v55.38h-47.7v-55.38H171.54q-4.62 0-8.46 3.85-3.85 3.84-3.85 8.46v444.61q0 4.62 3.85 8.46 3.84 3.85 8.46 3.85m-12.31 0v-469.23z"/></svg>