<svg xmlns="http://www.w3.org/2000/svg" fill="currentColor" viewBox="0 -960 960 960"><path d="M132.31-220Q102-220 81-241t-21-51.31v-376.92q0-29.92 21.19-51.11 21.2-21.2 51.12-21.2h126.31q4.3-16.46 17.19-27.46 12.88-11 29.96-11h75.38q17.08 0 29.97 11 12.88 11 17.19 27.46h399.38q29.92 0 51.12 21.2Q900-699.15 900-669.23v376.92q0 29.92-21.19 51.12Q857.61-220 827.69-220zM840-292.31v-376.92q0-5.38-3.46-8.85-3.46-3.46-8.85-3.46H132.31q-5.39 0-8.85 3.46-3.46 3.47-3.46 8.85v376.92q0 5.39 3.46 8.85t8.85 3.46h695.38q5.39 0 8.85-3.46t3.46-8.85M120-681.54V-280zm283.08 354.62h153.84q16.23 0 27.35-11.12 11.11-11.11 11.11-27.35v-113.84q0-16.23-10.92-27.35-10.92-11.11-26.77-11.11h-1.92v-40q0-31.46-21.96-53.42-21.96-21.97-53.43-21.97-31.46 0-53.42 21.97Q405-589.15 405-557.69v40h-1.92q-16.23 0-27.35 11.11-11.11 11.12-11.11 27.35v113.84q0 16.24 11.11 27.35 11.12 11.12 27.35 11.12m37.3-190.77v-40q0-17 11.5-28.5t28.5-11.5 28.5 11.5 11.5 28.5v40z"/></svg>