<svg xmlns="http://www.w3.org/2000/svg" fill="currentColor" viewBox="0 -960 960 960"><path d="M293.85-293.85v-372.3h372.3v372.3zm60-60h252.3v-252.3h-252.3zM204.62-204.62V-140q-26.66 0-45.64-18.98T140-204.62zM140-293.85v-64.61h64.62v64.61zm0-153.84v-64.62h64.62v64.62zm0-153.85v-64.61h64.62v64.61zm64.62-153.84H140q0-26.66 18.98-45.64T204.62-820zM293.85-140v-64.62h64.61V-140zm0-615.38V-820h64.61v64.62zM447.69-140v-64.62h64.62V-140zm0-615.38V-820h64.62v64.62zM601.54-140v-64.62h64.61V-140zm0-615.38V-820h64.61v64.62zM755.38-140v-64.62H820q0 26.85-18.98 45.73Q782.04-140 755.38-140m0-153.85v-64.61H820v64.61zm0-153.84v-64.62H820v64.62zm0-153.85v-64.61H820v64.61zm0-153.84V-820q26.66 0 45.64 18.98T820-755.38z"/></svg>