<svg xmlns="http://www.w3.org/2000/svg" fill="currentColor" viewBox="0 -960 960 960"><path d="M211.23-211.23q-51.69-52.31-81.46-121.16Q100-401.23 100-480q0-79.38 29.77-148.23t81.46-120.54L254-706q-44 44-69 102t-25 124q0 67 25 125t69 101zm113-113q-29.69-30.31-46.96-70.16Q260-434.23 260-480q0-46.38 17.27-86.23t46.96-69.54L367-593q-22 22-34.5 51T320-480t12.5 62 34.5 51zM480-420q-24.54 0-42.27-17.73T420-480t17.73-42.27T480-540t42.27 17.73T540-480t-17.73 42.27T480-420m155.77 95.77L593-367q22-22 34.5-51t12.5-62-12.5-62-34.5-51l42.77-42.77q29.69 29.69 46.96 69.54T700-480q0 45.77-17.27 85.61-17.27 39.85-46.96 70.16m113 113L706-254q44-44 69-102t25-124q0-66.62-25-124.62T706-706l42.77-42.77q51.69 51.69 81.46 120.54T860-480q0 78.77-29.77 147.61-29.77 68.85-81.46 121.16"/></svg>