<svg xmlns="http://www.w3.org/2000/svg" fill="currentColor" viewBox="0 -960 960 960"><path d="M480-272.31q62.61 0 114.46-35.04T670.92-400H289.08q24.61 57.61 76.46 92.65T480-272.31M312-528.46l44-42.77 42.77 42.77L432.31-562 356-639.54 278.46-562zm249.23 0L604-571.23l44 42.77L681.54-562 604-639.54 527.69-562zM480.07-100q-78.84 0-148.21-29.92t-120.68-81.21-81.25-120.63Q100-401.1 100-479.93q0-78.84 29.92-148.21t81.21-120.68 120.63-81.25Q401.1-860 479.93-860q78.84 0 148.21 29.92t120.68 81.21 81.25 120.63Q860-558.9 860-480.07q0 78.84-29.92 148.21t-81.21 120.68-120.63 81.25Q558.9-100 480.07-100m-.07-60q134 0 227-93t93-227-93-227-227-93-227 93-93 227 93 227 227 93"/></svg>