<svg xmlns="http://www.w3.org/2000/svg" fill="currentColor" viewBox="0 -960 960 960"><path d="M666.15-253.85 624-296l182.77-184L624-664l42.15-42.15L892.31-480zm-372.3 0L67.69-480l226.16-226.15L336-664 153.23-480 336-296zm26.12-190.77q-15.05 0-25.2-10.18t-10.15-25.23 10.18-25.2 25.23-10.15 25.2 10.18 10.15 25.23-10.18 25.2-25.23 10.15m160 0q-15.05 0-25.2-10.18t-10.15-25.23 10.18-25.2 25.23-10.15 25.2 10.18 10.15 25.23-10.18 25.2-25.23 10.15m160 0q-15.05 0-25.2-10.18t-10.15-25.23 10.18-25.2 25.23-10.15 25.2 10.18 10.15 25.23-10.18 25.2-25.23 10.15"/></svg>