<svg xmlns="http://www.w3.org/2000/svg" fill="currentColor" viewBox="0 -960 960 960"><path d="M320-4.62q-14.69 0-25.04-10.34Q284.62-25.31 284.62-40t10.34-25.04Q305.31-75.38 320-75.38t25.04 10.34Q355.38-54.69 355.38-40t-10.34 25.04Q334.69-4.62 320-4.62m160 0q-14.69 0-25.04-10.34Q444.62-25.31 444.62-40t10.34-25.04Q465.31-75.38 480-75.38t25.04 10.34Q515.38-54.69 515.38-40t-10.34 25.04Q494.69-4.62 480-4.62m160 0q-14.69 0-25.04-10.34Q604.62-25.31 604.62-40t10.34-25.04Q625.31-75.38 640-75.38t25.04 10.34Q675.38-54.69 675.38-40t-10.34 25.04Q654.69-4.62 640-4.62M480-420q-41.92 0-70.96-29.04T380-520v-240q0-41.92 29.04-70.96T480-860t70.96 29.04T580-760v240q0 41.92-29.04 70.96T480-420m-30 290v-131.69q-99-11.7-164.5-85.2T220-520h60q0 83 58.5 141.5T480-320t141.5-58.5T680-520h60q0 99.61-65.5 173.11T510-261.69V-130zm30-350q17 0 28.5-11.5T520-520v-240q0-17-11.5-28.5T480-800t-28.5 11.5T440-760v240q0 17 11.5 28.5T480-480"/></svg>