<svg xmlns="http://www.w3.org/2000/svg" fill="currentColor" viewBox="0 -960 960 960"><path d="M60-480q0-87.38 32.96-163.92t90.08-133.35q57.11-56.81 133.46-89.77T480-900t163.69 32.77 133.66 89.58q57.11 56.8 89.88 133.34T900-480h-60q0-75-28.5-140.5T734-735t-114.5-77T480-840t-139.5 28T226-735t-77.5 114.5T120-480zm160 0q0-109.92 76.04-184.96T480-740t183.96 75.04T740-480h-60q0-83-58.5-141.5T480-680t-141.5 58.5T280-480zM360-77.85 317.85-120 450-252.15v-142.39q-27-10.08-43.69-33.15-16.69-23.08-16.69-51.93 0-38.15 26.11-64.26Q441.85-570 480-570t64.27 26.12q26.11 26.11 26.11 64.26 0 28.85-16.69 51.93Q537-404.62 510-394.54v142.39L642.15-120 600-77.85l-120-120z"/></svg>