<svg xmlns="http://www.w3.org/2000/svg" fill="currentColor" viewBox="0 -960 960 960"><path d="M479.23-420q-24.54 0-42.27-17.73T419.23-480t17.73-42.27T479.23-540t42.27 17.73T539.23-480t-17.73 42.27T479.23-420m0 280q-130.54 0-226.77-85.73T141.62-440h61.23Q218-336.38 296.27-268.19T479.23-200q117 0 198.5-81.5t81.5-198.5-81.5-198.5-198.5-81.5q-65.54 0-122.84 29.12-57.31 29.11-98.7 80.11h104.62v60H159.23v-203.08h60v94.77q48.69-57.46 116.62-89.19Q403.77-820 479.23-820q70.8 0 132.63 26.77t107.83 72.77 72.77 107.82q26.77 61.83 26.77 132.62t-26.77 132.63q-26.77 61.85-72.77 107.85t-107.83 72.77T479.23-140"/></svg>