<svg xmlns="http://www.w3.org/2000/svg" fill="currentColor" viewBox="0 -960 960 960"><path d="M479.88-100q-78.03 0-147.33-29.9-69.29-29.9-121.02-81.63T129.9-332.55Q100-401.85 100-479.88q0-78.98 29.96-147.97 29.96-69 81.58-120.61 51.61-51.62 121-81.58T479.88-860q78.89 0 147.93 29.96t120.65 81.58q51.62 51.61 81.58 120.61Q860-558.86 860-479.88q0 78.03-29.96 147.38t-81.58 120.96q-51.61 51.62-120.61 81.58Q558.86-100 479.88-100M300-449.23q21.15 0 35.96-14.81T350.77-500t-14.81-35.96T300-550.77t-35.96 14.81T249.23-500t14.81 35.96T300-449.23m360 0q21.15 0 35.96-14.81T710.77-500t-14.81-35.96T660-550.77t-35.96 14.81T609.23-500t14.81 35.96T660-449.23m-300 180q21.15 0 35.96-14.81T410.77-320t-14.81-35.96T360-370.77t-35.96 14.81T309.23-320t14.81 35.96T360-269.23m240 0q21.15 0 35.96-14.81T650.77-320t-14.81-35.96T600-370.77t-35.96 14.81T549.23-320t14.81 35.96T600-269.23m-180-340h120q21.77 0 36.27-14.5t14.5-36.27-14.5-36.27-36.27-14.5H420q-21.77 0-36.27 14.5T369.23-660t14.5 36.27 36.27 14.5M480-160q133 0 226.5-93.5T800-480t-93.5-226.5T480-800t-226.5 93.5T160-480t93.5 226.5T480-160"/></svg>