<svg xmlns="http://www.w3.org/2000/svg" fill="currentColor" viewBox="0 -960 960 960"><path d="M451.54-295.39h56.92l9.69-54.61q17.39-5 30-11.85 12.62-6.84 24.77-18.31l52.62 18 28.84-48.76-41.77-35.39q4.31-17.84 4.31-33.69t-4.31-33.69l41.77-35.39-28.84-48.76-52.62 18q-12.15-11.47-24.77-18.31-12.61-6.85-30-11.85l-9.69-54.61h-56.92L441.85-610q-17.39 5-30 11.85-12.62 6.84-24.77 18.31l-52.62-18-28.84 48.76 41.77 35.39q-4.31 17.84-4.31 33.69t4.31 33.69l-41.77 35.39 28.84 48.76 52.62-18q12.15 11.47 24.77 18.31 12.61 6.85 30 11.85zM480-400q-33 0-56.5-23.5T400-480t23.5-56.5T480-560t56.5 23.5T560-480t-23.5 56.5T480-400M212.31-140Q182-140 161-161t-21-51.31v-535.38Q140-778 161-799t51.31-21h535.38Q778-820 799-799t21 51.31v535.38Q820-182 799-161t-51.31 21zm0-60h535.38q4.62 0 8.46-3.85 3.85-3.84 3.85-8.46v-535.38q0-4.62-3.85-8.46-3.84-3.85-8.46-3.85H212.31q-4.62 0-8.46 3.85-3.85 3.84-3.85 8.46v535.38q0 4.62 3.85 8.46 3.84 3.85 8.46 3.85M200-760v560z"/></svg>