<svg xmlns="http://www.w3.org/2000/svg" fill="currentColor" viewBox="0 -960 960 960"><path d="M240.11-540q-74.65 0-127.38-52.64T60-719.96q0-75.58 52.64-127.81T239.96-900q75.58 0 127.81 52.17Q420-795.67 420-720.11q0 74.65-52.17 127.38Q315.67-540 240.11-540m-.11-60q51 0 85.5-35t34.5-85q0-51-34.5-85.5T240-840q-50 0-85 34.5T120-720q0 50 35 85t85 35M652.31-60q-29.83 0-51.07-21.24T580-132.31v-175.38q0-29.83 21.24-51.07T652.31-380h175.38q29.83 0 51.07 21.24T900-307.69v175.38q0 29.83-21.24 51.07T827.69-60zm0-60h175.38q5.39 0 8.85-3.46t3.46-8.85v-175.38q0-5.39-3.46-8.85t-8.85-3.46H652.31q-5.39 0-8.85 3.46t-3.46 8.85v175.38q0 5.39 3.46 8.85t8.85 3.46M699-656.23 303.77-262q5 10.46 8.31 22.21 3.3 11.75 3.3 24.4 0 41.67-28.72 70.84-28.72 29.16-71.18 29.16-41.63 0-70.86-29.17-29.23-29.18-29.23-70.85 0-42.51 29.16-71.24 29.17-28.73 70.84-28.73 12.65 0 24.4 3.3 11.75 3.31 22.21 8.31L656.23-699q-5-10.46-8.31-21.73-3.3-11.27-3.3-23.88 0-42.5 29.17-71.25t70.85-28.75q42.51 0 71.24 28.72t28.73 71.19q0 41.62-28.75 70.85t-71.25 29.23q-12.61 0-23.88-3.3-11.27-3.31-21.73-8.31"/></svg>