<svg xmlns="http://www.w3.org/2000/svg" fill="currentColor" viewBox="0 -960 960 960"><path d="M231.39-140q-24.31 0-43.58-14.58t-26.12-38.27L66.62-534q-4.62-17.08 5.92-31.54T101.16-580H290l159.85-239.3q5-7.62 12.84-11.85 7.85-4.23 17.08-4.23t17.08 4.42q7.84 4.42 12.84 12.04L668.77-580h190.07q18.08 0 28.81 14.46t5.73 31.54l-95.84 341.15q-6.85 23.69-26.12 38.27T727.85-140zm-2.16-60h501.54q4.23 0 7.31-2.5 3.07-2.5 4.23-6.73L828-520H132l85.69 310.77q1.16 4.23 4.23 6.73 3.08 2.5 7.31 2.5M480-300q24.54 0 42.27-17.73T540-360t-17.73-42.27T480-420t-42.27 17.73T420-360t17.73 42.27T480-300M362.77-580h233.85L479.38-756.46zM480-360"/></svg>