<svg xmlns="http://www.w3.org/2000/svg" fill="currentColor" viewBox="0 -960 960 960"><path d="M390-258.46 641.54-420 390-581.54zM172.31-140Q142-140 121-161t-21-51.31V-700h240v-67.69Q340-798 361-819t51.31-21h135.38Q578-840 599-819t21 51.31V-700h240v487.69Q860-182 839-161t-51.31 21zm0-60h615.38q4.62 0 8.46-3.85 3.85-3.84 3.85-8.46V-640H160v427.69q0 4.62 3.85 8.46 3.84 3.85 8.46 3.85M400-700h160v-67.69q0-4.62-3.85-8.46-3.84-3.85-8.46-3.85H412.31q-4.62 0-8.46 3.85-3.85 3.84-3.85 8.46zM160-200v-440z"/></svg>