<svg xmlns="http://www.w3.org/2000/svg" fill="currentColor" viewBox="0 -960 960 960"><path d="m480-374.62 191.54-121.53L480-617.69zM132.31-116.16q-30.31 0-51.31-21t-21-51.3v-403.08h60v403.08q0 4.61 3.85 8.46 3.84 3.84 8.46 3.84H770v60zm140-140q-30.31 0-51.31-20.99-21-21-21-51.31v-407.69h206.15v-71.54q0-30.31 21-51.31t51.31-21h143.08q30.3 0 51.3 21t21 51.31v71.54H900v407.69q0 30.31-21 51.31-21 20.99-51.31 20.99zm0-59.99h555.38q4.62 0 8.46-3.85 3.85-3.85 3.85-8.46v-347.69H260v347.69q0 4.61 3.84 8.46 3.85 3.85 8.47 3.85m193.84-420h167.7v-71.54q0-4.62-3.85-8.46-3.85-3.85-8.46-3.85H478.46q-4.61 0-8.46 3.85-3.85 3.84-3.85 8.46zM260-316.15v-360z"/></svg>