<svg xmlns="http://www.w3.org/2000/svg" fill="currentColor" viewBox="0 -960 960 960"><path d="M321.51-261.54q-15.05 0-25.2-10.18-10.16-10.18-10.16-25.23t10.19-25.2q10.18-10.16 25.23-10.16t25.2 10.18 10.15 25.23-10.18 25.21q-10.18 10.15-25.23 10.15m158.46 0q-15.05 0-25.2-10.18t-10.15-25.23 10.18-25.2q10.18-10.16 25.23-10.16t25.2 10.18 10.15 25.23-10.18 25.21q-10.18 10.15-25.23 10.15m158.46 0q-15.05 0-25.2-10.18t-10.15-25.23 10.18-25.2q10.18-10.16 25.23-10.16t25.2 10.18q10.16 10.18 10.16 25.23t-10.19 25.21q-10.18 10.15-25.23 10.15M220-420v-60q0-100.23 65.89-173.42 65.88-73.19 164.11-84.12V-820h60v82.46q98.23 10.93 164.11 84.12Q740-580.23 740-480v60zm60-60h400q0-83-58.5-141.5T480-680t-141.5 58.5T280-480m41.51 336.92q-15.05 0-25.2-10.18-10.16-10.18-10.16-25.23t10.19-25.2q10.18-10.16 25.23-10.16t25.2 10.18 10.15 25.23-10.18 25.21q-10.18 10.15-25.23 10.15m158.46 0q-15.05 0-25.2-10.18t-10.15-25.23 10.18-25.2q10.18-10.16 25.23-10.16t25.2 10.18 10.15 25.23-10.18 25.21q-10.18 10.15-25.23 10.15m158.46 0q-15.05 0-25.2-10.18t-10.15-25.23 10.18-25.2q10.18-10.16 25.23-10.16t25.2 10.18q10.16 10.18 10.16 25.23t-10.19 25.21q-10.18 10.15-25.23 10.15M480-480"/></svg>