<svg xmlns="http://www.w3.org/2000/svg" fill="currentColor" viewBox="0 -960 960 960"><path d="m620-688.61-58-165.47q-3.85-11.76 1.62-23.11 5.46-11.35 17.23-15.19 11.76-3.85 23.11 1.3 11.35 5.16 15.19 16.93l89.39 253.31 84.92-74.77q10.46-9.47 23.46-12.89t27.31-1.42 25.19 9.77q10.89 7.77 17.73 19.46l6.69 12.15-83.61 260.23q-6.77 21.92-19.42 40.19-12.66 18.27-28.5 33.89V-433q0-4.3-.31-8.3t-.92-8.31l57.69-180.78q.77-2.3-1.15-3.65-1.93-1.35-3.85.19L733-562.62q-3.85-5.07-7.31-9.46-3.46-4.38-7.31-8.84zm-212.92-87.47-31.16-53.3q-6.07-10.54-2.73-22.81 3.35-12.27 13.89-18.35 10.54-6.07 22.8-2.73 12.27 3.35 18.35 13.89L463.61-799q-15.61 2-29.19 6.46-13.57 4.46-27.34 16.46m-41.39 144.93-48.46-8.69-54.07-77.54q-6.7-10.54-4.97-22.2 1.73-11.65 12.27-18.96 10.54-7.3 23-5.27 12.46 2.04 19.77 12.58l49.46 74q-.84 9.16-.65 18.12t1.81 18.11zm245.85 500.84L214.85-65q-12.39 2.23-22.31-4.96-9.92-7.2-12.15-19.96-2.23-12.77 4.96-22.2 7.19-9.42 19.96-11.65l398-66.31q16.69-2.77 27.65-16.38 10.96-13.62 10.96-31.31v-248.31L488.69-655.85l-5.38 2.7 34 173-351.08-66q-12.77-2.24-19.65-12.27-6.89-10.04-4.66-22.81 2.24-12.77 12.47-19.46t23-4.46l264.3 49.38-22.54-111.08q-2.61-14.3.62-27.19Q423-706.92 432.46-718q9.08-11.08 20.96-17.42 11.89-6.35 25.81-5.35l13.77.62 181 199.84q13.46 15.46 20.88 33.73 7.43 18.27 7.43 38.96v230.47q0 40.38-25.7 70.19-25.69 29.8-65.07 36.65M356.15-237.69l-220.07 18.46q-12.77 1.61-21.69-6.69-8.93-8.31-10.54-21.08-1.62-12.77 6.69-21.69 8.31-8.93 21.08-10.54l224.53-18.46zm0-136.39-261.76-8.61q-12.77-.62-21.2-9.73-8.42-9.12-7.8-21.89.61-12.77 9.23-20.88 8.61-8.12 21.38-7.5l260.15 8.61zm143.08-28.38"/></svg>