<svg xmlns="http://www.w3.org/2000/svg" fill="currentColor" viewBox="0 -960 960 960"><path d="M290-207.69h60v-68.46h-60zm0-156.16h60v-148.46h-60zm160 156.16h60v-148.46h-60zm0-236.16h60v-68.46h-60zm160 236.16h60v-68.46h-60zm0-156.16h60v-148.46h-60zM252.31-100Q222-100 201-121t-21-51.31v-459.23L408.46-860h299.23Q738-860 759-839t21 51.31v615.38Q780-142 759-121t-51.31 21zm0-60h455.38q4.62 0 8.46-3.85 3.85-3.84 3.85-8.46v-615.38q0-4.62-3.85-8.46-3.84-3.85-8.46-3.85H434L240-606v433.69q0 4.62 3.85 8.46 3.84 3.85 8.46 3.85m0 0H240h480z"/></svg>