<svg xmlns="http://www.w3.org/2000/svg" fill="currentColor" viewBox="0 -960 960 960"><path d="M183.85-241.85q-36.08-44-56.58-92.8-20.5-48.81-26.5-105.35H162q6 44 22 83.5t42 72.5zM100.77-520q7.23-56.54 27.12-105.15 19.88-48.62 55.96-92.62L226-675.62q-26 33-42 72.31T162-520zM438-102q-58.85-7.16-106.19-27.66-47.35-20.5-91.96-54.96L282-228q33.85 25.62 72.73 42.81Q393.62-168 438-162zM284-732.38l-43.38-43.39q44.61-34.46 91.96-54.77Q379.92-850.84 440-858v60q-45 6-84.19 23T284-732.38m106 413.92v-323.08L641.54-480zM520-102v-60q121-17 200.5-107T800-480t-79.5-211T520-798v-60q145.92 15.85 242.96 123.46Q860-626.92 860-480t-97.04 254.54Q665.92-117.85 520-102"/></svg>