<svg xmlns="http://www.w3.org/2000/svg" fill="currentColor" viewBox="0 -960 960 960"><path d="M180-380q-41.92 0-70.96-29.04T80-480t29.04-70.96T180-580v-87.69q0-29.83 21.24-51.07T252.31-740H380q0-41.92 29.04-70.96T480-840t70.96 29.04T580-740h127.69q29.83 0 51.07 21.24T780-667.69V-580q41.92 0 70.96 29.04T880-480t-29.04 70.96T780-380v167.69q0 29.83-21.24 51.07T707.69-140H252.31q-29.83 0-51.07-21.24T180-212.31zm179.95-70q20.82 0 35.43-14.57Q410-479.14 410-499.95q0-20.82-14.57-35.43Q380.86-550 360.05-550q-20.82 0-35.43 14.57Q310-520.86 310-500.05q0 20.82 14.57 35.43Q339.14-450 359.95-450m240 0q20.82 0 35.43-14.57Q650-479.14 650-499.95q0-20.82-14.57-35.43Q620.86-550 600.05-550q-20.82 0-35.43 14.57Q550-520.86 550-500.05q0 20.82 14.57 35.43Q579.14-450 599.95-450M330-290h300v-60H330zm-77.69 90h455.38q5.39 0 8.85-3.46t3.46-8.85v-455.38q0-5.39-3.46-8.85t-8.85-3.46H252.31q-5.39 0-8.85 3.46t-3.46 8.85v455.38q0 5.39 3.46 8.85t8.85 3.46M480-440"/></svg>