<svg xmlns="http://www.w3.org/2000/svg" fill="currentColor" viewBox="0 -960 960 960"><path d="M573.85-333.85v-212.3h63.84l68.46 68.46v143.84zm-47.7 47.7h227.7v-211.16l-96.54-96.54H526.15zM172.31-180Q142-180 121-201t-21-51.31v-455.38Q100-738 121-759t51.31-21h219.61l80 80h315.77Q818-700 839-679t21 51.31v375.38Q860-222 839-201t-51.31 21zm0-60h615.38q5.39 0 8.85-3.46t3.46-8.85v-375.38q0-5.39-3.46-8.85t-8.85-3.46H447.38l-80-80H172.31q-5.39 0-8.85 3.46t-3.46 8.85v455.38q0 5.39 3.46 8.85t8.85 3.46M160-240v-480z"/></svg>