<svg xmlns="http://www.w3.org/2000/svg" fill="currentColor" viewBox="0 -960 960 960"><path d="m104.23-100.77 71.93-359.61h607.3l71.92 359.61zM133.85-800v-60h114.23v60zM178-160.77h272V-250H195.92zm64.69-428.15-42.77-41.77 80.77-80.77 42.77 41.77zM208.08-310H450v-90.38H226zM480-679.62q-75.31 0-128.04-52.73t-52.73-128.03h60q0 50.32 35.24 85.54 35.24 35.23 85.58 35.23 50.33 0 85.53-35.23 35.19-35.22 35.19-85.54h60q0 75.3-52.73 128.03T480-679.62m-30 163.47v-114.23h60v114.23zm60 355.38h271.62L763.69-250H510zM510-310h241.54l-17.92-90.38H510zm208.08-278.54-80.54-81.15 41.77-41.77 81.54 80.15zM711.92-800v-60h114.23v60z"/></svg>