<svg xmlns="http://www.w3.org/2000/svg" fill="currentColor" viewBox="0 -960 960 960"><path d="M480.07-100q-78.84 0-148.21-29.92t-120.68-81.21-81.25-120.63Q100-401.1 100-479.93q0-78.84 29.92-148.21t81.21-120.68 120.63-81.25Q401.1-860 479.93-860q78.84 0 148.21 29.92t120.68 81.21 81.25 120.63Q860-558.9 860-480.07q0 78.84-29.92 148.21t-81.21 120.68-120.63 81.25Q558.9-100 480.07-100m-.07-60-28-28q-6-6-9-13t-3-15v-224q-33 0-56.5-23.5T360-520v-40L235-685q-35 42-55 94t-20 111q0 134 93 227t227 93m40-2q119-15 199.5-105T800-480q0-133-93.5-226.5T480-800q-44 0-84.5 11.5T320-757v77h142q18 0 34.5 8t27.5 22l56 70h60q17 0 28.5 11.5T680-540v42q0 9-2.5 17t-7.5 16L520-240z"/></svg>