<svg xmlns="http://www.w3.org/2000/svg" fill="currentColor" viewBox="0 -960 960 960"><path d="m746.54-420.77 42.15-42.15q-40.77-40.77-63.46-93t-22.69-110.04 22.69-109.77 63.46-92.73l-42.15-43.39Q697.46-862.77 670-799.04T642.54-666 670-533.27t76.54 112.5M867-542.46l42.15-42.16q-16.11-16.14-25.59-37.03T874.08-666t9.48-44.35 25.59-37.03L867-790.15q-25.15 25.15-39.04 56.73-13.88 31.57-13.88 66.8t13.88 67.49T867-542.46M394.23-460q-57.75 0-98.87-41.13-41.13-41.12-41.13-98.87t41.13-98.87Q336.48-740 394.23-740t98.87 41.13q41.13 41.12 41.13 98.87t-41.13 98.87Q451.98-460 394.23-460m-300 304.61v-88.92q0-30.31 15.46-54.88 15.46-24.58 43.16-38.04 49.84-24.85 111.54-41.5 61.69-16.65 129.84-16.65t129.85 16.65q61.69 16.65 111.53 41.5 27.7 13.46 43.16 38.04 15.46 24.57 15.46 54.88v88.92zm60-60h480v-28.92q0-13.69-7.42-23.46-7.43-9.77-18.73-15.92-36.77-18.77-93.27-35.23-56.5-16.47-120.58-16.47t-120.58 16.47q-56.5 16.46-93.27 35.23-11.3 6.15-18.73 15.92-7.42 9.77-7.42 23.46zm240-304.61q33 0 56.5-23.5t23.5-56.5-23.5-56.5-56.5-23.5-56.5 23.5-23.5 56.5 23.5 56.5 56.5 23.5m0 304.61"/></svg>