<svg xmlns="http://www.w3.org/2000/svg" fill="currentColor" viewBox="0 -960 960 960"><path d="M908.85-566.69q-69.15 0-132.54-26.54t-112.08-75.23T589-780.54t-26.54-132.54h60.38q0 57.77 21.4 109.74t62.16 92.73q40.75 40.76 92.71 62.46 51.97 21.69 109.74 21.69zm0-169.77q-35.62 0-67.7-13.27-32.07-13.27-57.23-38.42-25.15-25.16-38.42-57.23-13.27-32.08-13.27-67.7H792q0 23.47 8.99 44.99t25.09 37.78q16.26 16.26 37.78 24.86t44.99 8.6zM401.92-460q-57.75 0-98.87-41.13-41.13-41.12-41.13-98.87t41.13-98.87Q344.17-740 401.92-740t98.88 41.13q41.12 41.12 41.12 98.87t-41.12 98.87Q459.67-460 401.92-460m-300 304.61v-88.92q0-30.31 15.47-54.88 15.46-24.58 43.15-38.04 49.85-24.85 111.54-41.5t129.84-16.65q68.16 0 129.85 16.65t111.54 41.5q27.69 13.46 43.15 38.04 15.46 24.57 15.46 54.88v88.92zm60-60h480v-28.92q0-13.69-7.42-23.46t-18.73-15.92Q579-302.46 522.5-318.92q-56.5-16.47-120.58-16.47-64.07 0-120.57 16.47-56.5 16.46-93.27 35.23-11.31 6.15-18.73 15.92-7.43 9.77-7.43 23.46zm240-304.61q33 0 56.5-23.5t23.5-56.5-23.5-56.5-56.5-23.5-56.5 23.5-23.5 56.5 23.5 56.5 56.5 23.5m0 304.61"/></svg>