<svg xmlns="http://www.w3.org/2000/svg" fill="currentColor" viewBox="0 -960 960 960"><path d="M480-460q-57.75 0-98.87-41.13Q340-542.25 340-600t41.13-98.87Q422.25-740 480-740t98.87 41.13Q620-657.75 620-600t-41.13 98.87Q537.75-460 480-460M180-155.39v-88.92q0-30.31 15.46-54.88 15.46-24.58 43.16-38.04 49.84-24.85 111.53-41.5 61.7-16.65 129.85-16.65t129.85 16.65q61.69 16.65 111.53 41.5 27.7 13.46 43.16 38.04Q780-274.62 780-244.31v88.92zm60-60h480v-28.92q0-13.69-7.42-23.46-7.43-9.77-18.73-15.92-36.77-18.77-93.27-35.23-56.5-16.47-120.58-16.47t-120.58 16.47q-56.5 16.46-93.27 35.23-11.3 6.15-18.73 15.92Q240-258 240-244.31zM480-520q33 0 56.5-23.5T560-600t-23.5-56.5T480-680t-56.5 23.5T400-600t23.5 56.5T480-520M39-747.31v-60q23.92 0 43.89-9 19.96-9 35.57-24.61 15.62-15.62 24.12-35.77 8.5-20.16 8.5-43.69h60.23q0 35.79-13.46 67.24t-37 54.99-54.87 37.19T39-747.31m0 147.93v-60q54.85 0 101.81-20.54t82.04-56.23q35.07-35.7 55.61-82.86T299-920.38h61q0 66-25 124.5t-69 102.5-102 69-125 25m881 0q-65.92 0-124.35-25t-102.38-69-68.92-102.5-24.97-124.5h60q0 54.23 20.57 101.32t56.3 82.81q35.72 35.73 82.81 56.3T920-659.38zm0-147.93q-35.79 0-67.24-13.65t-54.99-37.19-37-54.99-13.46-67.24h60q0 23.53 8.8 43.69 8.81 20.15 24.43 35.77 15.61 15.61 35.77 24.61 20.15 9 43.69 9zM480-215.39"/></svg>