<svg xmlns="http://www.w3.org/2000/svg" fill="currentColor" viewBox="0 -960 960 960"><path d="M283.08-409.23q14.69 0 25.04-10.35 10.34-10.34 10.34-25.04 0-14.69-10.34-25.03Q297.77-480 283.08-480t-25.04 10.35q-10.35 10.34-10.35 25.03 0 14.7 10.35 25.04 10.35 10.35 25.04 10.35m0-115.39q14.69 0 25.04-10.34 10.34-10.35 10.34-25.04t-10.34-25.04q-10.35-10.34-25.04-10.34t-25.04 10.34q-10.35 10.35-10.35 25.04t10.35 25.04q10.35 10.34 25.04 10.34m0-115.38q14.69 0 25.04-10.35 10.34-10.34 10.34-25.03 0-14.7-10.34-25.04-10.35-10.35-25.04-10.35t-25.04 10.35q-10.35 10.34-10.35 25.04 0 14.69 10.35 25.03Q268.39-640 283.08-640m121.54 225.38H590v-59.99H404.62zm0-115.38H710v-60H404.62zm0-115.39H710v-59.99H404.62zM100-118.46v-669.23Q100-818 121-839t51.31-21h615.38Q818-860 839-839t21 51.31v455.38Q860-302 839-281t-51.31 21H241.54zM216-320h571.69q4.62 0 8.46-3.85 3.85-3.84 3.85-8.46v-455.38q0-4.62-3.85-8.46-3.84-3.85-8.46-3.85H172.31q-4.62 0-8.46 3.85-3.85 3.84-3.85 8.46v523.08zm-56 0v-480z"/></svg>