<svg xmlns="http://www.w3.org/2000/svg" fill="currentColor" viewBox="0 -960 960 960"><path d="M667.69-100H292.31q-29.83 0-51.07-21.24T220-172.31v-615.38q0-29.83 21.24-51.07T292.31-860h375.38q29.83 0 51.07 21.24T740-787.69v615.38q0 29.83-21.24 51.07T667.69-100m0-60q5.39 0 8.85-3.46t3.46-8.85v-615.38q0-5.39-3.46-8.85t-8.85-3.46H292.31q-5.39 0-8.85 3.46t-3.46 8.85v615.38q0 5.39 3.46 8.85t8.85 3.46zM480.07-607.69q29.85 0 51.04-21.26 21.2-21.26 21.2-51.12 0-29.85-21.26-51.04-21.26-21.2-51.12-21.2-29.85 0-51.04 21.26-21.2 21.26-21.2 51.12 0 29.85 21.26 51.04 21.26 21.2 51.12 21.2M480-210.77q61.77 0 105.5-43.73T629.23-360 585.5-465.5 480-509.23 374.5-465.5 330.77-360t43.73 105.5T480-210.77m-.03-60q-36.82 0-63.01-26.22t-26.19-63.04 26.22-63.01 63.04-26.19 63.01 26.22 26.19 63.04-26.22 63.01-63.04 26.19M280-800v640z"/></svg>