<svg xmlns="http://www.w3.org/2000/svg" fill="currentColor" viewBox="0 -960 960 960"><path d="M283.08-404.62q-14.69 0-25.04-10.15T247.69-440t10.35-25.23 25.04-10.15 25.04 10.15q10.34 10.15 10.34 25.23t-10.34 25.23q-10.35 10.15-25.04 10.15M808-263.69 754-320h33.69q5.39 0 8.85-3.46t3.46-8.85v-455.38q0-5.39-3.46-8.85t-8.85-3.46H274l-60-60h573.69Q818-860 839-839t21 51.31v455.38q0 26-14.5 43.58-14.5 17.57-37.5 25.04M544-530l-60-60h226v60zM815.38-60.31 614.46-260H241.54L100-118.46v-657.23l-65.85-65.85 42.16-42.15 781.23 781.23zm-532.3-464.31q-14.69 0-25.04-10.15T247.69-560t10.35-25.23 25.04-10.15 25.04 10.15q10.34 10.15 10.34 25.23t-10.34 25.23q-10.35 10.15-25.04 10.15M424-650l-25.15-25.15V-710H710v60zm-264-65.69v451.08L216-320h339.69z"/></svg>