<svg xmlns="http://www.w3.org/2000/svg" fill="currentColor" viewBox="0 -960 960 960"><path d="M480-540q-57.75 0-98.87-41.13Q340-622.25 340-680t41.13-98.87Q422.25-820 480-820t98.87 41.13Q620-737.75 620-680t-41.13 98.87Q537.75-540 480-540m0-60q33 0 56.5-23.5T560-680t-23.5-56.5T480-760t-56.5 23.5T400-680t23.5 56.5T480-600M280-140q-57.75 0-98.87-41.13Q140-222.25 140-280t41.13-98.87Q222.25-420 280-420t98.87 41.13Q420-337.75 420-280t-41.13 98.87Q337.75-140 280-140m0-60q33 0 56.5-23.5T360-280t-23.5-56.5T280-360t-56.5 23.5T200-280t23.5 56.5T280-200m400 60q-57.75 0-98.87-41.13Q540-222.25 540-280t41.13-98.87Q622.25-420 680-420t98.87 41.13Q820-337.75 820-280t-41.13 98.87Q737.75-140 680-140m0-60q33 0 56.5-23.5T760-280t-23.5-56.5T680-360t-56.5 23.5T600-280t23.5 56.5T680-200m0-80"/></svg>