<svg xmlns="http://www.w3.org/2000/svg" fill="currentColor" viewBox="0 -960 960 960"><path d="M340-147.69q-17 0-28.5-11.5t-11.5-28.5v-104.62h361.54v104.62q0 17-11.5 28.5t-28.5 11.5zm395.38-504.62v131.54q0 3-2 8l-27.69 137.38q-3 15.7-14.88 25.54-11.89 9.85-27.73 9.85H296.16q-15.85 0-27.74-9.85-11.88-9.84-14.88-25.54L226.62-512q-2-5-2-8v-230.77q0-30.31 21-51.31t51.43-21h295.13q30.43 0 51.43 21t21 51.31v98.46q0-15.04 10.18-25.21 10.19-10.17 25.24-10.17t25.2 10.17 10.15 25.21M310.62-400h338.76l26-134.46v-30.16h-70.76v-186.15q0-4.61-3.85-8.46t-8.46-3.85H296.92q-4.61 0-8.46 3.85-3.84 3.85-3.84 8.46v217.08zM340-564.62h209.23V-660H340zm140-16.92"/></svg>