<svg xmlns="http://www.w3.org/2000/svg" fill="currentColor" viewBox="0 -960 960 960"><path d="M139.69-173.85 96.92-216 269-388.08q30.23-30.23 40.77-73.79 10.54-43.57 10.54-133.51 0-55.64 24.85-109.36 24.84-53.72 70.53-99.41Q500.54-889 602.11-901q101.56-12 167.12 54.85 66.23 66.4 54.23 167.85t-96.23 185.68q-45.69 45.7-99.19 70.16T518.46-398q-89.31 0-132.38 10.42-43.08 10.42-74.31 41.66zM415.08-494q47 46.38 127 34t143-75.38q64-64 76.3-143.5 12.31-79.5-34.3-124.5-47.62-47.24-125.31-35.04-77.69 12.19-142.69 76-63 62.8-76.7 142.11Q368.69-541 415.08-494m308 434q-57.75 0-98.88-41.13-41.12-41.12-41.12-98.87t41.12-98.87Q665.33-340 723.08-340t98.87 41.13q41.13 41.12 41.13 98.87t-41.13 98.87Q780.83-60 723.08-60m0-60q33 0 56.5-23.5t23.5-56.5-23.5-56.5-56.5-23.5-56.5 23.5-23.5 56.5 23.5 56.5 56.5 23.5m0-80"/></svg>