<svg xmlns="http://www.w3.org/2000/svg" fill="currentColor" viewBox="0 -960 960 960"><path d="M480.07-340q-108.61 0-184.34-75.66Q220-491.31 220-599.93q0-108.61 75.66-184.34Q371.31-860 479.93-860q108.61 0 184.34 75.66Q740-708.69 740-600.07q0 108.61-75.66 184.34Q588.69-340 480.07-340m-.07-60q83 0 141.5-58.5T680-600t-58.5-141.5T480-800t-141.5 58.5T280-600t58.5 141.5T480-400m-80-200q17 0 28.5-11.5T440-640t-11.5-28.5T400-680t-28.5 11.5T360-640t11.5 28.5T400-600m160 0q17 0 28.5-11.5T600-640t-11.5-28.5T560-680t-28.5 11.5T520-640t11.5 28.5T560-600m-80-80q17 0 28.5-11.5T520-720t-11.5-28.5T480-760t-28.5 11.5T440-720t11.5 28.5T480-680m-30 577.69v-40q0-37.62-26.19-63.81T360-232.31h-64.61v-60h369.22v60H600q-37.62 0-63.81 26.19T510-142.31v40zM480-600"/></svg>