<svg xmlns="http://www.w3.org/2000/svg" fill="currentColor" viewBox="0 -960 960 960"><path d="M230.15-279.54q47.31-35.77 73.58-88.46T330-480t-26.27-112-73.58-88.46q-34.07 43.15-52.11 94.27Q160-535.08 160-480t18.04 106.19q18.04 51.12 52.11 94.27M480-160q57.31 0 110.54-19.23t96.38-56.92q-55.46-45.24-86.19-108.81Q570-408.54 570-480t30.73-135.04q30.73-63.57 86.19-108.81-43.15-37.69-96.38-56.92T480-800t-110.54 19.23-96.38 56.92q55.46 45.24 86.19 108.81Q390-551.46 390-480t-30.73 135.04q-30.73 63.57-86.19 108.81 43.15 37.69 96.38 56.92T480-160m249.85-119.54q34.07-43.15 52.11-94.27Q800-424.92 800-480t-18.04-106.19q-18.04-51.12-52.11-94.27-47.31 35.77-73.58 88.46T630-480t26.27 112 73.58 88.46M480.07-100q-78.84 0-148.21-29.92t-120.68-81.21-81.25-120.63Q100-401.1 100-479.93q0-78.84 29.92-148.21t81.21-120.68 120.63-81.25Q401.1-860 479.93-860q78.84 0 148.21 29.92t120.68 81.21 81.25 120.63Q860-558.9 860-480.07q0 78.84-29.92 148.21t-81.21 120.68-120.63 81.25Q558.9-100 480.07-100"/></svg>