<svg xmlns="http://www.w3.org/2000/svg" fill="currentColor" viewBox="0 -960 960 960"><path d="M356.15-718.46h76.93v-76.92h-76.93zm153.85 0v-76.92h76.92v76.92zM356.15-410.77v-76.92h76.93v76.92zm307.69-153.85v-76.92h76.93v76.92zm0 153.85v-76.92h76.93v76.92zm-153.84 0v-76.92h76.92v76.92zm153.84-307.69v-76.92h76.93v76.92zm-230.76 76.92v-76.92H510v76.92zM219.23-170.77v-624.61h60v76.92h76.92v76.92h-76.92v76.92h76.92v76.93h-76.92v316.92zm367.69-316.92v-76.93h76.92v76.93zm-153.84 0v-76.93H510v76.93zm-76.93-76.93v-76.92h76.93v76.92zm153.85 0v-76.92h76.92v76.92zm76.92-76.92v-76.92h76.92v76.92z"/></svg>