<svg xmlns="http://www.w3.org/2000/svg" fill="currentColor" viewBox="0 -960 960 960"><path d="M480-100q-78.77 0-148.11-29.96-69.35-29.96-120.66-81.27t-81.27-120.66Q100-401.23 100-480t29.96-148.11q29.96-69.35 81.27-120.66t120.66-81.27Q401.23-860 480-860t148.11 29.96q69.35 29.96 120.66 81.27t81.27 120.66Q860-558.77 860-480t-29.96 148.11q-29.96 69.35-81.27 120.66t-120.66 81.27Q558.77-100 480-100m193.08-468.46 61.69-20.31 17.54-60.92q-32-49.93-78.93-85.39-46.92-35.46-104-52.46L510-745.69v62.92zm-386.16 0L450-682.77v-62.92l-59.38-41.85q-57.08 17-103.62 52.46t-78.54 85.39L226-588.77zm-47.38 299.54 54.46-4.77 34.62-59.39-58.77-177.07-63.7-22.31L160-498.62q0 67.7 17.62 122.54 17.61 54.85 61.92 107.16M480-160q26 0 51.77-4.19t52.08-12.58l31.07-66.92-30.61-50.93H375.69l-29.84 50.93 31.07 66.92q25.16 8.39 51.12 12.58T480-160m-93.85-194.61h188.47l57.53-169.24L480-630.46 329.08-523.85zm334.31 85.69q44.31-52.31 61.92-107.16Q800-430.92 800-498.62l-45.39-31.84-64.46 19.54-58.77 177.84L666-273.69z"/></svg>