<svg xmlns="http://www.w3.org/2000/svg" fill="currentColor" viewBox="0 -960 960 960"><path d="M375.85-203.54 203.54-375.85q-4.54 38.77-3.42 85.73 1.11 46.97 7.88 80.12 25.31 7.77 77.77 9.58 52.46 1.8 90.08-3.12M448-215.69q59.38-11.46 110.61-36.81Q609.85-277.85 646-314q34.77-34.77 60.12-85.31 25.34-50.54 38.19-110.69L510-744.31q-57 12.08-107.42 38.12-50.43 26.04-85.43 61.04t-61.03 85.73Q230.08-508.69 215.69-448zm-52-138.16L353.85-396 564-606.15 606.15-564zm360.46-228.3q5.16-41.31 4.04-88.7-1.12-47.38-8.5-79.15-25.31-8.38-77.77-10.19t-90.08 3.73zM313.46-140q-52.77 0-97.46-7.35-44.69-7.34-53.77-16.42-8.69-9.69-15.46-53.46T140-312.08q0-115.53 34.66-213.77 34.65-98.23 97.96-161.53 63.3-63.31 162.65-97.96Q534.62-820 651.15-820q52.23 0 93.73 6.96T795.84-797q10.24 10.08 17.2 53.27t6.96 96.27q0 115.84-34.46 214.27-34.46 98.42-97.39 161.34-62.3 62.31-161.27 97.08Q427.92-140 313.46-140"/></svg>