<svg xmlns="http://www.w3.org/2000/svg" fill="currentColor" viewBox="0 -960 960 960"><path d="M149.23-680v-147.69l147.69 73.84zm553.85 0v-147.69l147.69 73.84zm-258.46-36.92v-147.69l147.69 73.84zM430-94.23q-72.54-2.39-133.23-12.12t-104.96-24.38q-44.27-14.66-69.19-33.54-24.93-18.88-24.93-39.58v-344.61q0-23.08 29.39-42.85 29.38-19.77 80.69-34.73T329-649.73t151-8.73 151 8.73 121.23 23.69 80.69 34.73q29.39 19.77 29.39 42.85v344.61q0 20.7-24.93 39.58-24.92 18.88-69.19 33.54-44.27 14.65-104.96 24.38T530-94.23v-159.62H430zm50-404.23q98.15 0 176.73-13.62 78.58-13.61 120.96-34-6.54-13.07-85.8-32.73-79.27-19.65-211.89-19.65t-211.89 19.65q-79.26 19.66-85.8 32.73 42.38 20.39 116.54 34Q373-498.46 480-498.46M370-158.69v-155.16h220v155.16q87.31-7.62 141.58-24.27t70.73-31.35v-276.77q-60.39 26.23-142.23 39.43-81.85 13.19-180.08 13.19t-180.08-13.19q-81.84-13.2-142.23-39.43v276.77q16.46 14.7 68.43 31.35 51.96 16.65 143.88 24.27m110-166.39"/></svg>