<svg xmlns="http://www.w3.org/2000/svg" fill="currentColor" viewBox="0 -960 960 960"><path d="M721.38-97.69q24.62-65.08 33.27-133.35Q763.31-299.31 756-368q-31.69 86.07-107.46 137.04Q572.77-180 480-180q-79 0-142-38.16-63-38.15-106.96-101.26-43.96-63.12-67.27-144.97-23.31-81.84-23.31-168.84 0-58.38 8.12-115.85 8.11-57.46 26.81-113.23h63.23q-23.23 65.47-32.58 133.54Q196.69-660.69 204-592q31.69-86.07 107.46-137.04Q387.23-780 480-780q79 0 142 38.16 63 38.15 106.96 101.26 43.96 63.12 67.27 144.77 23.31 81.66 23.31 169.04 0 58.38-8.12 115.85-8.11 57.46-26.81 113.23zM480-240q100 0 170-70t70-170-70-170-170-70-170 70-70 170 70 170 170 70m0-100q57.92 0 98.96-41.04T620-480t-41.04-98.96T480-620t-98.96 41.04T340-480t41.04 98.96T480-340m0-60q-33 0-56.5-23.5T400-480t23.5-56.5T480-560t56.5 23.5T560-480t-23.5 56.5T480-400m0-80"/></svg>