<svg xmlns="http://www.w3.org/2000/svg" fill="currentColor" viewBox="0 -960 960 960"><path d="M172.31-260Q142-260 121-281t-21-51.31v-295.38Q100-658 121-679t51.31-21h615.38Q818-700 839-679t21 51.31v295.38Q860-302 839-281t-51.31 21zm0-60h615.38q4.62 0 8.46-3.85 3.85-3.84 3.85-8.46v-295.38q0-4.62-3.85-8.46-3.84-3.85-8.46-3.85H670v144.61h-60V-640H510v144.61h-60V-640H350v144.61h-60V-640H172.31q-4.62 0-8.46 3.85-3.85 3.84-3.85 8.46v295.38q0 4.62 3.85 8.46 3.84 3.85 8.46 3.85M290-495.39h60zm160 0h60zm160 0h60zM480-480"/></svg>