<svg xmlns="http://www.w3.org/2000/svg" fill="currentColor" viewBox="0 -960 960 960"><path d="M160-410q-29.15 0-49.58-20.42Q90-450.85 90-480t20.42-49.58Q130.85-550 160-550t49.58 20.42Q230-509.15 230-480t-20.42 49.58Q189.15-410 160-410m66 224.15L183.85-228 344-388.15 386.15-346zm120-388L185.85-734 228-776.15 388.15-616zM480-90q-29.15 0-49.58-20.42Q410-130.85 410-160t20.42-49.58Q450.85-230 480-230t49.58 20.42Q550-189.15 550-160t-20.42 49.58Q509.15-90 480-90m0-640q-29.15 0-49.58-20.42Q410-770.85 410-800t20.42-49.58Q450.85-870 480-870t49.58 20.42Q550-829.15 550-800t-20.42 49.58Q509.15-730 480-730m134 157.38L571.85-616 734-776.15 776.15-734zm120 386.77L573.85-346 616-388.15 776.15-228zM800-410q-29.15 0-49.58-20.42Q730-450.85 730-480t20.42-49.58Q770.85-550 800-550t49.58 20.42Q870-509.15 870-480t-20.42 49.58Q829.15-410 800-410"/></svg>