<svg xmlns="http://www.w3.org/2000/svg" fill="currentColor" viewBox="0 -960 960 960"><path d="M486-172.31q-70.61 0-125-40-54.38-40-79.61-109.54l64.15-27.61q16.69 46.85 52.54 77.08 35.84 30.23 89.15 30.23 46.62 0 86-23.46 39.39-23.47 39.39-74.39 0-22.62-7.2-39.15-7.19-16.54-20.34-30.85h82q7.3 13.23 11.34 30.61 4.04 17.39 4.04 39.39 0 80.23-58.42 123.96-58.43 43.73-138.04 43.73M90-490v-60h780v60zm392-302.15q59.85 0 103.77 27.69t70.92 85.07l-63.77 28.62q-12.07-28.23-38.88-49.88-26.81-21.66-70.81-21.66-51.38 0-82.23 26.39-30.85 26.38-29.62 65.92h-69.84q-2.23-65.15 47.58-113.65 49.8-48.5 132.88-48.5"/></svg>