<svg xmlns="http://www.w3.org/2000/svg" fill="currentColor" viewBox="0 -960 960 960"><path d="M614.61-113.08q-28.24 0-48.35-20.11t-20.11-48.35 20.11-48.35T614.61-250t48.35 20.11 20.11 48.35-20.11 48.35-48.35 20.11m-355.38 0q-28 0-48.23-20.11t-20.23-48.35T211-229.89 259.23-250q28.77 0 48.62 20.11 19.84 20.11 19.84 48.35t-19.84 48.35q-19.85 20.11-48.62 20.11M362.84-350h207.93q5.38 0 8.84-3.46 3.47-3.46 3.47-8.85V-608zM297-290q-19.4 0-27.24-17.23t4.93-32.23l364.08-427q18.84-21.85 41.04-32.69Q702-810 728.69-810q45.62 0 77.12 31.5 31.49 31.5 31.49 77.26V-680h-59.99v-21.38q0-20.71-13.96-34.66Q749.4-750 728.69-750q-13.11 0-23.25 4.96-10.13 4.96-18.67 14.5l-43.7 50.39v317.72q0 30.04-21.23 51.24Q600.61-290 570.79-290zm99.69-284.85L221.31-750.23q43-29.77 90.23-44.77t98.85-15q40.38 0 79.07 9.08t76.77 27.61zm-3.84-88.38 69.23-80.92q-12.62-2.93-25.85-4.39T410.39-750q-23.08 0-44.85 3.96t-43.46 11.66zm0 0"/></svg>