<svg xmlns="http://www.w3.org/2000/svg" fill="currentColor" viewBox="0 -960 960 960"><path d="M172.31-100Q142-100 121-121t-21-51.31v-375.38Q100-578 121-599t51.31-21h615.38Q818-620 839-599t21 51.31v375.38Q860-142 839-121t-51.31 21zm0-60h615.38q4.62 0 8.46-3.85 3.85-3.84 3.85-8.46v-375.38q0-4.62-3.85-8.46-3.84-3.85-8.46-3.85H172.31q-4.62 0-8.46 3.85-3.85 3.84-3.85 8.46v375.38q0 4.62 3.85 8.46 3.84 3.85 8.46 3.85M410-218.46 622.31-360 410-501.54zM170-675.38v-60h620v60zm120-115.39v-60h380v60zM160-160v-400z"/></svg>