<svg xmlns="http://www.w3.org/2000/svg" fill="currentColor" viewBox="0 -960 960 960"><path d="M798.15-73.7 690.62-180H172.31Q142-180 121-201t-21-51.31v-455.38Q100-738 121-759t51.31-21h3.85l59.99 60h-63.84q-4.62 0-8.46 3.85-3.85 3.84-3.85 8.46v455.38q0 5.39 3.46 8.85t8.85 3.46h458.31l-91.54-91.54H251.54v-60h227.54L60.62-811.23l42.15-42.15L840.3-115.85zm52.62-145.69L800-270.15v-437.54q0-5.39-3.46-8.85t-8.85-3.46H350.15l-59.99-60h497.53Q818-780 839-759t21 51.31v452.92q0 9.85-1.81 18.69-1.81 8.85-7.42 16.69M587.08-483.08l-60-60h181.38v60zm-335.54 0v-60h60v60zm149.54 13.54"/></svg>