<svg xmlns="http://www.w3.org/2000/svg" fill="currentColor" viewBox="0 -960 960 960"><path d="M100-100v-506q0-77.69 41.12-135.77 41.11-58.07 114.57-87.77 51.31-19.84 110.77-25.15T480-860t113.54 5.31 110.77 25.15q73.46 29.7 114.57 87.77Q860-683.69 860-606v506zm257.08-60h244.61l-60-63.08H417.08zM300-435.38h360V-600H300zm311.61 132.3q15.39 0 25.74-10.41 10.34-10.41 10.34-25.81 0-15.39-10.41-25.74-10.42-10.34-25.81-10.34t-25.74 10.41-10.35 25.81q0 15.39 10.42 25.74 10.41 10.34 25.81 10.34m-263.08 0q15.39 0 25.74-10.41t10.35-25.81q0-15.39-10.42-25.74-10.41-10.34-25.81-10.34-15.39 0-25.74 10.41-10.34 10.41-10.34 25.81 0 15.39 10.41 25.74 10.42 10.34 25.81 10.34M160-160h147.69v-20l42.77-45.08q-44.38-5.61-71.27-37.77Q252.31-295 252.31-340v-260q0-67.61 68.34-88.04Q389-708.46 480-708.46q100 0 163.85 20.42 63.84 20.43 63.84 88.04v260q0 45-26.88 76.96-26.89 31.96-71.27 37.96L652.31-180v20H800v-446q0-60-29.5-102.5T682-774q-44-17-97.5-21.5T480-800t-104.5 4.5T278-774q-59 23-88.5 65.5T160-606zm0 0h640z"/></svg>