<svg xmlns="http://www.w3.org/2000/svg" fill="currentColor" viewBox="0 -960 960 960"><path d="M320-603.85q15.08 0 25.62-10.53 10.53-10.54 10.53-25.62t-10.53-25.62q-10.54-10.53-25.62-10.53t-25.62 10.53q-10.53 10.54-10.53 25.62t10.53 25.62q10.54 10.53 25.62 10.53m0 160q15.08 0 25.62-10.53 10.53-10.54 10.53-25.62t-10.53-25.62q-10.54-10.53-25.62-10.53t-25.62 10.53q-10.53 10.54-10.53 25.62t10.53 25.62q10.54 10.53 25.62 10.53m0 160q15.08 0 25.62-10.53 10.53-10.54 10.53-25.62t-10.53-25.62q-10.54-10.53-25.62-10.53t-25.62 10.53q-10.53 10.54-10.53 25.62t10.53 25.62q10.54 10.53 25.62 10.53M212.31-140Q182-140 161-161t-21-51.31v-535.38Q140-778 161-799t51.31-21h419.23L820-631.54v419.23Q820-182 799-161t-51.31 21zm0-60h535.38q5.39 0 8.85-3.46t3.46-8.85V-600H600v-160H212.31q-5.39 0-8.85 3.46t-3.46 8.85v535.38q0 5.39 3.46 8.85t8.85 3.46M200-760v160zv560z"/></svg>