<svg xmlns="http://www.w3.org/2000/svg" fill="currentColor" viewBox="0 -960 960 960"><path d="M677.69-387.69q-37.38 0-63.69-26.31t-26.31-63.69q0-37.39 26.31-63.7 26.31-26.3 63.69-26.3 37.39 0 63.69 26.3 26.31 26.31 26.31 63.7 0 37.38-26.31 63.69-26.3 26.31-63.69 26.31m-190 200v-46q0-21.31 10.9-39.13t30.95-25.64q34.9-14.62 72.22-21.93 37.32-7.3 75.93-7.3 37.84 0 75.19 7.3 37.35 7.31 72.97 21.93 20.05 7.82 30.94 25.64 10.9 17.82 10.9 39.13v46zm-95.38-304.62q-57.75 0-98.88-41.12-41.12-41.13-41.12-98.88t41.12-98.87q41.13-41.13 98.88-41.13t98.87 41.13q41.13 41.12 41.13 98.87t-41.13 98.88q-41.12 41.12-98.87 41.12m-300 304.62v-88.93q0-29.97 15.65-55.1 15.66-25.13 42.96-37.82 56.54-28.46 117.37-43.31 60.83-14.84 124.02-14.84 29.61 0 59.23 4.27 29.61 4.27 59.23 10.34-12.77 12.96-25.54 25.93l-25.54 25.92q-16.84-4.04-33.69-5.25t-33.69-1.21q-56.08 0-110.23 12.84Q227.92-342 178.46-316q-11.54 6.15-18.85 16.11-7.3 9.97-7.3 23.27v28.93h240v60zm300-364.62q33 0 56.5-23.5t23.5-56.5-23.5-56.5-56.5-23.5-56.5 23.5-23.5 56.5 23.5 56.5 56.5 23.5"/></svg>