<svg xmlns="http://www.w3.org/2000/svg" fill="currentColor" viewBox="0 -960 960 960"><path d="M480.07-100q-78.84 0-148.21-29.92t-120.68-81.21-81.25-120.63Q100-401.1 100-479.93q0-78.84 29.92-148.21t81.21-120.68 120.63-81.25Q401.1-860 479.93-860q78.84 0 148.21 29.92t120.68 81.21 81.25 120.63Q860-558.9 860-480.07q0 78.84-29.92 148.21t-81.21 120.68-120.63 81.25Q558.9-100 480.07-100M364-182l58.77-133.85q-37.45-13.22-64.65-40.99-27.2-27.78-41.5-65.16l-135.39 56q23.39 64 71.39 112T364-182m-47.38-356q13.54-37.38 40.96-64.65T422-643.38l-56-135.39q-64.38 24.39-112.38 72.39T181.23-594zm163.29 171.85q47.4 0 80.67-33.18t33.27-80.58-33.18-80.67-80.58-33.27-80.67 33.18-33.27 80.58 33.18 80.67 80.58 33.27M596-182q63-24 110.5-71.5T778-364l-133.85-58.77q-12.69 37-40.23 64.23T540-316.62zm47.38-358L778-596q-24-63-71.5-110.5T596-778l-56 135.85q35.61 13.84 62.15 40.31 26.54 26.46 41.23 61.84"/></svg>