<svg xmlns="http://www.w3.org/2000/svg" fill="currentColor" viewBox="0 -960 960 960"><path d="M480-373.85q44.23 0 75.19-30.96T586.15-480t-30.96-75.19T480-586.15t-75.19 30.96T373.85-480t30.96 75.19T480-373.85m197.23 77.23q35.38-37.69 53.69-84.84 18.31-47.16 18.31-98.54t-18.31-98.54q-18.31-47.15-53.69-84.84l-42.15 42.15q26.69 29.38 40.42 65.69T689.23-480t-13.73 75.54-40.42 65.69zm-394.46 0 42.15-42.15q-26.69-29.38-40.42-65.69T270.77-480t13.73-75.54 40.42-65.69l-42.15-42.15q-35.38 37.69-53.69 84.84-18.31 47.16-18.31 98.54t18.31 98.54q18.31 47.15 53.69 84.84M172.31-180q-29.92 0-51.12-21.19Q100-222.39 100-252.31v-455.38q0-29.92 21.19-51.12Q142.39-780 172.31-780h615.38q29.92 0 51.12 21.19Q860-737.61 860-707.69v455.38q0 29.92-21.19 51.12Q817.61-180 787.69-180zm0-60h615.38q5.39 0 8.85-3.46t3.46-8.85v-455.38q0-5.39-3.46-8.85t-8.85-3.46H172.31q-5.39 0-8.85 3.46t-3.46 8.85v455.38q0 5.39 3.46 8.85t8.85 3.46M160-240v-480z"/></svg>