<svg xmlns="http://www.w3.org/2000/svg" fill="currentColor" viewBox="0 -960 960 960"><path d="M373.85-253.85 416-296l-72.77-74H520v-60H343.23L416-504l-42.15-42.15L227.69-400zm212.3-160L732.31-560 586.15-706.15 544-664l72.77 74H440v60h176.77L544-456zM480.07-100q-78.84 0-148.21-29.92t-120.68-81.21-81.25-120.63Q100-401.1 100-479.93q0-78.84 29.92-148.21t81.21-120.68 120.63-81.25Q401.1-860 479.93-860q78.84 0 148.21 29.92t120.68 81.21 81.25 120.63Q860-558.9 860-480.07q0 78.84-29.92 148.21t-81.21 120.68-120.63 81.25Q558.9-100 480.07-100m-.07-60q134 0 227-93t93-227-93-227-227-93-227 93-93 227 93 227 227 93m0-320"/></svg>