<svg xmlns="http://www.w3.org/2000/svg" fill="currentColor" viewBox="0 -960 960 960"><path d="M559.95-510.77q45.82 0 77.93-32.07Q670-574.91 670-620.72q0-45.82-32.07-77.93-32.07-32.12-77.88-32.12-45.82 0-77.93 32.07Q450-666.63 450-620.81q0 45.81 32.07 77.93 32.07 32.11 77.88 32.11M331.54-326.15q43.85-49.54 103.38-76.31 59.54-26.77 125.08-26.77t125.08 26.77q59.53 26.77 103.38 76.31 5 0 8.27-3.66 3.27-3.65 3.27-8.65v-449.23q0-5.39-3.46-8.85t-8.85-3.46H332.31q-5.39 0-8.85 3.46t-3.46 8.85v449.23q0 5 3.27 8.65 3.27 3.66 8.27 3.66m.77 66.15q-29.83 0-51.07-21.24T260-332.31v-455.38q0-29.83 21.24-51.07T332.31-860h455.38q29.83 0 51.07 21.24T860-787.69v455.38q0 29.83-21.24 51.07T787.69-260zm-160 160q-29.83 0-51.07-21.24T100-172.31V-700h60v527.69q0 5.39 3.46 8.85t8.85 3.46H700v60zM560-570.77q-20.85 0-35.42-14.57Q510-599.92 510-620.77q0-20.84 14.58-35.42 14.57-14.58 35.42-14.58t35.42 14.58Q610-641.61 610-620.77q0 20.85-14.58 35.43-14.57 14.57-35.42 14.57M413.38-320h293.24q-31.31-24.62-68.97-36.92Q600-369.23 560-369.23t-77.65 12.31q-37.66 12.3-68.97 36.92M560-563.08"/></svg>