<svg xmlns="http://www.w3.org/2000/svg" fill="currentColor" viewBox="0 -960 960 960"><path d="M373.85-293.08 416-335.23 343.23-408h273.54L544-335.23l42.15 42.15 146.16-146.15-146.16-146.15L544-543.23 618-468H342l74-75.23-42.15-42.15-146.16 146.15zM172.31-140Q142-140 121-161t-21-51.31v-455.38Q100-698 121-719t51.31-21h122.15l74-80h223.08l74 80h122.15Q818-740 839-719t21 51.31v455.38Q860-182 839-161t-51.31 21zm0-60h615.38q5.39 0 8.85-3.46t3.46-8.85v-455.38q0-5.39-3.46-8.85t-8.85-3.46H638.77l-73.39-80H394.62l-73.39 80H172.31q-5.39 0-8.85 3.46t-3.46 8.85v455.38q0 5.39 3.46 8.85t8.85 3.46M480-440"/></svg>