<svg xmlns="http://www.w3.org/2000/svg" fill="currentColor" viewBox="0 -960 960 960"><path d="M172.31-180Q142-180 121-201t-21-51.31v-.77h60v.77q0 4.62 3.85 8.46 3.84 3.85 8.46 3.85h3.85v60zM100-323.85v-77.3h60v77.3zm0-148.07v-77.31h60v77.31zM100-620v-87.69Q100-738 121-759t51.31-21H260v60h-87.69q-5.77 0-9.04 3.27t-3.27 9.04V-620zm146.92 440v-60h80.39v60zm86.54-540v-60h80.39v60zm64.62 540v-60h80.38v60zm86.54-380v-220h303.07Q818-780 839-759t21 51.31V-560zm64.61 380v-60h80.38v60zm151.15 0v-60h87.31q5.77 0 9.04-3.27t3.27-9.04V-340h60v87.69Q860-222 839-201t-51.31 21zM800-411.92v-77.31h60v77.31z"/></svg>