<svg xmlns="http://www.w3.org/2000/svg" fill="currentColor" viewBox="0 -960 960 960"><path d="M320-100q-30.31 0-51.31-21t-21-51.31V-640q0-30.31 21-51.31t51.31-21h467.69q30.31 0 51.31 21T860-640v467.69Q860-142 839-121t-51.31 21zm0-60h203.85v-138.08H307.69v125.77q0 5.39 3.46 8.85T320-160m263.84 0h203.85q5.39 0 8.85-3.46t3.46-8.85v-125.77H583.84zM100-255.39v-532.3Q100-818 121-839t51.31-21h532.3v60h-532.3q-5.39 0-8.85 3.46t-3.46 8.85v532.3zm207.69-102.69h216.16v-138.46H307.69zm276.15 0H800v-138.46H583.84zM307.69-556.54H800V-640q0-5.39-3.46-8.85t-8.85-3.46H320q-5.39 0-8.85 3.46t-3.46 8.85z"/></svg>