<svg xmlns="http://www.w3.org/2000/svg" fill="currentColor" viewBox="0 -960 960 960"><path d="M747.69-140H212.31Q182-140 161-161t-21-51.31v-535.38Q140-778 161-799t51.31-21h535.38Q778-820 799-799t21 51.31v535.38Q820-182 799-161t-51.31 21M200-630h560v-117.69q0-4.62-3.85-8.46-3.84-3.85-8.46-3.85H212.31q-4.62 0-8.46 3.85-3.85 3.84-3.85 8.46zm107.69 60H200v357.69q0 4.62 3.85 8.46 3.84 3.85 8.46 3.85h95.38zm344.62 0v370h95.38q4.62 0 8.46-3.85 3.85-3.84 3.85-8.46V-570zm-60 0H367.69v370h224.62z"/></svg>