<svg xmlns="http://www.w3.org/2000/svg" fill="currentColor" viewBox="0 -960 960 960"><path d="m543.85-440 137.69-360h44.77L866-440h-50.46l-36.62-98.15H630.15L593.54-440zm101.23-140.15h117.69l-57.23-155.39h-2.77zM323.08-140q-74.93 0-127.46-52.54-52.54-52.54-52.54-127.46 0-44.92 21-83.92t59-65.31V-720q0-41.92 29.04-70.96Q281.15-820 323.08-820q41.92 0 70.96 29.04T423.08-720v250.77q38 26.31 59 65.31t21 83.92q0 74.92-52.54 127.46T323.08-140m-120-180h240q0-29.38-14.23-55.73t-40.7-45.66L363.08-440v-280q0-17-11.5-28.5t-28.5-11.5-28.5 11.5-11.5 28.5v280L258-421.39q-26.46 19.31-40.69 45.66T203.08-320"/></svg>