<svg xmlns="http://www.w3.org/2000/svg" fill="currentColor" viewBox="0 -960 960 960"><path d="m783.38-289-45-45q11-26.62 16.31-53.12T760-440q0-116-82-198t-198-82q-24 0-51.77 5t-54.85 16l-44.99-45q34.53-17.69 73.38-26.84Q440.62-780 480-780q58.46 0 114.23 20.19 55.77 20.2 104.46 58.58l49.85-49.84 42.15 42.15-49.85 49.84q38.39 48.7 58.77 104.66Q820-498.46 820-440q0 38.15-9.16 76.38-9.15 38.23-27.46 74.62M510-562.39v-69.92h-60v9.93zM795.08-80.62l-98.31-98.31q-45.31 37.7-101.58 58.31Q538.92-100 480-100q-70.15 0-132-26.77t-108.15-73.08q-46.31-46.3-73.08-108.15T140-440q0-60.77 20.23-116.46t58.7-100.31L80.62-795.08l42.15-42.15 714.46 714.46zM480-160q46.62 0 91.04-16.27t81.73-46.04L261.08-614q-29.77 36.54-45.43 80.77Q200-489 200-440q0 116 82 198t198 82M367.69-850v-60h224.62v60zm188.69 333"/></svg>