<svg xmlns="http://www.w3.org/2000/svg" fill="currentColor" viewBox="0 -960 960 960"><path d="M367.69-850v-60h224.62v60zM450-407.69h60v-224.62h-60zM480-100q-70.15 0-132-26.77t-108.15-73.08q-46.31-46.3-73.08-108.15T140-440t26.77-132 73.08-108.15q46.3-46.31 108.15-73.08T480-780q60.08 0 115.73 20.39 55.65 20.38 103.35 58.38l49.84-49.84 42.15 42.15-49.84 49.84q38 47.7 58.38 103.35Q820-500.08 820-440q0 70.15-26.77 132t-73.08 108.15q-46.3 46.31-108.15 73.08T480-100m0-60q116 0 198-82t82-198-82-198-198-82-198 82-82 198 82 198 198 82m0-280"/></svg>