<svg xmlns="http://www.w3.org/2000/svg" fill="currentColor" viewBox="0 -960 960 960"><path d="M140-302.31v-60h526.92v60zM140-450v-60h526.92v60zm0-147.69v-60h526.92v60zM787.69-300q-13.73 0-23.02-9.18t-9.29-22.74q0-13.9 9.29-23.3t23.02-9.4 23.02 9.4 9.29 23.3q0 13.56-9.29 22.74T787.69-300m0-147.31q-13.73 0-23.02-9.19t-9.29-23.5q0-13.57 9.29-22.74 9.29-9.18 23.02-9.18t23.02 9.18Q820-493.57 820-480q0 14.31-9.29 23.5t-23.02 9.19m0-148.07q-13.73 0-23.02-9.18t-9.29-22.75q0-13.89 9.29-23.29t23.02-9.4 23.02 9.4 9.29 23.29q0 13.57-9.29 22.75t-23.02 9.18"/></svg>