<svg xmlns="http://www.w3.org/2000/svg" fill="currentColor" viewBox="0 -960 960 960"><path d="M280-260q-91.67 0-155.83-64.14Q60-388.28 60-479.91t64.17-155.86Q188.33-700 280-700h400q91.67 0 155.83 64.14Q900-571.72 900-480.09t-64.17 155.86Q771.67-260 680-260zm0-60h400q66 0 113-47t47-113-47-113-113-47H280q-66 0-113 47t-47 113 47 113 113 47m399.95-50q45.82 0 77.93-32.07Q790-434.14 790-479.95q0-45.82-32.07-77.93Q725.86-590 680.05-590q-45.82 0-77.93 32.07Q570-525.86 570-480.05q0 45.82 32.07 77.93Q634.14-370 679.95-370M480-480"/></svg>