<svg xmlns="http://www.w3.org/2000/svg" fill="currentColor" viewBox="0 -960 960 960"><path d="M480.07-100q-78.84 0-148.21-29.92t-120.68-81.21-81.25-120.63Q100-401.1 100-479.93q0-78.84 29.92-148.21t81.21-120.68 120.63-81.25Q401.1-860 479.93-860q78.84 0 148.21 29.92t120.68 81.21 81.25 120.63Q860-558.9 860-480.07q0 78.84-29.92 148.21t-81.21 120.68-120.63 81.25Q558.9-100 480.07-100M450-161.23v-637.54Q326.31-783 243.15-692.96 160-602.92 160-480t83.15 212.96Q326.31-177 450-161.23m60 0q37.69-3.85 73.42-15.04T649.39-210H510zM510-270h210.77q13-13.23 22.85-28.23 9.84-15 17.77-31.77H510zm0-120h276.92q4.31-15 7.08-30t4.77-30H510zm0-120h288.77q-2-15-4.77-30t-7.08-30H510zm0-120h251.39q-7.93-16.77-17.77-31.77-9.85-15-22.85-28.23H510zm0-120h139.39q-30.24-22.54-65.97-33.73T510-798.77zm-60 270"/></svg>