<svg xmlns="http://www.w3.org/2000/svg" fill="currentColor" viewBox="0 -960 960 960"><path d="M478.76-247.69q22.62 0 37.51-14.8 14.88-14.79 14.88-37.42t-14.79-37.51q-14.8-14.89-37.42-14.89-22.63 0-37.52 14.8-14.88 14.79-14.88 37.42t14.79 37.51q14.8 14.89 37.43 14.89m0-180q22.62 0 37.51-14.8 14.88-14.79 14.88-37.42t-14.79-37.51q-14.8-14.89-37.42-14.89-22.63 0-37.52 14.8-14.88 14.79-14.88 37.42t14.79 37.51q14.8 14.89 37.43 14.89m0-180q22.62 0 37.51-14.8 14.88-14.79 14.88-37.42t-14.79-37.51q-14.8-14.89-37.42-14.89-22.63 0-37.52 14.8-14.88 14.79-14.88 37.42t14.79 37.51q14.8 14.89 37.43 14.89M298.85-355.38v-69.85q-44.85-11.69-71.66-45.42-26.8-33.73-26.8-77.04h98.46v-69.85q-44.85-11.69-71.66-45.42-26.8-33.73-26.8-77.04h98.46v-18.46q0-26.85 17.62-44.19Q334.1-820 358.85-820h240q24.75 0 42.37 17.35 17.62 17.34 17.62 44.19V-740h100.77q0 43.31-27.96 77.04t-72.81 45.42v69.85h100.77q0 43.31-27.96 77.04t-72.81 45.42v69.85h100.77q0 43.3-27.96 77.03t-72.81 45.42V-200q0 24.75-17.62 42.37Q623.6-140 598.85-140h-240q-24.75 0-42.38-17.63-17.62-17.62-17.62-42.37v-32.93q-44.85-11.69-71.66-45.42-26.8-33.73-26.8-77.03zm60 155.38h240v-560h-240zm0 0v-560z"/></svg>