<svg xmlns="http://www.w3.org/2000/svg" fill="currentColor" viewBox="0 -960 960 960"><path d="M180-347.69V-720q0-46.08 25-73.73t66.73-42.23 95.96-19.31T480-860q62.15 0 116.81 4.73 54.65 4.73 95.46 19.31t64.27 42.23T780-720v372.31q0 53.61-37.04 90.65T652.31-220l60 60v20h-56.92l-80-80H384.61l-80 80h-56.92v-20l60-60q-53.61 0-90.65-37.04T180-347.69M480-800q-111.77 0-163.08 14.04t-65.84 36.73h460.31q-12.7-23.92-64.31-37.35Q595.46-800 480-800M240-540h210v-149.23H240zm412.31 60H240h480zM510-540h210v-149.23H510zM340-327.69q22.54 0 37.42-14.89 14.89-14.88 14.89-37.42t-14.89-37.42q-14.88-14.89-37.42-14.89t-37.42 14.89q-14.89 14.88-14.89 37.42t14.89 37.42q14.88 14.89 37.42 14.89m280 0q22.54 0 37.42-14.89 14.89-14.88 14.89-37.42t-14.89-37.42q-14.88-14.89-37.42-14.89t-37.42 14.89q-14.89 14.88-14.89 37.42t14.89 37.42q14.88 14.89 37.42 14.89M307.69-280h344.62q28.69 0 48.19-19.5t19.5-48.19V-480H240v132.31q0 28.69 19.5 48.19t48.19 19.5M480-749.23h231.39-460.31z"/></svg>