<svg xmlns="http://www.w3.org/2000/svg" fill="currentColor" viewBox="0 -960 960 960"><path d="M180-267.69V-640q0-85.08 79.62-111.23 79.61-26.15 189.61-28.77l30-60H281.54v-47.69h396.92V-840H540.77l-30 60q115.54 2.62 192.38 28.46Q780-725.69 780-640v372.31q0 53.61-37.04 90.65T652.31-140l60 60v20h-56.92l-80-80H384.61l-80 80h-56.92v-20l60-60q-53.61 0-90.65-37.04T180-267.69M652.31-400H240h480zM480-247.69q21.92 0 37.11-15.2 15.2-15.19 15.2-37.11t-15.2-37.11q-15.19-15.2-37.11-15.2t-37.11 15.2q-15.2 15.19-15.2 37.11t15.2 37.11q15.19 15.2 37.11 15.2m-1.23-421.54h232.62-461.54zM240-460h480v-149.23H240zm67.69 260h344.62q28.69 0 48.19-19.5t19.5-48.19V-400H240v132.31q0 28.69 19.5 48.19t48.19 19.5m171.08-520q-129 0-173.54 15.27t-55.38 35.5h461.54q-10.85-22.08-56.62-36.42Q609-720 478.77-720"/></svg>