<svg xmlns="http://www.w3.org/2000/svg" fill="currentColor" viewBox="0 -960 960 960"><path d="M90-130.77v-60q33.39-1.15 61.46-14.5 28.08-13.34 61.54-37.42 30.77 24.23 65.88 37.96Q314-191 347-191q33.38 0 69.19-13.23T481-241.92q31.62 26.07 65.42 38.5Q580.23-191 615-191q33.77 0 65.08-12.23 31.3-12.23 68.92-39.46 35.15 26.15 63.23 38.27 28.08 12.11 57.77 13.65v60q-30.77-1.15-60.77-10.65T749-168.54q-32.77 20-67.08 29.27Q647.62-130 615-130t-67.12-9.46-67.26-29.46q-29.77 19.38-64.39 29.15Q381.62-130 347-130q-33.23 0-67.23-9.58-34-9.57-66.77-28.96-29.08 16.85-60.27 26.54T90-130.77m0-160V-380q0-93.54 36.15-174.08 36.16-80.53 99.43-139.65 63.27-59.11 149.23-92.69T560-820q28.77 0 57.04 2.73t51.19 7.58q-18.31 30.46-28.27 63.84Q630-712.46 630-683q0 59.23 41.88 101.12Q713.77-540 773-540h97v60h-97q-84.77 0-143.88-59.12Q570-598.23 570-683q0-17.46 3.35-37.19 3.34-19.73 8.88-36.66-84.38 17.23-138.31 80.16Q390-613.77 390-529.61q0 42.53 12.27 79.65t37.5 73.42q9.15-5 19.69-12.27 10.54-7.26 20.92-14.26 29.77 24.84 67 38.46Q584.62-351 615-351q30 0 66.42-13.92 36.43-13.92 67.58-38.15 30.85 22.46 60.23 36.61T870-350.77v60q-29.62-1.15-59.42-10.84-29.81-9.7-61.58-28.08-33.54 20.77-66.73 30.23T615-290q-33.31 0-69.5-10.77T481-329.69q-34.46 21.31-66.73 30.19Q382-290.61 347-290q-35 .62-67.65-9-32.66-9.61-66.35-29.54-29.08 16.85-60.27 26.54T90-290.77M345-351q9.62 0 19.23-.96 9.62-.96 16.93-3.11-26.24-41.93-38.7-84.24-12.46-42.3-12.46-90.3 0-86 43.54-153.24Q417.08-750.08 495-788.23v34.38q-73.15 10.62-135.08 41.96Q298-680.54 252.54-633t-72.16 108.85q-26.69 61.3-29.77 131.84v25.39q16.93-7.08 31.97-15.23 15.04-8.16 30.42-19.77 36.23 26.23 66.42 38.58Q309.62-351 345-351m-55-191.08"/></svg>