<svg xmlns="http://www.w3.org/2000/svg" fill="currentColor" viewBox="0 -960 960 960"><path d="M160-210q-62.15 0-106.08-43.92Q10-297.85 10-360q0-56.62 37.46-98.69 37.46-42.08 94.08-48.85h14.62l-45.7-38.61H10v-47.7h160.77l108.46 64.62L441.54-590h145.23l-78.15-100H410v-60h127.38l79.39 101.85 126.31-55.69v94.61H648l87.69 113.54q15-7.54 31.27-10.92Q783.23-510 800-510q62.15 0 106.08 43.92Q950-422.15 950-360t-43.92 106.08Q862.15-210 800-210t-106.08-43.92Q650-297.85 650-360q0-27.77 10.27-53.08 10.27-25.3 28.81-46.15l-33.85-42.46L515.38-290H403.85L310-371.54v17.69q-3.08 60.31-46.39 102.08Q220.31-210 160-210m0-60q37.62 0 63.81-26.19T250-360t-26.19-63.81T160-450t-63.81 26.19T70-360t26.19 63.81T160-270m292.46-260-161.69 60.15zh150zM800-270q37.62 0 63.81-26.19T890-360t-26.19-63.81T800-450t-63.81 26.19T710-360t26.19 63.81T800-270m-316.61-80 119.07-180h-150l-161.69 60.15L426.15-350z"/></svg>