<svg xmlns="http://www.w3.org/2000/svg" fill="currentColor" viewBox="0 -960 960 960"><path d="M480-457.69 160-661.92v409.61q0 5.39 3.46 8.85t8.85 3.46H500q0 16 1.85 30.31 1.84 14.3 6.31 29.69H172.31Q142-180 121-201t-21-51.31v-455.38Q100-738 121-759t51.31-21h615.38Q818-780 839-759t21 51.31v228.77q-13-6.31-28.5-10.58t-31.5-6.88v-165.54zm0-62.31 313.85-200h-627.7zM760-60q-74.92 0-127.46-52.54T580-240t52.54-127.46T760-420t127.46 52.54T940-240t-52.54 127.46T760-60M653.08-222.31h213.84v-35.38H653.08zM160-240v-87.7 1.16V-720z"/></svg>