<svg xmlns="http://www.w3.org/2000/svg" fill="currentColor" viewBox="0 -960 960 960"><path d="M172.31-140Q142-140 121-161t-21-51.31v-175.38Q100-418 121-439t51.31-21h172.3q6.54 51.54 45 85.77Q428.08-340 480-340q52.69 0 91.15-34.23 38.47-34.23 44.24-85.77h172.3Q818-460 839-439t21 51.31v175.38Q860-182 839-161t-51.31 21zm0-60h615.38q4.62 0 8.46-3.85 3.85-3.84 3.85-8.46v-175.38q0-4.62-3.85-8.46-3.84-3.85-8.46-3.85H664q-25.38 55-74.69 87.5T480-280t-109.31-32.5T296-400H172.31q-4.62 0-8.46 3.85-3.85 3.84-3.85 8.46v175.38q0 4.62 3.85 8.46 3.84 3.85 8.46 3.85m527.84-330.31L658-572.46l128.15-128.15 42.16 42.15zm-440.3 0L131.69-658.46l42.16-42.15L302-572.46zM450-639.23v-180h60v180zM172.31-200H160h640z"/></svg>