<svg xmlns="http://www.w3.org/2000/svg" fill="currentColor" viewBox="0 -960 960 960"><path d="M480.38-140q-70.76 0-132.61-26.77t-107.85-72.77-72.76-107.85Q140.39-409.23 140.39-480t26.77-132.61q26.76-61.85 72.76-107.85t107.85-72.77T480.38-820q75.47 0 143.39 31.73t116.61 89.19v-94.77h60v203.08H597.31v-60h104.61q-41.38-51-98.69-80.11Q545.92-760 480.38-760q-117 0-198.5 81.5T200.38-480t81.5 198.5 198.5 81.5q105 0 183.12-68.19T756.77-440H818q-14.62 128.92-111.15 214.46Q610.31-140 480.38-140m118.93-178.92L450.39-467.85V-680h59.99v187.85l131.08 131.07z"/></svg>