<svg xmlns="http://www.w3.org/2000/svg" fill="currentColor" viewBox="0 -960 960 960"><path d="M328.46-140q-29.82 0-51.06-21.24t-21.24-51.07v-535.38q0-29.83 21.24-51.07T328.46-820h303.08q29.82 0 51.06 21.24t21.24 51.07v535.38q0 29.83-21.24 51.07T631.54-140zm315.39-72.31v-535.38q0-5.39-3.47-8.85-3.46-3.46-8.84-3.46H328.46q-5.38 0-8.84 3.46-3.47 3.46-3.47 8.85v535.38q0 5.39 3.47 8.85 3.46 3.46 8.84 3.46h303.08q5.38 0 8.84-3.46 3.47-3.46 3.47-8.85M480.8-633.85q15.05 0 25.2-10.18t10.15-25.23-10.18-25.2-25.23-10.15-25.2 10.18-10.15 25.23 10.18 25.2 25.23 10.15M29.23-370v-220h60v220zm115.39 80v-380h60v380zm726.15-80v-220h60v220zm-115.39 80v-380h60v380zm-439.23 77.69V-200v-560z"/></svg>