<svg xmlns="http://www.w3.org/2000/svg" fill="currentColor" viewBox="0 -960 960 960"><path d="m443.85-187.92-197.7-114.23q-17.07-9.85-26.61-26.31T210-364.62v-228.46q0-19.69 9.54-36.15t26.61-26.31l197.7-114.23q17.07-9.84 36.15-9.84t36.15 9.84l197.7 114.23q17.07 9.85 26.61 26.31t9.54 36.15v228.46q0 19.7-9.54 36.16t-26.61 26.31l-197.7 114.23q-17.07 9.84-36.15 9.84t-36.15-9.84m6.15-65.46V-462L270-565.39v200.77q0 3.08 1.54 5.77 1.54 2.7 4.61 4.62zm60 0 173.85-100.85q3.07-1.92 4.61-4.62 1.54-2.69 1.54-5.77v-200.77L510-462zM100-680v-107.69q0-29.92 21.19-51.12Q142.39-860 172.31-860H280v60H172.31q-5.39 0-8.85 3.46t-3.46 8.85V-680zm180 580H172.31q-29.92 0-51.12-21.19Q100-142.39 100-172.31V-280h60v107.69q0 5.39 3.46 8.85t8.85 3.46H280zm400 0v-60h107.69q5.39 0 8.85-3.46t3.46-8.85V-280h60v107.69q0 29.92-21.19 51.12Q817.61-100 787.69-100zm120-580v-107.69q0-5.39-3.46-8.85t-8.85-3.46H680v-60h107.69q29.92 0 51.12 21.19Q860-817.61 860-787.69V-680zM480-513.69l178.77-104.16-172.62-99.46q-3.07-1.92-6.15-1.92t-6.15 1.92l-172.62 99.46zM450-462"/></svg>