<svg xmlns="http://www.w3.org/2000/svg" fill="currentColor" viewBox="0 -960 960 960"><path d="M99.23-186.92v-586.16h761.54v586.16zm60-410.77h115.39v-115.39H159.23zm175.38 0H450v-115.39H334.61zm175.39 0h115.39v-115.39H510zm175.38 0h115.39v-115.39H685.38zm0 175.38h115.39v-115.38H685.38zm-175.38 0h115.39v-115.38H510zm-175.39 0H450v-115.38H334.61zm-59.99-115.38H159.23v115.38h115.39zm410.76 290.77h115.39v-115.39H685.38zm-175.38 0h115.39v-115.39H510zm-175.39 0H450v-115.39H334.61zm-175.38 0h115.39v-115.39H159.23z"/></svg>