<svg xmlns="http://www.w3.org/2000/svg" fill="currentColor" viewBox="0 -960 960 960"><path d="M212.31-527.69q-30.31 0-51.31-21T140-600v-135.38q0-30.31 21-51.31t51.31-21h535.38q30.31 0 51.31 21t21 51.31V-600q0 30.31-21 51.31t-51.31 21zm0-60h535.38q4.62 0 8.46-3.85Q760-595.38 760-600v-135.38q0-4.62-3.85-8.46-3.84-3.85-8.46-3.85H212.31q-4.62 0-8.46 3.85Q200-740 200-735.38V-600q0 4.62 3.85 8.46 3.84 3.85 8.46 3.85m0 435.38q-30.31 0-51.31-21t-21-51.31V-360q0-30.31 21-51.31t51.31-21h535.38q30.31 0 51.31 21T820-360v135.38q0 30.31-21 51.31t-51.31 21zm0-60h535.38q4.62 0 8.46-3.85Q760-220 760-224.62V-360q0-4.62-3.85-8.46-3.84-3.85-8.46-3.85H212.31q-4.62 0-8.46 3.85Q200-364.62 200-360v135.38q0 4.62 3.85 8.46 3.84 3.85 8.46 3.85M200-747.69v160zm0 375.38v160z"/></svg>