<svg xmlns="http://www.w3.org/2000/svg" fill="currentColor" viewBox="0 -960 960 960"><path d="M480.09-336.92q67.99 0 115.49-47.59t47.5-115.58-47.59-115.49-115.58-47.5-115.49 47.59-47.5 115.58 47.59 115.49 115.58 47.5M480-392q-45 0-76.5-31.5T372-500t31.5-76.5T480-608t76.5 31.5T588-500t-31.5 76.5T480-392m.05 172q-137.97 0-251.43-76.12Q115.16-372.23 61.54-500q53.62-127.77 167.02-203.88Q341.97-780 479.95-780q137.97 0 251.43 76.12Q844.84-627.77 898.46-500q-53.62 127.77-167.02 203.88Q618.03-220 480.05-220m-.05-60q113 0 207.5-59.5T832-500q-50-101-144.5-160.5T480-720t-207.5 59.5T128-500q50 101 144.5 160.5T480-280"/></svg>