<svg xmlns="http://www.w3.org/2000/svg" fill="currentColor" viewBox="0 -960 960 960"><path d="M267.69-335.39q-68.59 0-116.6-47.98-48.01-47.99-48.01-116.54t47.98-116.63q47.99-48.07 116.54-48.07t116.63 48.01T432.31-500q0 29.69-10.31 56.62-10.31 26.92-29.69 48h175.38q-19.38-21.08-29.69-48-10.31-26.93-10.31-56.62 0-68.59 47.99-116.6t116.54-48.01 116.62 47.98q48.08 47.99 48.08 116.54t-48.01 116.63q-48.01 48.07-116.6 48.07zm-.01-59.99q43.94 0 74.28-30.34 30.35-30.34 30.35-74.27t-30.34-74.28q-30.33-30.35-74.27-30.35-43.93 0-74.28 30.34-30.34 30.34-30.34 74.27t30.33 74.28q30.34 30.35 74.27 30.35m424.62 0q43.93 0 74.28-30.34 30.34-30.34 30.34-74.27t-30.33-74.28q-30.34-30.35-74.27-30.35-43.94 0-74.28 30.34-30.35 30.34-30.35 74.27t30.34 74.28q30.33 30.35 74.27 30.35"/></svg>