<svg xmlns="http://www.w3.org/2000/svg" fill="currentColor" viewBox="0 -960 960 960"><path d="M792.15-82.31 494.46-380h-20q-27.38 53.61-78.75 86.81Q344.33-260 280-260q-91.67 0-155.83-64.17Q60-388.33 60-480q0-67.92 37.39-122.15 37.38-54.23 97.54-77.39L82.31-792.15l42.77-42.77 709.84 709.84zM680-393l-47-47h47zm137.31 137.31-60-60H760V-440h80v-80H553l-60-60h407v200h-80v124.31zM280-320q64.23 0 101.04-35.96t49.88-70.5h17.7L242.46-632.62Q190-621.54 155-579.15q-35 42.38-35 99.15 0 66 47 113t113 47m0-95.39q-26.65 0-45.63-18.98T215.39-480t18.98-45.63T280-544.61t45.63 18.98T344.61-480t-18.98 45.63T280-415.39m4.62-60.92"/></svg>