<svg xmlns="http://www.w3.org/2000/svg" fill="currentColor" viewBox="0 -960 960 960"><path d="M240-354.77q60-6.85 119.69-10.27 59.7-3.42 120.31-3.42t120.31 3.42Q660-361.62 720-354.77L560-546.92 449.46-415.15l-80-96zM139.23-186.16q-16.23 1.93-27.73-7.65T100-220.77v-517.69q0-17.38 11.5-26.96t27.73-7.65q13.77 2.69 43 11.42t72.54 17.81q43.31 9.07 99.46 16.46Q410.39-720 480-720t125.58-7.38q55.96-7.39 99.26-16.46 43.31-9.08 72.35-17.81T820-773.07q16.23-1.93 28.11 7.65Q860-755.84 860-738.46v517.69q0 17.38-11.89 26.96-11.88 9.58-28.11 7.65-13.77-2.69-42.81-11.42t-72.35-18.19q-43.3-9.46-99.26-16.85Q549.61-240 480-240t-125.77 7.38q-56.15 7.39-99.46 16.85t-72.54 18.19-43 11.42M160-254q78-23 158.5-34.5T480-300t161.5 11.5T800-254v-450.62q-78 23-158.5 33.81T480-660t-161.5-10.81T160-704.62zm320-225.62"/></svg>