<svg xmlns="http://www.w3.org/2000/svg" fill="currentColor" viewBox="0 -960 960 960"><path d="M212.31-140Q182-140 161-161t-21-51.31V-440h60v227.69q0 4.62 3.85 8.46 3.84 3.85 8.46 3.85H440v60zM520-140v-60h227.69q4.62 0 8.46-3.85 3.85-3.84 3.85-8.46V-440h60v227.69Q820-182 799-161t-51.31 21zM270-290l99.23-131.54 80 102.31 112.31-146.15L693.07-290zM140-520v-227.69Q140-778 161-799t51.31-21H440v60H212.31q-4.62 0-8.46 3.85-3.85 3.84-3.85 8.46V-520zm620 0v-227.69q0-4.62-3.85-8.46-3.84-3.85-8.46-3.85H520v-60h227.69Q778-820 799-799t21 51.31V-520zm-143.85-43.85q-22.53 0-37.42-14.88-14.88-14.89-14.88-37.42 0-22.54 14.88-37.43 14.89-14.88 37.42-14.88 22.54 0 37.43 14.88 14.88 14.89 14.88 37.43 0 22.53-14.88 37.42-14.89 14.88-37.43 14.88"/></svg>