<svg xmlns="http://www.w3.org/2000/svg" fill="currentColor" viewBox="0 -960 960 960"><path d="M424.62-800h110.76zm0 640h110.76zm-45.39 60-49.38-169.69q-49.16-33.77-79.5-89.23Q220-414.38 220-480t30.35-121.08q30.34-55.46 79.5-89.23L379.23-860h201.54l49.38 169.69q49.16 33.77 79.5 89.23Q740-545.62 740-480t-30.35 121.08q-30.34 55.46-79.5 89.23L580.77-100zM480-280q83 0 141.5-58.5T680-480t-58.5-141.5T480-680t-141.5 58.5T280-480t58.5 141.5T480-280m-76.77-448.46q20.39-5.77 39.08-8.96t37.69-3.19 37.69 3.19 39.08 8.96L535.38-800H424.62zM424.62-160h110.76l21.39-71.54q-20.39 5.77-39.08 8.46T480-220.39t-37.69-2.69-39.08-8.46z"/></svg>