<svg xmlns="http://www.w3.org/2000/svg" fill="currentColor" viewBox="0 -960 960 960"><path d="M489.85-206.15q10.46-1 17.23-7.83t6.77-16.47q0-11.24-7.38-17.82t-18.85-5.58q-41 3-89.31-24.03Q350-304.92 338-371.92q-2-10.23-8.58-16.08-6.57-5.85-15.65-5.85-10.92 0-18.19 8.2-7.27 8.19-4.66 21.03 16.23 87.16 78.47 124.62 62.23 37.46 120.46 33.85M479.93-100q-128.47 0-214.2-88.27T180-408q0-93.08 74.5-204.04T480-853.84Q631-723 705.5-612.04T780-408q0 131.46-85.8 219.73T479.93-100m.07-60q104 0 172-70.5T720-408q0-73-60.5-165T480-774Q361-665 300.5-573T240-408q0 107 68 177.5T480-160m0-316.92"/></svg>