<svg xmlns="http://www.w3.org/2000/svg" fill="currentColor" viewBox="0 -960 960 960"><path d="M90-175.23v-58q27.46-1.54 47.19-10.54t39.77-18.92q20.04-9.93 44.19-17.85 24.16-7.92 58.85-7.92 35.69 0 59.81 8.5 24.11 8.5 45.69 19t43.35 19.5 51.15 9 51.15-9 43.35-19.5 46.19-19q24.62-8.5 59.31-8.5 35.69 0 59.35 7.92 23.65 7.92 43.69 17.85 20.04 9.92 40.07 18.92 20.04 9 46.89 10.54v58q-33-1.16-56.19-10.16t-43.62-18.92q-20.42-9.92-40.81-18.04-20.38-8.11-49.38-8.11-28 0-49.46 8.5t-42.73 19-46.39 19.5q-25.11 9-61.42 9t-61.42-9q-25.12-9-46.39-19.5t-42.23-19-49.96-8.5q-28 0-48.88 8.11-20.89 8.12-41.31 18.04-20.43 9.92-43.62 18.92T90-175.23m0-165.69v-58q27.46-1.54 47.19-10.54t39.77-18.92q20.04-9.93 44.19-17.85 24.16-7.92 58.85-7.92 35.69 0 59.81 8.5 24.11 8.5 45.69 19t43.35 19.5 51.15 9 51.15-9 43.35-19.5 46.19-19q24.62-8.5 59.31-8.5 35.69 0 59.35 7.92 23.65 7.92 43.69 17.85 20.04 9.92 40.07 18.92 20.04 9 46.89 10.54v58q-33-1.16-56.19-10.16T770.19-370q-20.42-9.92-40.81-18.04-20.38-8.12-49.38-8.12-28.62 0-50.08 8.5t-42.73 19-46.07 19.5q-24.81 9-61.12 9t-61.42-9q-25.12-9-46.39-19.5t-42.23-19-49.96-8.5q-28 0-48.88 8.12-20.89 8.12-41.31 18.04-20.43 9.92-43.62 18.92T90-340.92m0-165.7v-57.99q27.46-1.54 47.19-10.54t39.77-18.93Q197-604 221.15-611.92q24.16-7.92 58.85-7.92 35.69 0 59.81 8.5 24.11 8.5 45.69 19t43.35 19.5 51.15 9 51.15-9 43.35-19.5 46.19-19q24.62-8.5 59.31-8.5 35.69 0 59.35 7.92Q763-604 783.04-594.08q20.04 9.93 40.07 18.93 20.04 9 46.89 10.54v57.99q-33-1.15-56.19-10.15t-43.62-18.92q-20.42-9.93-40.81-18.04-20.38-8.12-49.38-8.12-28 0-49.46 8.5t-42.73 19-46.39 19.5q-25.11 9-61.42 9t-61.42-9q-25.12-9-46.39-19.5t-42.23-19-49.96-8.5q-28 0-48.88 8.12-20.89 8.11-41.31 18.04-20.43 9.92-43.62 18.92T90-506.62m0-165.69v-58q27.46-1.53 47.19-10.53t39.77-18.93q20.04-9.92 44.19-17.84 24.16-7.93 58.85-7.93 35.69 0 59.81 8.5 24.11 8.5 45.69 19t43.35 19.5 51.15 9 51.15-9 43.35-19.5 46.19-19q24.62-8.5 59.31-8.5 35.69 0 59.35 7.93 23.65 7.92 43.69 17.84 20.04 9.93 40.07 18.93 20.04 9 46.89 10.53v58q-33-1.15-56.19-10.15t-43.62-18.92q-20.42-9.93-40.81-18.04-20.38-8.12-49.38-8.12-28 0-49.46 8.5t-42.73 19-46.39 19.5q-25.11 9-61.42 9t-61.42-9q-25.12-9-46.39-19.5t-42.23-19-49.96-8.5q-28 0-48.88 8.12-20.89 8.11-41.31 18.04-20.43 9.92-43.62 18.92T90-672.31"/></svg>