<svg xmlns="http://www.w3.org/2000/svg" fill="currentColor" viewBox="0 -960 960 960"><path d="M450-90v-114.62h60V-90zM90-450v-60h114.62v60zm665.38 0v-60H870v60zm-34.61 272.92-80.15-80.15 42.15-42.15 80.15 80.15zm-481.54 0-42.15-42.15 80.15-80.15 42.15 42.15zM480-300q-74.92 0-127.46-52.54T300-480q0-45.69 21.5-84.69t58.5-64.54v-176.92h200v176.92q37 25.54 58.5 64.54T660-480q0 74.92-52.54 127.46T480-300m-40-355.23q10-2.38 19.81-3.58Q469.62-660 480-660t20.19 1.19q9.81 1.2 19.81 3.58v-90.92h-80zM480-360q50 0 85-35t35-85-35-85-85-35-85 35-35 85 35 85 85 35m0-120"/></svg>