<svg xmlns="http://www.w3.org/2000/svg" fill="currentColor" viewBox="0 -960 960 960"><path d="M450-802.31V-910h60v107.69zM450-50v-107.69h60V-50zm352.31-400v-60H910v60zM50-450v-60h107.69v60zm690.31-248.15-42.16-42.16L762-805.38 805.38-762zM198-154.62 154.62-198l65.07-63.85 42.16 42.16zm564 0-63.85-65.07 42.16-42.16L805.38-198zM219.69-698.15 154.62-762 198-805.38l63.85 65.07zM480.09-260q-91.63 0-155.86-64.14T260-479.91t64.14-155.86T479.91-700t155.86 64.14T700-480.09t-64.14 155.86T480.09-260m-.09-60q67 0 113.5-46.5T640-480t-46.5-113.5T480-640t-113.5 46.5T320-480t46.5 113.5T480-320m0-160"/></svg>