<svg xmlns="http://www.w3.org/2000/svg" fill="currentColor" viewBox="0 -960 960 960"><path d="M160-663.08q0-41.92 29.04-70.96 29.04-29.03 70.96-29.03h440q41.92 0 70.96 29.03Q800-705 800-663.08v72.31q41.92 0 70.96 29.04T900-490.77v200q0 41.92-29.04 70.96T800-190.77H160q-41.92 0-70.96-29.04T60-290.77v-200q0-41.92 29.04-70.96T160-590.77zm60 0v94.31q18 13.54 29 33.62 11 20.07 11 44.38v90h440v-90q0-24.31 11-44.38 11-20.08 29-33.62v-94.31q0-17-11.5-28.5t-28.5-11.5H260q-17 0-28.5 11.5t-11.5 28.5m540 322.31H200v-150q0-8-3-15.5t-8.5-13-13-8.5-15.5-3q-17 0-28.5 11.5t-11.5 28.5v200q0 17 11.5 28.5t28.5 11.5h640q17 0 28.5-11.5t11.5-28.5v-200q0-17-11.5-28.5t-28.5-11.5q-8 0-15.5 3t-13 8.5-8.5 13-3 15.5zm-280-60"/></svg>