<svg xmlns="http://www.w3.org/2000/svg" fill="currentColor" viewBox="0 -960 960 960"><path d="M227.08-164.23q-54.69-52.31-86.46-123.11-31.77-70.81-31.77-152.55 0-78.88 29.92-148.25Q168.7-657.51 220-708.82t120.65-81.25Q410-820 488.85-820q103.15 0 187.61 49.12Q760.92-721.77 812-640h-73.15q-45-55-109.5-87.5T488.85-760q-134 0-227 93t-93 227q0 69 27 129t74 104zm113-113q-32.69-30.31-51.96-72.16-19.27-41.86-19.27-90.61 0-91.67 64.14-155.83Q397.13-660 488.76-660q91.62 0 155.85 64.21 64.24 64.21 64.24 155.94 0 48.62-19.27 90.77-19.27 42.16-51.97 71.85L594.85-320q25-23 39.5-54t14.5-66q0-66-47-113t-113-47-113 47-47 113q0 36 14.5 66.5t39.5 53.5zM488.85-380q-24.54 0-42.27-17.73T428.85-440t17.73-42.27T488.85-500q24.53 0 42.26 17.73 17.74 17.73 17.74 42.27t-17.74 42.27Q513.38-380 488.85-380m330.13 194.61q-13.67 0-23.06-9.32-9.38-9.33-9.38-23.12t9.32-22.98q9.33-9.19 23.12-9.19t22.98 9.25 9.19 22.92-9.25 23.06q-9.25 9.38-22.92 9.38m-30.13-139.23V-560h59.99v235.38z"/></svg>