<svg xmlns="http://www.w3.org/2000/svg" fill="currentColor" viewBox="0 -960 960 960"><path d="M160-200v-440 427.69-4.04zm12.31 60Q142-140 121-161t-21-51.31v-415.38Q100-658 121-679t51.31-21H340v-67.69Q340-798 361-819t51.31-21h135.38Q578-840 599-819t21 51.31V-700h167.69Q818-700 839-679t21 51.31v169.46q-13.77-9.54-28.58-16.54T800-487.23v-140.46q0-5.39-3.46-8.85t-8.85-3.46H172.31q-5.39 0-8.85 3.46t-3.46 8.85v415.38q0 5.39 3.46 8.85t8.85 3.46H463q2.62 16 6.89 30.81 4.27 14.8 10.57 29.19zM400-700h160v-67.69q0-5.38-3.46-8.85-3.46-3.46-8.85-3.46H412.31q-5.39 0-8.85 3.46-3.46 3.47-3.46 8.85zM720-60q-74.92 0-127.46-52.54T540-240t52.54-127.46T720-420t127.46 52.54T900-240t-52.54 127.46T720-60m17.69-187.23v-110.46h-35.38v124.92L786-149.08 810.92-174z"/></svg>