<svg xmlns="http://www.w3.org/2000/svg" fill="currentColor" viewBox="0 -960 960 960"><path d="m392-420.46 33.08-108.62-87-67.07h108.23L480-704.31l33.69 108.16h108.23l-87.61 67.07 33.07 108.62L480-488zM260-70.77v-286.31q-38-39.69-59-91.77-21-52.07-21-111.15 0-125.54 87.23-212.77T480-860t212.77 87.23T780-560q0 59.08-21 111.15-21 52.08-59 91.77v286.31l-220-70zM480-320q100 0 170-70t70-170-70-170-170-70-170 70-70 170 70 170 170 70M320-158.62l160-42.92 160 42.92v-148.61q-34.23 22.31-74.92 34.77Q524.38-260 480-260t-85.08-12.46q-40.69-12.46-74.92-34.77zm160-74.3"/></svg>