<svg xmlns="http://www.w3.org/2000/svg" fill="currentColor" viewBox="0 -960 960 960"><path d="M240-135.39q-59.65 0-102.13-42.48T95.39-280t42.48-102.13T240-424.61t102.13 42.48T384.61-280t-42.48 102.13T240-135.39m480 0q-59.65 0-102.13-42.48T575.39-280t42.48-102.13T720-424.61t102.13 42.48T864.61-280t-42.48 102.13T720-135.39m-479.99-59.99q34.91 0 59.76-24.86t24.85-59.77-24.86-59.76-59.77-24.85-59.76 24.86-24.85 59.77 24.86 59.76 59.77 24.85m480 0q34.91 0 59.76-24.86t24.85-59.77-24.86-59.76-59.77-24.85-59.76 24.86-24.85 59.77 24.86 59.76 59.77 24.85M480-535.39q-59.65 0-102.13-42.48T335.39-680t42.48-102.13T480-824.61t102.13 42.48T624.61-680t-42.48 102.13T480-535.39m.01-59.99q34.91 0 59.76-24.86t24.85-59.77-24.86-59.76-59.77-24.85-59.76 24.86-24.85 59.77 24.86 59.76 59.77 24.85M240-280"/></svg>